<svg width="468" height="232" viewBox="0 0 468 232" fill="none" xmlns="http://www.w3.org/2000/svg">
<path d="M8.33523 163.341H10.9261L12.75 165.719L13.6108 166.776L16.517 170.568H13.8239L11.8807 168.037L11.2159 167.116L8.33523 163.341ZM17.0795 160.273C17.0795 162.136 16.7386 163.739 16.0568 165.08C15.375 166.415 14.4403 167.443 13.2528 168.165C12.071 168.881 10.7273 169.239 9.22159 169.239C7.71023 169.239 6.3608 168.881 5.1733 168.165C3.99148 167.443 3.05966 166.412 2.37784 165.071C1.69602 163.73 1.35511 162.131 1.35511 160.273C1.35511 158.409 1.69602 156.81 2.37784 155.474C3.05966 154.134 3.99148 153.105 5.1733 152.389C6.3608 151.668 7.71023 151.307 9.22159 151.307C10.7273 151.307 12.071 151.668 13.2528 152.389C14.4403 153.105 15.375 154.134 16.0568 155.474C16.7386 156.81 17.0795 158.409 17.0795 160.273ZM14.4716 160.273C14.4716 158.852 14.2415 157.656 13.7812 156.685C13.3267 155.707 12.7017 154.969 11.9062 154.469C11.1165 153.963 10.2216 153.71 9.22159 153.71C8.21591 153.71 7.31818 153.963 6.52841 154.469C5.73864 154.969 5.11364 155.707 4.65341 156.685C4.19886 157.656 3.97159 158.852 3.97159 160.273C3.97159 161.693 4.19886 162.892 4.65341 163.869C5.11364 164.841 5.73864 165.58 6.52841 166.085C7.31818 166.585 8.21591 166.835 9.22159 166.835C10.2216 166.835 11.1165 166.585 11.9062 166.085C12.7017 165.58 13.3267 164.841 13.7812 163.869C14.2415 162.892 14.4716 161.693 14.4716 160.273ZM20.9702 169H18.1747L24.456 151.545H27.4986L33.7798 169H30.9844L26.0497 154.716H25.9134L20.9702 169ZM21.4389 162.165H30.5071V164.381H21.4389V162.165ZM36.3004 169V151.545H42.522C43.8743 151.545 44.9964 151.778 45.8885 152.244C46.7862 152.71 47.4567 153.355 47.8999 154.179C48.343 154.997 48.5646 155.943 48.5646 157.017C48.5646 158.085 48.3402 159.026 47.8913 159.838C47.4482 160.645 46.7777 161.273 45.88 161.722C44.9879 162.17 43.8658 162.395 42.5135 162.395H37.8004V160.128H42.2749C43.1271 160.128 43.8203 160.006 44.3544 159.761C44.8942 159.517 45.2891 159.162 45.5391 158.696C45.7891 158.23 45.9141 157.67 45.9141 157.017C45.9141 156.358 45.7862 155.787 45.5305 155.304C45.2805 154.821 44.8857 154.452 44.3459 154.196C43.8118 153.935 43.1101 153.804 42.2408 153.804H38.9339V169H36.3004ZM44.9169 161.125L49.2294 169H46.2294L42.0021 161.125H44.9169ZM53.2436 169H50.4482L56.7294 151.545H59.772L66.0533 169H63.2578L58.3232 154.716H58.1868L53.2436 169ZM53.7124 162.165H62.7805V164.381H53.7124V162.165ZM68.5739 169V151.545H74.9659C76.2045 151.545 77.2301 151.75 78.0426 152.159C78.8551 152.562 79.4631 153.111 79.8665 153.804C80.2699 154.491 80.4716 155.267 80.4716 156.131C80.4716 156.858 80.3381 157.472 80.071 157.972C79.804 158.466 79.446 158.864 78.9972 159.165C78.554 159.46 78.0653 159.676 77.5312 159.812V159.983C78.1108 160.011 78.6761 160.199 79.2273 160.545C79.7841 160.886 80.2443 161.372 80.608 162.003C80.9716 162.634 81.1534 163.401 81.1534 164.304C81.1534 165.196 80.9432 165.997 80.5227 166.707C80.108 167.412 79.4659 167.972 78.5966 168.386C77.7273 168.795 76.6165 169 75.2642 169H68.5739ZM71.2074 166.741H75.0085C76.2699 166.741 77.1733 166.497 77.7188 166.009C78.2642 165.52 78.5369 164.909 78.5369 164.176C78.5369 163.625 78.3977 163.119 78.1193 162.659C77.8409 162.199 77.4432 161.832 76.9261 161.56C76.4148 161.287 75.8068 161.151 75.1023 161.151H71.2074V166.741ZM71.2074 159.097H74.7358C75.3267 159.097 75.858 158.983 76.3295 158.756C76.8068 158.528 77.1847 158.21 77.4631 157.801C77.7472 157.386 77.8892 156.898 77.8892 156.335C77.8892 155.614 77.6364 155.009 77.1307 154.52C76.625 154.031 75.8494 153.787 74.804 153.787H71.2074V159.097ZM85.7514 169H82.956L89.2372 151.545H92.2798L98.5611 169H95.7656L90.831 154.716H90.6946L85.7514 169ZM86.2202 162.165H95.2884V164.381H86.2202V162.165ZM112.074 157.06C111.909 156.543 111.688 156.08 111.409 155.67C111.136 155.256 110.81 154.903 110.429 154.614C110.048 154.318 109.614 154.094 109.125 153.94C108.642 153.787 108.111 153.71 107.531 153.71C106.548 153.71 105.662 153.963 104.872 154.469C104.082 154.974 103.457 155.716 102.997 156.693C102.543 157.665 102.315 158.855 102.315 160.264C102.315 161.679 102.545 162.875 103.006 163.852C103.466 164.83 104.097 165.571 104.898 166.077C105.699 166.582 106.611 166.835 107.634 166.835C108.582 166.835 109.409 166.642 110.114 166.256C110.824 165.869 111.372 165.324 111.759 164.619C112.151 163.909 112.347 163.074 112.347 162.114L113.028 162.241H108.034V160.068H114.895V162.054C114.895 163.52 114.582 164.793 113.957 165.872C113.338 166.946 112.48 167.776 111.384 168.361C110.293 168.946 109.043 169.239 107.634 169.239C106.054 169.239 104.668 168.875 103.474 168.148C102.287 167.42 101.361 166.389 100.696 165.054C100.031 163.713 99.6989 162.122 99.6989 160.281C99.6989 158.889 99.892 157.639 100.278 156.531C100.665 155.423 101.207 154.483 101.906 153.71C102.611 152.932 103.438 152.338 104.386 151.929C105.341 151.514 106.384 151.307 107.514 151.307C108.457 151.307 109.335 151.446 110.148 151.724C110.966 152.003 111.693 152.398 112.33 152.909C112.972 153.42 113.503 154.028 113.923 154.733C114.344 155.432 114.628 156.207 114.776 157.06H112.074ZM109.159 147.114H111.256C111.256 148.074 110.915 148.855 110.233 149.457C109.557 150.054 108.642 150.352 107.489 150.352C106.341 150.352 105.429 150.054 104.753 149.457C104.077 148.855 103.739 148.074 103.739 147.114H105.827C105.827 147.54 105.952 147.918 106.202 148.247C106.452 148.571 106.881 148.733 107.489 148.733C108.085 148.733 108.511 148.571 108.767 148.247C109.028 147.923 109.159 147.545 109.159 147.114ZM127.223 151.545V169H124.589V151.545H127.223ZM125.911 149.526C125.467 149.526 125.087 149.378 124.768 149.082C124.456 148.781 124.3 148.423 124.3 148.009C124.3 147.588 124.456 147.23 124.768 146.935C125.087 146.634 125.467 146.483 125.911 146.483C126.354 146.483 126.732 146.634 127.044 146.935C127.362 147.23 127.521 147.588 127.521 148.009C127.521 148.423 127.362 148.781 127.044 149.082C126.732 149.378 126.354 149.526 125.911 149.526ZM137.476 163.341H140.067L141.891 165.719L142.751 166.776L145.658 170.568H142.964L141.021 168.037L140.357 167.116L137.476 163.341ZM146.22 160.273C146.22 162.136 145.879 163.739 145.197 165.08C144.516 166.415 143.581 167.443 142.393 168.165C141.212 168.881 139.868 169.239 138.362 169.239C136.851 169.239 135.501 168.881 134.314 168.165C133.132 167.443 132.2 166.412 131.518 165.071C130.837 163.73 130.496 162.131 130.496 160.273C130.496 158.409 130.837 156.81 131.518 155.474C132.2 154.134 133.132 153.105 134.314 152.389C135.501 151.668 136.851 151.307 138.362 151.307C139.868 151.307 141.212 151.668 142.393 152.389C143.581 153.105 144.516 154.134 145.197 155.474C145.879 156.81 146.22 158.409 146.22 160.273ZM143.612 160.273C143.612 158.852 143.382 157.656 142.922 156.685C142.467 155.707 141.842 154.969 141.047 154.469C140.257 153.963 139.362 153.71 138.362 153.71C137.357 153.71 136.459 153.963 135.669 154.469C134.879 154.969 134.254 155.707 133.794 156.685C133.339 157.656 133.112 158.852 133.112 160.273C133.112 161.693 133.339 162.892 133.794 163.869C134.254 164.841 134.879 165.58 135.669 166.085C136.459 166.585 137.357 166.835 138.362 166.835C139.362 166.835 140.257 166.585 141.047 166.085C141.842 165.58 142.467 164.841 142.922 163.869C143.382 162.892 143.612 161.693 143.612 160.273ZM147.893 153.812V151.545H161.401V153.812H155.955V169H153.33V153.812H147.893ZM167.02 151.545V169H164.386V151.545H167.02ZM165.707 149.526C165.264 149.526 164.884 149.378 164.565 149.082C164.253 148.781 164.097 148.423 164.097 148.009C164.097 147.588 164.253 147.23 164.565 146.935C164.884 146.634 165.264 146.483 165.707 146.483C166.151 146.483 166.528 146.634 166.841 146.935C167.159 147.23 167.318 147.588 167.318 148.009C167.318 148.423 167.159 148.781 166.841 149.082C166.528 149.378 166.151 149.526 165.707 149.526ZM180.375 156.131C180.284 155.324 179.909 154.699 179.25 154.256C178.591 153.807 177.761 153.582 176.761 153.582C176.045 153.582 175.426 153.696 174.903 153.923C174.381 154.145 173.974 154.452 173.685 154.844C173.401 155.23 173.259 155.67 173.259 156.165C173.259 156.58 173.355 156.937 173.548 157.239C173.747 157.54 174.006 157.793 174.324 157.997C174.648 158.196 174.994 158.364 175.364 158.5C175.733 158.631 176.088 158.739 176.429 158.824L178.134 159.267C178.69 159.403 179.261 159.588 179.847 159.821C180.432 160.054 180.974 160.361 181.474 160.741C181.974 161.122 182.378 161.594 182.685 162.156C182.997 162.719 183.153 163.392 183.153 164.176C183.153 165.165 182.898 166.043 182.386 166.81C181.881 167.577 181.145 168.182 180.179 168.625C179.219 169.068 178.057 169.29 176.693 169.29C175.386 169.29 174.256 169.082 173.301 168.668C172.347 168.253 171.599 167.665 171.06 166.903C170.52 166.136 170.222 165.227 170.165 164.176H172.807C172.858 164.807 173.063 165.332 173.42 165.753C173.784 166.168 174.247 166.477 174.81 166.682C175.378 166.881 176 166.98 176.676 166.98C177.42 166.98 178.082 166.864 178.662 166.631C179.247 166.392 179.707 166.062 180.043 165.642C180.378 165.216 180.545 164.719 180.545 164.151C180.545 163.634 180.398 163.21 180.102 162.881C179.813 162.551 179.418 162.278 178.918 162.062C178.423 161.847 177.864 161.656 177.239 161.491L175.176 160.929C173.778 160.548 172.67 159.989 171.852 159.25C171.04 158.511 170.634 157.534 170.634 156.318C170.634 155.312 170.906 154.435 171.452 153.685C171.997 152.935 172.736 152.352 173.668 151.938C174.599 151.517 175.651 151.307 176.821 151.307C178.003 151.307 179.045 151.514 179.949 151.929C180.858 152.344 181.574 152.915 182.097 153.642C182.619 154.364 182.892 155.193 182.915 156.131H180.375ZM187.634 169H184.839L191.12 151.545H194.163L200.444 169H197.648L192.714 154.716H192.577L187.634 169ZM188.103 162.165H197.171V164.381H188.103V162.165ZM208.615 169H202.964V151.545H208.794C210.504 151.545 211.973 151.895 213.2 152.594C214.428 153.287 215.368 154.284 216.021 155.585C216.68 156.881 217.01 158.435 217.01 160.247C217.01 162.065 216.678 163.628 216.013 164.935C215.354 166.241 214.399 167.247 213.149 167.952C211.899 168.651 210.388 169 208.615 169ZM205.598 166.699H208.47C209.8 166.699 210.905 166.449 211.786 165.949C212.666 165.443 213.325 164.713 213.763 163.759C214.2 162.798 214.419 161.628 214.419 160.247C214.419 158.878 214.2 157.716 213.763 156.761C213.331 155.807 212.686 155.082 211.828 154.588C210.97 154.094 209.905 153.847 208.632 153.847H205.598V166.699ZM222.918 151.545V169H220.285V151.545H222.918ZM221.606 149.526C221.163 149.526 220.782 149.378 220.464 149.082C220.151 148.781 219.995 148.423 219.995 148.009C219.995 147.588 220.151 147.23 220.464 146.935C220.782 146.634 221.163 146.483 221.606 146.483C222.049 146.483 222.427 146.634 222.739 146.935C223.058 147.23 223.217 147.588 223.217 148.009C223.217 148.423 223.058 148.781 222.739 149.082C222.427 149.378 222.049 149.526 221.606 149.526ZM233.105 169V151.545H239.327C240.679 151.545 241.801 151.778 242.693 152.244C243.591 152.71 244.261 153.355 244.705 154.179C245.148 154.997 245.369 155.943 245.369 157.017C245.369 158.085 245.145 159.026 244.696 159.838C244.253 160.645 243.582 161.273 242.685 161.722C241.793 162.17 240.67 162.395 239.318 162.395H234.605V160.128H239.08C239.932 160.128 240.625 160.006 241.159 159.761C241.699 159.517 242.094 159.162 242.344 158.696C242.594 158.23 242.719 157.67 242.719 157.017C242.719 156.358 242.591 155.787 242.335 155.304C242.085 154.821 241.69 154.452 241.151 154.196C240.616 153.935 239.915 153.804 239.045 153.804H235.739V169H233.105ZM241.722 161.125L246.034 169H243.034L238.807 161.125H241.722ZM250.048 169H247.253L253.534 151.545H256.577L262.858 169H260.062L255.128 154.716H254.991L250.048 169ZM250.517 162.165H259.585V164.381H250.517V162.165ZM262.251 151.545H265.242L269.802 159.48H269.989L274.549 151.545H277.54L271.208 162.148V169H268.583V162.148L262.251 151.545ZM294.298 160.273C294.298 162.136 293.957 163.739 293.276 165.08C292.594 166.415 291.659 167.443 290.472 168.165C289.29 168.881 287.946 169.239 286.44 169.239C284.929 169.239 283.58 168.881 282.392 168.165C281.21 167.443 280.278 166.412 279.597 165.071C278.915 163.73 278.574 162.131 278.574 160.273C278.574 158.409 278.915 156.81 279.597 155.474C280.278 154.134 281.21 153.105 282.392 152.389C283.58 151.668 284.929 151.307 286.44 151.307C287.946 151.307 289.29 151.668 290.472 152.389C291.659 153.105 292.594 154.134 293.276 155.474C293.957 156.81 294.298 158.409 294.298 160.273ZM291.69 160.273C291.69 158.852 291.46 157.656 291 156.685C290.545 155.707 289.92 154.969 289.125 154.469C288.335 153.963 287.44 153.71 286.44 153.71C285.435 153.71 284.537 153.963 283.747 154.469C282.957 154.969 282.332 155.707 281.872 156.685C281.418 157.656 281.19 158.852 281.19 160.273C281.19 161.693 281.418 162.892 281.872 163.869C282.332 164.841 282.957 165.58 283.747 166.085C284.537 166.585 285.435 166.835 286.44 166.835C287.44 166.835 288.335 166.585 289.125 166.085C289.92 165.58 290.545 164.841 291 163.869C291.46 162.892 291.69 161.693 291.69 160.273ZM311.67 151.545V169H309.249L300.377 156.199H300.215V169H297.582V151.545H300.019L308.9 164.364H309.062V151.545H311.67ZM326.736 151.545H329.378V163.026C329.378 164.247 329.091 165.33 328.517 166.273C327.943 167.21 327.136 167.949 326.097 168.489C325.057 169.023 323.838 169.29 322.44 169.29C321.048 169.29 319.832 169.023 318.793 168.489C317.753 167.949 316.946 167.21 316.372 166.273C315.798 165.33 315.511 164.247 315.511 163.026V151.545H318.145V162.812C318.145 163.602 318.318 164.304 318.665 164.918C319.017 165.531 319.514 166.014 320.156 166.366C320.798 166.713 321.56 166.886 322.44 166.886C323.327 166.886 324.091 166.713 324.733 166.366C325.381 166.014 325.875 165.531 326.216 164.918C326.563 164.304 326.736 163.602 326.736 162.812V151.545ZM347.295 151.545V169H344.874L336.002 156.199H335.84V169H333.207V151.545H335.644L344.525 164.364H344.687V151.545H347.295ZM356.787 169H351.136V151.545H356.966C358.676 151.545 360.145 151.895 361.372 152.594C362.599 153.287 363.54 154.284 364.193 155.585C364.852 156.881 365.182 158.435 365.182 160.247C365.182 162.065 364.849 163.628 364.185 164.935C363.526 166.241 362.571 167.247 361.321 167.952C360.071 168.651 358.56 169 356.787 169ZM353.77 166.699H356.642C357.972 166.699 359.077 166.449 359.957 165.949C360.838 165.443 361.497 164.713 361.935 163.759C362.372 162.798 362.591 161.628 362.591 160.247C362.591 158.878 362.372 157.716 361.935 156.761C361.503 155.807 360.858 155.082 360 154.588C359.142 154.094 358.077 153.847 356.804 153.847H353.77V166.699ZM369.064 169H366.268L372.55 151.545H375.592L381.874 169H379.078L374.143 154.716H374.007L369.064 169ZM369.533 162.165H378.601V164.381H369.533V162.165ZM390.746 169V151.545H397.138C398.376 151.545 399.402 151.75 400.214 152.159C401.027 152.562 401.635 153.111 402.038 153.804C402.442 154.491 402.643 155.267 402.643 156.131C402.643 156.858 402.51 157.472 402.243 157.972C401.976 158.466 401.618 158.864 401.169 159.165C400.726 159.46 400.237 159.676 399.703 159.812V159.983C400.283 160.011 400.848 160.199 401.399 160.545C401.956 160.886 402.416 161.372 402.78 162.003C403.143 162.634 403.325 163.401 403.325 164.304C403.325 165.196 403.115 165.997 402.695 166.707C402.28 167.412 401.638 167.972 400.768 168.386C399.899 168.795 398.788 169 397.436 169H390.746ZM393.379 166.741H397.18C398.442 166.741 399.345 166.497 399.891 166.009C400.436 165.52 400.709 164.909 400.709 164.176C400.709 163.625 400.57 163.119 400.291 162.659C400.013 162.199 399.615 161.832 399.098 161.56C398.587 161.287 397.979 161.151 397.274 161.151H393.379V166.741ZM393.379 159.097H396.908C397.499 159.097 398.03 158.983 398.501 158.756C398.979 158.528 399.357 158.21 399.635 157.801C399.919 157.386 400.061 156.898 400.061 156.335C400.061 155.614 399.808 155.009 399.303 154.52C398.797 154.031 398.021 153.787 396.976 153.787H393.379V159.097ZM413.131 169.239C411.727 169.239 410.5 168.926 409.449 168.301C408.403 167.676 407.588 166.776 407.003 165.599C406.423 164.418 406.134 162.994 406.134 161.33V159.693H418.705V161.926H408.98V162.293C408.986 163.27 409.153 164.097 409.483 164.773C409.818 165.449 410.293 165.963 410.906 166.315C411.526 166.662 412.256 166.835 413.097 166.835C414.114 166.835 414.966 166.597 415.653 166.119C416.341 165.636 416.861 164.966 417.213 164.108C417.565 163.244 417.741 162.253 417.741 161.134V159.48C417.741 158.588 417.634 157.787 417.418 157.077C417.207 156.366 416.886 155.764 416.455 155.27C416.023 154.776 415.472 154.398 414.801 154.136C414.131 153.875 413.338 153.744 412.423 153.744C411.974 153.744 411.509 153.776 411.026 153.838C410.548 153.895 410.074 153.986 409.602 154.111C409.131 154.23 408.676 154.381 408.239 154.562L407.651 152.355C407.884 152.213 408.182 152.08 408.545 151.955C408.915 151.83 409.324 151.719 409.773 151.622C410.222 151.52 410.69 151.443 411.179 151.392C411.673 151.335 412.162 151.307 412.645 151.307C414.298 151.307 415.719 151.642 416.906 152.312C418.099 152.983 419.014 153.929 419.651 155.151C420.293 156.372 420.614 157.815 420.614 159.48V161.134C420.614 162.685 420.307 164.074 419.693 165.301C419.08 166.523 418.213 167.486 417.094 168.19C415.974 168.889 414.653 169.239 413.131 169.239ZM424.097 169V151.545H430.319C431.671 151.545 432.793 151.778 433.685 152.244C434.583 152.71 435.254 153.355 435.697 154.179C436.14 154.997 436.362 155.943 436.362 157.017C436.362 158.085 436.137 159.026 435.688 159.838C435.245 160.645 434.575 161.273 433.677 161.722C432.785 162.17 431.663 162.395 430.31 162.395H425.597V160.128H430.072C430.924 160.128 431.617 160.006 432.151 159.761C432.691 159.517 433.086 159.162 433.336 158.696C433.586 158.23 433.711 157.67 433.711 157.017C433.711 156.358 433.583 155.787 433.327 155.304C433.077 154.821 432.683 154.452 432.143 154.196C431.609 153.935 430.907 153.804 430.038 153.804H426.731V169H424.097ZM432.714 161.125L437.026 169H434.026L429.799 161.125H432.714ZM439.566 169V151.545H445.788C447.146 151.545 448.271 151.793 449.163 152.287C450.055 152.781 450.722 153.457 451.165 154.315C451.609 155.168 451.83 156.128 451.83 157.196C451.83 158.27 451.606 159.236 451.157 160.094C450.714 160.946 450.043 161.622 449.146 162.122C448.254 162.616 447.131 162.864 445.779 162.864H441.501V160.631H445.54C446.398 160.631 447.094 160.483 447.629 160.188C448.163 159.886 448.555 159.477 448.805 158.96C449.055 158.443 449.18 157.855 449.18 157.196C449.18 156.537 449.055 155.952 448.805 155.44C448.555 154.929 448.16 154.528 447.62 154.239C447.086 153.949 446.381 153.804 445.506 153.804H442.2V169H439.566ZM454.54 169H451.745L458.026 151.545H461.069L467.35 169H464.555L459.62 154.716H459.484L454.54 169ZM455.009 162.165H464.077V164.381H455.009V162.165Z" fill="white"/>
<path d="M44.0568 209.812V207.545H57.5653V209.812H52.1193V225H49.4943V209.812H44.0568ZM63.1839 207.545V225H60.5504V207.545H63.1839ZM61.8714 205.526C61.4283 205.526 61.0476 205.378 60.7294 205.082C60.4169 204.781 60.2607 204.423 60.2607 204.009C60.2607 203.588 60.4169 203.23 60.7294 202.935C61.0476 202.634 61.4283 202.483 61.8714 202.483C62.3146 202.483 62.6925 202.634 63.005 202.935C63.3232 203.23 63.4822 203.588 63.4822 204.009C63.4822 204.423 63.3232 204.781 63.005 205.082C62.6925 205.378 62.3146 205.526 61.8714 205.526ZM67.0192 225V207.545H69.6527V215.881H69.8658L77.1868 207.545H80.5021L73.4624 215.403L80.5277 225H77.3572L71.7152 217.202L69.6527 219.571V225H67.0192ZM85.5902 207.545V225H82.9567V207.545H85.5902ZM84.2777 205.526C83.8345 205.526 83.4538 205.378 83.1357 205.082C82.8232 204.781 82.6669 204.423 82.6669 204.009C82.6669 203.588 82.8232 203.23 83.1357 202.935C83.4538 202.634 83.8345 202.483 84.2777 202.483C84.7209 202.483 85.0987 202.634 85.4112 202.935C85.7294 203.23 85.8885 203.588 85.8885 204.009C85.8885 204.423 85.7294 204.781 85.4112 205.082C85.0987 205.378 84.7209 205.526 84.2777 205.526ZM103.513 207.545V225H101.093L92.2209 212.199H92.0589V225H89.4254V207.545H91.8629L100.744 220.364H100.906V207.545H103.513ZM106.494 209.812V207.545H120.003V209.812H114.557V225H111.932V209.812H106.494ZM125.621 207.545V225H122.988V207.545H125.621ZM124.309 205.526C123.866 205.526 123.485 205.378 123.167 205.082C122.854 204.781 122.698 204.423 122.698 204.009C122.698 203.588 122.854 203.23 123.167 202.935C123.485 202.634 123.866 202.483 124.309 202.483C124.752 202.483 125.13 202.634 125.442 202.935C125.761 203.23 125.92 203.588 125.92 204.009C125.92 204.423 125.761 204.781 125.442 205.082C125.13 205.378 124.752 205.526 124.309 205.526ZM137.334 207.545L142.192 221.761H142.388L147.246 207.545H150.092L143.811 225H140.768L134.487 207.545H137.334ZM159.295 225.239C157.891 225.239 156.664 224.926 155.613 224.301C154.567 223.676 153.752 222.776 153.167 221.599C152.587 220.418 152.298 218.994 152.298 217.33V215.693H164.869V217.926H155.144V218.293C155.15 219.27 155.317 220.097 155.647 220.773C155.982 221.449 156.457 221.963 157.07 222.315C157.69 222.662 158.42 222.835 159.261 222.835C160.278 222.835 161.13 222.597 161.817 222.119C162.505 221.636 163.025 220.966 163.377 220.108C163.729 219.244 163.906 218.253 163.906 217.134V215.48C163.906 214.588 163.798 213.787 163.582 213.077C163.371 212.366 163.05 211.764 162.619 211.27C162.187 210.776 161.636 210.398 160.965 210.136C160.295 209.875 159.502 209.744 158.587 209.744C158.138 209.744 157.673 209.776 157.19 209.838C156.712 209.895 156.238 209.986 155.766 210.111C155.295 210.23 154.84 210.381 154.403 210.562L153.815 208.355C154.048 208.213 154.346 208.08 154.71 207.955C155.079 207.83 155.488 207.719 155.937 207.622C156.386 207.52 156.854 207.443 157.343 207.392C157.837 207.335 158.326 207.307 158.809 207.307C160.462 207.307 161.883 207.642 163.07 208.312C164.263 208.983 165.178 209.929 165.815 211.151C166.457 212.372 166.778 213.815 166.778 215.48V217.134C166.778 218.685 166.471 220.074 165.857 221.301C165.244 222.523 164.377 223.486 163.258 224.19C162.138 224.889 160.817 225.239 159.295 225.239ZM179.246 207.545V225H176.613V207.545H179.246ZM177.934 205.526C177.491 205.526 177.11 205.378 176.792 205.082C176.479 204.781 176.323 204.423 176.323 204.009C176.323 203.588 176.479 203.23 176.792 202.935C177.11 202.634 177.491 202.483 177.934 202.483C178.377 202.483 178.755 202.634 179.067 202.935C179.386 203.23 179.545 203.588 179.545 204.009C179.545 204.423 179.386 204.781 179.067 205.082C178.755 205.378 178.377 205.526 177.934 205.526ZM188.732 225H183.082V207.545H188.911C190.621 207.545 192.09 207.895 193.317 208.594C194.545 209.287 195.485 210.284 196.138 211.585C196.798 212.881 197.127 214.435 197.127 216.247C197.127 218.065 196.795 219.628 196.13 220.935C195.471 222.241 194.516 223.247 193.266 223.952C192.016 224.651 190.505 225 188.732 225ZM185.715 222.699H188.587C189.917 222.699 191.022 222.449 191.903 221.949C192.783 221.443 193.442 220.713 193.88 219.759C194.317 218.798 194.536 217.628 194.536 216.247C194.536 214.878 194.317 213.716 193.88 212.761C193.448 211.807 192.803 211.082 191.945 210.588C191.087 210.094 190.022 209.847 188.749 209.847H185.715V222.699ZM201.009 225H198.214L204.495 207.545H207.538L213.819 225H211.023L206.089 210.716H205.952L201.009 225ZM201.478 218.165H210.546V220.381H201.478V218.165ZM216.339 225V207.545H222.561C223.913 207.545 225.036 207.778 225.928 208.244C226.825 208.71 227.496 209.355 227.939 210.179C228.382 210.997 228.604 211.943 228.604 213.017C228.604 214.085 228.379 215.026 227.93 215.838C227.487 216.645 226.817 217.273 225.919 217.722C225.027 218.17 223.905 218.395 222.553 218.395H217.839V216.128H222.314C223.166 216.128 223.859 216.006 224.393 215.761C224.933 215.517 225.328 215.162 225.578 214.696C225.828 214.23 225.953 213.67 225.953 213.017C225.953 212.358 225.825 211.787 225.57 211.304C225.32 210.821 224.925 210.452 224.385 210.196C223.851 209.935 223.149 209.804 222.28 209.804H218.973V225H216.339ZM224.956 217.125L229.268 225H226.268L222.041 217.125H224.956ZM238.49 225.239C237.087 225.239 235.859 224.926 234.808 224.301C233.763 223.676 232.947 222.776 232.362 221.599C231.783 220.418 231.493 218.994 231.493 217.33V215.693H244.064V217.926H234.339V218.293C234.345 219.27 234.513 220.097 234.842 220.773C235.178 221.449 235.652 221.963 236.266 222.315C236.885 222.662 237.615 222.835 238.456 222.835C239.473 222.835 240.325 222.597 241.013 222.119C241.7 221.636 242.22 220.966 242.572 220.108C242.925 219.244 243.101 218.253 243.101 217.134V215.48C243.101 214.588 242.993 213.787 242.777 213.077C242.567 212.366 242.246 211.764 241.814 211.27C241.382 210.776 240.831 210.398 240.161 210.136C239.49 209.875 238.697 209.744 237.783 209.744C237.334 209.744 236.868 209.776 236.385 209.838C235.908 209.895 235.433 209.986 234.962 210.111C234.49 210.23 234.036 210.381 233.598 210.562L233.01 208.355C233.243 208.213 233.541 208.08 233.905 207.955C234.274 207.83 234.683 207.719 235.132 207.622C235.581 207.52 236.05 207.443 236.538 207.392C237.033 207.335 237.521 207.307 238.004 207.307C239.658 207.307 241.078 207.642 242.266 208.312C243.459 208.983 244.374 209.929 245.01 211.151C245.652 212.372 245.973 213.815 245.973 215.48V217.134C245.973 218.685 245.666 220.074 245.053 221.301C244.439 222.523 243.572 223.486 242.453 224.19C241.334 224.889 240.013 225.239 238.49 225.239ZM249.457 225V207.545H260.4V209.812H252.09V215.131H259.829V217.389H252.09V222.733H260.502V225H249.457ZM263.057 209.812V207.545H276.565V209.812H271.119V225H268.494V209.812H263.057ZM279.55 207.545H282.746L288.303 221.114H288.508L294.065 207.545H297.261V225H294.755V212.369H294.593L289.445 224.974H287.366L282.218 212.361H282.056V225H279.55V207.545ZM307.771 225.239C306.368 225.239 305.141 224.926 304.089 224.301C303.044 223.676 302.229 222.776 301.643 221.599C301.064 220.418 300.774 218.994 300.774 217.33V215.693H313.345V217.926H303.621V218.293C303.626 219.27 303.794 220.097 304.124 220.773C304.459 221.449 304.933 221.963 305.547 222.315C306.166 222.662 306.896 222.835 307.737 222.835C308.754 222.835 309.607 222.597 310.294 222.119C310.982 221.636 311.501 220.966 311.854 220.108C312.206 219.244 312.382 218.253 312.382 217.134V215.48C312.382 214.588 312.274 213.787 312.058 213.077C311.848 212.366 311.527 211.764 311.095 211.27C310.663 210.776 310.112 210.398 309.442 210.136C308.771 209.875 307.979 209.744 307.064 209.744C306.615 209.744 306.149 209.776 305.666 209.838C305.189 209.895 304.714 209.986 304.243 210.111C303.771 210.23 303.317 210.381 302.879 210.562L302.291 208.355C302.524 208.213 302.822 208.08 303.186 207.955C303.555 207.83 303.964 207.719 304.413 207.622C304.862 207.52 305.331 207.443 305.82 207.392C306.314 207.335 306.803 207.307 307.286 207.307C308.939 207.307 310.359 207.642 311.547 208.312C312.74 208.983 313.655 209.929 314.291 211.151C314.933 212.372 315.254 213.815 315.254 215.48V217.134C315.254 218.685 314.947 220.074 314.334 221.301C313.72 222.523 312.854 223.486 311.734 224.19C310.615 224.889 309.294 225.239 307.771 225.239ZM326.922 207.545L331.098 214.372H331.234L335.411 207.545H338.462L333.024 216.273L338.496 225H335.428L331.234 218.267H331.098L326.905 225H323.837L329.402 216.273L323.871 207.545H326.922ZM343.707 207.545V225H341.074V207.545H343.707ZM342.395 205.526C341.952 205.526 341.571 205.378 341.253 205.082C340.94 204.781 340.784 204.423 340.784 204.009C340.784 203.588 340.94 203.23 341.253 202.935C341.571 202.634 341.952 202.483 342.395 202.483C342.838 202.483 343.216 202.634 343.528 202.935C343.847 203.23 344.006 203.588 344.006 204.009C344.006 204.423 343.847 204.781 343.528 205.082C343.216 205.378 342.838 205.526 342.395 205.526ZM353.193 225H347.543V207.545H353.372C355.082 207.545 356.551 207.895 357.778 208.594C359.006 209.287 359.946 210.284 360.599 211.585C361.259 212.881 361.588 214.435 361.588 216.247C361.588 218.065 361.256 219.628 360.591 220.935C359.932 222.241 358.977 223.247 357.727 223.952C356.477 224.651 354.966 225 353.193 225ZM350.176 222.699H353.048C354.378 222.699 355.483 222.449 356.364 221.949C357.244 221.443 357.903 220.713 358.341 219.759C358.778 218.798 358.997 217.628 358.997 216.247C358.997 214.878 358.778 213.716 358.341 212.761C357.909 211.807 357.264 211.082 356.406 210.588C355.548 210.094 354.483 209.847 353.21 209.847H350.176V222.699ZM364.863 207.545H368.059L373.616 221.114H373.82L379.377 207.545H382.573V225H380.067V212.369H379.906L374.758 224.974H372.678L367.531 212.361H367.369V225H364.863V207.545ZM393.084 225.239C391.68 225.239 390.453 224.926 389.402 224.301C388.357 223.676 387.541 222.776 386.956 221.599C386.376 220.418 386.087 218.994 386.087 217.33V215.693H398.658V217.926H388.933V218.293C388.939 219.27 389.107 220.097 389.436 220.773C389.771 221.449 390.246 221.963 390.859 222.315C391.479 222.662 392.209 222.835 393.05 222.835C394.067 222.835 394.919 222.597 395.607 222.119C396.294 221.636 396.814 220.966 397.166 220.108C397.518 219.244 397.695 218.253 397.695 217.134V215.48C397.695 214.588 397.587 213.787 397.371 213.077C397.161 212.366 396.839 211.764 396.408 211.27C395.976 210.776 395.425 210.398 394.754 210.136C394.084 209.875 393.291 209.744 392.376 209.744C391.928 209.744 391.462 209.776 390.979 209.838C390.501 209.895 390.027 209.986 389.555 210.111C389.084 210.23 388.629 210.381 388.192 210.562L387.604 208.355C387.837 208.213 388.135 208.08 388.499 207.955C388.868 207.83 389.277 207.719 389.726 207.622C390.175 207.52 390.643 207.443 391.132 207.392C391.626 207.335 392.115 207.307 392.598 207.307C394.251 207.307 395.672 207.642 396.859 208.312C398.053 208.983 398.967 209.929 399.604 211.151C400.246 212.372 400.567 213.815 400.567 215.48V217.134C400.567 218.685 400.26 220.074 399.646 221.301C399.033 222.523 398.166 223.486 397.047 224.19C395.928 224.889 394.607 225.239 393.084 225.239ZM403.19 209.812V207.545H416.698V209.812H411.252V225H408.627V209.812H403.19ZM422.317 207.545V225H419.683V207.545H422.317ZM421.004 205.526C420.561 205.526 420.18 205.378 419.862 205.082C419.55 204.781 419.393 204.423 419.393 204.009C419.393 203.588 419.55 203.23 419.862 202.935C420.18 202.634 420.561 202.483 421.004 202.483C421.447 202.483 421.825 202.634 422.138 202.935C422.456 203.23 422.615 203.588 422.615 204.009C422.615 204.423 422.456 204.781 422.138 205.082C421.825 205.378 421.447 205.526 421.004 205.526Z" fill="white"/>
<path d="M262.282 29.7075L272.574 40L262.282 50.2925V29.7075ZM261.275 21.516L253.084 12.723H261.275V21.516ZM261.275 24.6858H243.761V22.9877L249.452 16.8765L249.796 16.5094L250.138 16.1394L252.516 13.5884L261.275 22.9928V24.6858ZM261.275 41.5977H259.109V25.6922H261.275V41.5977ZM256.724 25.6922H258.103V41.5977H256.724V25.6922ZM254.211 25.6922H255.718V41.5977H254.211V25.6922ZM251.826 25.6922H253.205V41.5977H251.826V25.6922ZM249.321 25.6922H250.82V41.5977H249.321V25.6922ZM246.933 25.6922H248.314V41.5977H246.933V25.6922ZM261.275 67.2796H243.761V42.6039H261.275V67.2796ZM234 78.5783L223.708 68.286H244.292L234 78.5783ZM206.722 29.9869H224.239V67.2796H206.722V29.9869ZM206.722 12.723H224.239V28.9805H206.722V12.723ZM242.755 53.6286V67.2796H225.245V53.6286C225.245 48.8005 229.17 44.8733 234 44.8733C238.83 44.8733 242.755 48.8005 242.755 53.6286ZM234 43.8669C230.163 43.8669 226.838 46.091 225.245 49.3138V12.723H242.755V49.3138C241.162 46.091 237.837 43.8669 234 43.8669ZM243.761 25.6922H245.927V41.5977H243.761V25.6922ZM234 1.42413L244.292 11.7166H223.708L234 1.42413ZM251.947 12.723L249.426 15.4275L249.087 15.7972L248.74 16.1645L243.761 21.5108V12.723H251.947ZM205.716 50.2925L195.424 40L205.716 29.7075V50.2925ZM262.282 28.2836V11.7166H245.716L234 0L222.284 11.7166H205.716V28.2836L194 40L205.716 51.7164V68.286H222.289L234 80L245.713 68.286H262.282V51.7164L274 40L262.282 28.2836Z" fill="white"/>
<path d="M213.106 36.8471H217.856V41.5971H213.106V36.8471ZM212.1 42.6033H218.862V35.8408H212.1V42.6033Z" fill="white"/>
<path d="M213.106 46.694H217.856V51.444H213.106V46.694ZM212.1 52.4502H218.862V45.6876H212.1V52.4502Z" fill="white"/>
<path d="M213.106 56.5415H217.856V61.2915H216.716H216.004H215.295H213.106V59.1052V58.3932V57.681V56.5415ZM212.1 56.6748V57.3868V58.0988V62.2979H216.301H217.01H217.722H218.862V55.5351H212.1V56.6748Z" fill="white"/>
<path d="M255.863 51.7238L256.583 51.0219L252.52 46.8531L248.457 51.0219L249.179 51.7238L252.017 48.8104V50.5842L248.457 54.2372L249.179 54.9392L252.017 52.0258V53.7994L248.457 57.4524L249.179 58.1544L252.017 55.241V57.0148L248.457 60.6678L249.179 61.3697L252.017 58.4564V60.5622V61.274V61.9835V63.3145H253.023V60.9773V60.2678V59.5558V58.4564L253.564 59.0123L253.916 59.3722L254.268 59.7317L255.863 61.3697L256.583 60.6678L254.978 59.0224L254.628 58.6625L254.276 58.3004L253.023 57.0148V55.241L255.151 57.4247L255.504 57.7846L255.856 58.1443L255.863 58.1544L256.583 57.4524L256.565 57.4348L256.215 57.0751L255.863 56.7128L253.023 53.7994V52.0258L255.863 54.9392L256.583 54.2372L253.023 50.5842V48.8104L255.863 51.7238Z" fill="white"/>
<path d="M227.621 18.0104H240.379V19.3891H227.621V18.0104ZM226.615 20.3955H241.385V17.004H226.615V20.3955Z" fill="white"/>
<path d="M227.621 24.6574H240.379V26.0385H227.621V24.6574ZM226.615 27.0449H241.385V23.6512H226.615V27.0449Z" fill="white"/>
<path d="M227.621 31.3071H240.379V32.6858H227.621V31.3071ZM226.615 33.6922H241.385V30.3009H226.615V33.6922Z" fill="white"/>
<path d="M227.621 37.9541H240.379V39.3355H227.621V37.9541ZM226.615 40.3417H241.385V36.9477H226.615V40.3417Z" fill="white"/>
<path d="M215.421 24.6859C214.146 24.6859 213.009 24.0822 212.279 23.1436C212.176 23.0079 212.078 22.8669 211.993 22.7185C211.902 22.5675 211.824 22.409 211.754 22.2455C211.557 21.775 211.447 21.2544 211.447 20.7109C211.447 18.5196 213.233 16.7358 215.421 16.7358C215.965 16.7358 216.483 16.8464 216.956 17.0426C217.12 17.1131 217.278 17.1911 217.429 17.2818C217.58 17.3672 217.718 17.4628 217.854 17.5684C218.793 18.2981 219.399 19.4352 219.399 20.7109C219.399 22.9022 217.613 24.6859 215.421 24.6859ZM218.569 16.854C218.438 16.7458 218.302 16.6452 218.159 16.552C218.018 16.4564 217.864 16.3684 217.711 16.2879C217.026 15.9306 216.247 15.7294 215.421 15.7294C212.677 15.7294 210.44 17.9661 210.44 20.7109C210.44 21.536 210.642 22.316 210.999 23.0003C211.079 23.1537 211.17 23.3047 211.263 23.4481C211.359 23.5889 211.457 23.7273 211.565 23.8582C212.481 24.9777 213.869 25.6923 215.421 25.6923C218.169 25.6923 220.405 23.4582 220.405 20.7109C220.405 19.1586 219.688 17.7673 218.569 16.854Z" fill="white"/>
</svg>
