<svg xmlns="http://www.w3.org/2000/svg" width="80" height="87" viewBox="0 0 80 87">
    <g fill="none" fill-rule="evenodd">
        <path fill="#000" fill-rule="nonzero" d="M41.082 43.083c17.065 1.349 37.187-9.765 31.405 10.12.897 1.665 3.257-3.957 3.424-4.52.063-.125.73-2.665 1.023-1.665-.73 1.561-.94 3.144-1.253 4.102-.042.125-.126 1.25 0 1.083.167-.292.376-.958.46-1.354.459-1.062.813-2.27 1.022-2.977.063-.187.167-.646.292-.938 0-.583.71-.749.397-.166 0 .334-.459 1.77-.605 2.186.167.625.271.126.438-.166.021-.042.272-.77.418-1.354.167-.687.46-1.436.668-2.477.105-.542.418-1.25.418-.5-.188 1.145-.69 2.936-.919 4.06 0 .23-.083.521.146.521.209-.667.606-2.02.773-2.186.668-.167-.648 2.436-.606 3.436 0-.333.73-1.458.92-1.75.584 0-.127.458-.127.812-.041.125-1.148 3.27-.877 3.27.272-.354 1.128-2.77 1.441-2.854.25.27-1.002 3.041-1.002 3.602-.23.417-.376.959-.522 1.417-.146.146-.167.354-.084.582 0-.27.585-.79.71-1.124.209-.333.272-.707.627-.458-.439 1.27-1.295 2.416-1.817 3.686-.397.583-1.065 1.791-.438 1.166.564-.562.543-.686.835-1.082l.605-1c.146-.104.293-.27.502-.27-.356.833-.92 1.707-1.337 2.52-1.023 1.165-1.628 2.602-2.693 3.665-.314.457-1.128 1.04.188.499 1.294-1.103 2.338-2.832 3.257-4.248l.334.084c-1.023 1.998-2.422 3.539-3.696 5.33-.376.375-1.211 1.083-1.42 1.499.23.105.167.084.439-.083a13.953 13.953 0 0 1 1.9-1.77l.166.187c-1.252 1.583-2.442 2.957-4.009 4.165-.48.374-1.023.77-1.524 1.083.647.333 3.007-1.666 3.55-2.062.083-.208.167-.208.313-.355.084-.187.689-.624.689-.082-.793.686-1.566 1.498-2.36 2.165-1.294 1.145-2.735 2.249-4.28 3.102.521.25 2.902-1.208 3.34-1.582.355-.23.71-.5 1.023-.75 0 .084.356.23.418.23-.751.645-1.691 1.207-2.526 1.77-.92.624-2.005 1.415-2.986 1.895-.982.395-2.026 1.103-3.028 1.353 0 .27 1.629-.25 1.858-.25 1.337-.333 2.652-.916 3.76-1.75.334.355.25.375-.168.647-.563.416-1.21.645-1.691 1.103-.647.229-1.42.75-2.089 1-1.398.75-3.07 1.415-4.594 1.915-.438 0-.94.333-1.336.333-.313 0-.229.188.084.188.94 0 1.712-.063 2.59-.27a12.612 12.612 0 0 0 1.753-.5c.857-.292 1.88-.876 2.778-1.25.041.104.125.229.167.333-.794.791-2.13.979-3.028 1.416-.021 0-.188.187-.25.187-.419 0-1.588.604-1.922.646-1.002.166-2.339.916-3.34.916.73.23 1.941-.083 2.672-.23 0 .21.522.376.5.48-.27.833-.835 1.728-1.335 2.52-1.107.541-2.213 1.207-3.341 1.75-.376 0-.585-.022-.355-.501 0 0 .856-1 .438-1-.376 0-.69-.083-.69.417-.04.126-.062.23-.145.313 0 .625-.251 1.811-.857 2.103-.396.416-1.524.583-2.088.833-1.357 0-3.028.833-4.344 0-.355 0-.856.104-.584-.417.25 0 .313 0 .5-.083.586 0 3.384-.729 3.091-1.353-.25 0-.647.062-.835-.146-.272 0-.313-.084-.585-.166-.23-.417-1.023-.105-1.357-.417-.271-.125-.627-.25-.084.167 0 .458.063.937-.397 1.166-.208.104-.459.25-.689.25-.376 0-1.482.083-1.482-.333-.334.166-.084.166-.084.416.25 0-.188.604-.25.667-.397.79-2.422.687-3.195.687-.293-.062-.585-.208-.835-.27-1.149-.584-2.444-1.146-3.509-1.833-.376 0-.96.479-1.273.667C37.508 85.98 36.505 87 35.085 87c-.48 0-.919.02-1.085-.313-.293 0-.251-.52-.251-.687 0 0 .647-.687.083-.396-.542.396-1.732.542-2.421.313-.69-.688-.543-.896 0-1.416-.084 0-.564-.375-.606-.416 0-.188-.062-.313-.146-.5-.668.333-1.378.333-2.025-.084-.46.458-1.002.75-1.733.75a11.357 11.357 0 0 0-.522-.25c-1.253 0-1.086-.063-1.086.916 0 .23.083.396 0 .604 0 .208-.188.645-.418.645-.418.417-1.42.709-2.004.52-.606 0-.856-.207-1.253-.602-.334 0-.25-.21-.25-.417-.481-.374-.44-1.978.25-2.499.083-.083.46-.583.167-.583 0-.291.083-.354-.25-.354-.272 0-.126-.25-.44-.25-.605-.25-.75.084-1.335.084-.585.875-1.525 1.936-2.653 1.936-.292 0-.605-.541-.605-.833-.209-.625-.063-1.54.083-2.186-.396 0-.563-.208-.835-.396-.104 0-.25-.396-.25-.52 0-.562-.334-.438-.334-.646 0-.437-.898.084-1.17.084h-1.253c0-.021.063-.126.084-.167-.836 0-1.483-1.333-1.086-2.103-.146 0 0-.188 0-.312.292-.604 1.462-1.02 2.088-1.353-.355 0-.292-.417-.584-.417-.105-.105-.167-.146-.167-.333-.606 0 .209-1.083-.835-1.083-.272-.229-.272-.27-.585-.27h-.188c-.752 0-2.673-1.041-2.673-1.73.126-.27.376-.478.606-.686.563-.48-.543-.292-.669-.834-.5-.145-.605-.687-.605-1.165 0-.646.835-1 1.169-1.5-.522-.354-.94-.083-1.587-.23h-.668c-.439-.103-1.086-.436-1.253-.77-.21-.416-.293-1.082-.167-1.581 0-.667 1.503-.875 1.503-1.416-.46-.146-.71-.938-.981-1.334a8.12 8.12 0 0 1-.272-2.02c-.877 0-1.503-.062-2.088-.915-.668-.667-.836-1.52-.836-2.416 0-.978-.856-.334-1.273-.75-.376 0 .083-.77-.397-.916-.647-.416-1.252-1.082-1.252-1.915 0-1.208 1.42-.146 1.42-1.25 0-1.624.166-1.187 1.231-1.916.126-.625-.334-.478-.48-.937-.439-.353-.397-.978-.689-1.25 0-1.415.376-1.895 1.44-2.499h.418c.606 0 .668.667 1.003.667.334.688.292 0 .083 0 0-.229.063-.978-.25-.978 0-.292 0-.625-.084-.917-.146 0-.083-.396-.083-.5l37.046-.625z"/>
        <path fill="#496E6E" d="M35.173 85.666h.752l.25.083.25.083.272.167.314.083-.23.167-.25.083h-.272l-.25.084h-1.337l-.25-.251v-.166l.083-.084h.083l.084-.083.083-.083.168-.083zM44.36 85.603l.167-.083h.168l.167-.104h.166l.189-.084h1.649l.167.188-.083.083-.084.063-.083.083-.167.083-.063.083h-.167l-.188.084h-.167l-.167.083-.25.083h-.252l-.25.084H43.86l-.25-.167.25-.25h.167l.105-.083h.062l.084-.083z"/>
        <path fill="#009E49" d="M20.536 80.814c0-1.561 1.461-1.25 2.422-1.561.605 0 1.566-.646 1.921-1.083.271-1.23-.752-.667-.752-1.687 0-.833.814-.625 1.336-.584.272.021.23.167.501.167-.71.375-.584.625-.584 1.25 0 .249-.627 1.499.083 1.499 0 .229.46.084.084.27 0 .833-2.171 1.937-2.506 2.166.188.375 1.19-.396 1.42-.582.146.124-.501 1.31-.585 1.478-.23.77-.584 1.666-.584 2.52 0 .5.25.04.25-.167 0-.583.96-3.31 1.503-3.831.105.166.23 1.083.334 1.083 0 .333.397.79.501 1.082.69.334-.25-1.52-.25-1.853-.376-.375.062-1.166.25-1.478 0 .062.501.916.501.229 0 .104.877 0 1.149 0 .02 0 3.007.186 3.007.186.563.625-.209 1.396-.585 1.396-.918 0-2.171-1.146-2.485-.895-1.19.957 1.337 2.498.167 3.081-.46 0-1.691.125-2.004-.416-2.025.5-.292 2.832-2.673 2.832-1.399 0-1.503-1.603-.689-2.415.543-.541.585-2.083-.48-2.083-.292 0-1.252-.147-1.252-.604zM53.736 85.166h.167l.167.083v.083h.501l.167-.083-.25.167h-.167l-.167.104h-.168l-.145.083-.272.063H53.151l-.25.083H52.4h.083l.167-.083h.167l.167-.063h.167l.168-.187.167-.084z"/>
        <path fill="#496E6E" d="M31.415 85.332v-.166l.334-.167h1.002v.083h.167v.084h.334v.166l-.104.084H33.002l-.084.104h-.084l-.083.083h-1.169v-.083h-.084v-.104h-.083zM47.723 84.333H48.036l.083-.083h.083l.167-.167h.189l.167-.083h.835v.499l-.356.167-.166.083H47.785l-.062-.083-.084-.083v-.084z"/>
        <path fill="#FFF" d="M34.421 81.667l.084.084.083.083.084.083h.083l.084.063.084.084.083.083h.25v.187l-.166.083h-.084l-.167.083h-.084l-.167.084h-.083l-.084.083h-.062v-.75z"/>
        <path fill="#009E49" d="M37.512 81.917c-.418 0-1.086-1.728-.898-2.102-.355 0-.605-.646-1.002-.646-.96.375-2.464 1.603-3.362 1.082-.25-.145-.71-.52-.188-1.082.146-.126-.167-1.353.355-1.353 0 .27.522-.021.585-.084.5-.479 1.127.52 1.42.833.584-.292-.418-.98-.418-1.25.271-.27 3.508-.312 3.508.77.397 0 .355 1.062.355 1.417.438.333.292-.792.292-.938 0-1.082.751.271.856.417.188.312 1.545 2.332 1.92 1.603-.814-.562-1.356-1.916-2.087-2.582-.104-.126-.564-.458-.167-.271.815 0 1.691.458 2.171-.5-.375.146-4.51-.02-4.51-.5h-1.837c.46-.312 2.13-1.686 2.025-1.915-.73.457-1.565 1.02-2.276 1.5-2.297 1.79-.96-1.25-.918-1.25.271 0 .334-.417.167-.584.417-.416 1.002-.77 1.503-1.02.146-.062 1.336-.27 1.336-.145.188 0 .46.23.669.23 0 .249.418.811.418 1.269 0 1.5 1.712 1.27 2.755 1.02.501.354 1.566.417 1.566 1.312-.23.52-.355.541-.73.937a.769.769 0 0 1-.167.396c0 1.187 1.587 1.229 1.587 2.103 0 .437.125 1.395-.606 1.395-.48.5-1.984.292-1.984-.646-.167 0-.521-.208-.521-.353-.857 0-1.044.937-1.817.937z"/>
        <path fill="#009E49" d="M35.34 80.98l-.083-.083h-.084V80.751h-.167l-.083-.082v-.084h-.084l-.084-.084v-.083h-.083v-.083h-.084v-.271h.502l.167-.083v.083l.187.104.084.083h.23l.083.084.167.083.084.083.167.084V81.334h.083l-.083.084.083-.167h-.334l-.167-.104-.083-.084h-.146l-.084-.082z"/>
        <path fill="#FFF200" d="M52.483 80.335c-1.17.208-3.027.416-4.28.416-1.316 0-1.838-.624-1.817-1.498.02-1.562 3.633-.21 4.76-.084 1.337.166 2.402.395 3.676.395s-.71.417-.836.417c-.208.125-1.169.291-1.503.354z"/>
        <path fill="#009E49" d="M15.754 79.085c-.083 0-.626-.646-1.086-.437-.772 0-2.422.854-2.422-.645 0-1.25.501-1.125 1.253-1.687.292.27 1.67.084 1.67-.583.377-.375-.584-1.957 1.42-1 1.358 0 2.172.23 2.172-1.332 0-1.167 1.942-1.75 2.255-.833.397 0 1.504 1.208 1.336 1.5 0 1.061-.23.874-.083 1.5-1.086 0-1.358-.688-2.339-1-.209-.313-.125-.25-.48-.167 0 .479 1.086.958 1.503 1.083-.209.084-2.276.395-2.506.667-.563.124-1.921-.292-2.36-.75-.062.146-.145.27-.145.437.396 0 1.315.646 1.566.646-.606.312-1.796.333-2.506.333-.084.104-1.253.333.25.333.982 0 1.817.105 2.673-.333-.21.333-1.211 1.562-1.086 1.832.438 0 1.065-1.208 1.44-1.644.836-.688 1.149-.938 2.422-.938.836-.25-1.795 1.582-.689 1.582.188-.416 1.859-1.999 1.859-1.582h1.002c-.94.437.104.917.083.938 2.255.603.313 1.81-1.587 1.81-.376 0-.522.272-.835.834-.418.396-1.358-1.374-2.255-.479-.752.728-.73 1.25-1.942 1.25-.5-.002-.416-1.335-.583-1.335z"/>
        <path fill="#FFF200" d="M43.358 79.731l.25-.084.335-.145.25-.083.334-.166.335-.168.355-.27h.313l.25.167-.334.27-.334.083-.25.084-.25.083-.335.145-.25.084-.335.166-.25.084-.084.083-.083.104-.084.083-.084.084v.083h-.25v-.521h.25zM42.606 79.502c-.396 0-.417-.333-.668-.333 0-.084-.146-.313-.188-.355 0-1.269 1.462-2.603 2.276-3.415 1.128-.853 2.255-1.56 3.446-2.248-1.044 1.187-2.15 2.624-2.61 4.165-.439.749-1.19 2.186-2.172 2.186h-.084z"/>
        <path fill="#009E49" d="M26.904 79.169c-1.044-.396-.376-1.687.397-2.165.418-.646.334-.459.334-1.105 0-1.124-2.84-.582-3.007-.582-.626 0-1.753-.333-1.753-1.166 0-.188.897-.042 1.336-.25 1.524-.688-.146-2.166-1.17-2.166-.125-.125-.751-.458-.772-.52-.25-1.083-.167-1.729.689-2.165.188.187 2.004.79 2.004.998 0 .23.648.729.856.854.25.208 1.796-.478 1.817.313l.606.166c1.106 0-.418 1.604 1.65 1.604.793 0 1.294-.584 1.941-.084 1.566 1.145-.563 3.31-.751 4.747-.522-.833-.585-2.603-.585-3.58-.376 0-.313-.106-.418.249 0 .375-.083 1.082.084 1.416-.272-.166-.46-.437-.668-.667-.147-.229-1.337-1.145-1.337-1.25-.438 0-.668-3.019-1.086-2.436 0 .208.021 1.646.313 1.937-1.169-.23-3.007-2.145-3.34-3.269h-.334c.292 1.332 1.607 2.582 2.672 3.269 1.44.874-1.253.291-1.253.666 0 .646 2.13.23 2.506.167 1.044.437 1.963 1.79 2.61 2.665-.46 0-2.047-.125-2.172.27.105.48 2.214.042 2.506.646 0 .208.02 1.146.146 1.354-.439.146-1.086.02-1.483.167-.145.062-2.338-.083-2.338-.083z"/>
        <path fill="#FFF200" d="M61.608 78.481c-1.984.979-4.176.75-6.285.417-.543-.084.104-.167.417-.25.815-.25 1.671-.312 2.34-.833 1.231.313 2.296.792 3.528.666zM50.374 76.732c.73 0 1.504 0 2.193.188 2.088.479 2.756.52 4.176.728.167.042.918.167.355.167-.063.042-1.295.355-1.441.355-.793.374-4.824.852-5.283.395-1.17 0-.877-1.833 0-1.833zM45.947 78.565c-2.443-1.187 3.09-5.519 4.03-6.102-1.19 1.604-1.92 3.478-2.693 5.269-.46.478-.5.833-1.253.833h-.084zM58.434 77.149c-.46 0-1.19-.063-.167-.417 1.295-.416 2.464-.854 3.592-1.499.397 0 .71.25 1.002.25 1.085 0 2.13 0 3.195-.166-.814.479-3.467 1.603-4.364 1.77-1.504.29-.67.02-3.258.062z"/>
        <path fill="#FFF200" d="M49.204 76.815c-.396 0-.125-.166-.313-.166-1.42-1.416 3.488-5.101 3.76-4.83-1.212 1.81-.982 4.1-3.363 4.996h-.084zM58.747 75.9c.585 0-.146.166-.146.166-.27.27-3.027.666-3.445.666-.918 0-2.004.293-2.004-.999 0-1.5 3.11-.707 3.841-.333.48.229 1.211.5 1.754.5zM41.437 75.65l.23-.25.438-.334.335-.25.417-.333.418-.25.5-.25.502-.166.585-.27-.167.27-.168.083-.166.25-.168.084-.25.167-.167.166-.168.166-.083.167-.167.084-.25.25-.084.166-.104.083-.063.084-.084.083v.083l-.167.104-.083.146-.083.083-.084.084-.084.083v.083h-.167l-.083-.083-.084-.083-.104-.084-.084-.083h-.146v-.084l-.167-.062z"/>
        <path fill="#009E49" d="M13.165 73.734c0-.625 1.587-1.041 1.587-2.083 0-.541-1.316-1.228-1.504-2 0-1.145 1.253-.499.92-1.686 0-.291-.69-.916-1.003-.916-.063-.146-.898-1.541-.501-1.916.167-.27.689-.915 1.086-.915.626-.292.71.332 1.17.082.835.854.458 2.978 2.589 1.5.417.187.376.458.605.666.605 0 .23 1.854.814 1.854.522.499 1.754-.437 2.026.166.438 0 .793.396.919.729.125.291-.251.562-.251.833 0 0-.543.749-.439.937.731 1.103-2.004.395-1.253-.167 0-.229-.02-.437.084-.687-.794 0-.188 1.52-.919 1.52-.02.02-.167.084-.167.167-.5-.105.167 1.04-.48.083-.69-1.041-1.378-2.499-.94-3.852.126-.354-.041-.917.084-1.332-.543 0-.563 1.623-.563 2.081 0 .833-1.504-1.416-1.608-1.56-.48-.605-1.17-1.313-1.587-1.937-.648.313 1.942 3.124 2.338 3.665.564.707.418.604-.23.437-.521 0-1.46-.041-1.858-.187-.271.583 2.276.54 2.757.749.167.521.772 1.707 1.17 2.103.125.417.626-.042 0 .583-.648.646-1.567-.125-1.984.084-.877 0 1.378.79.48.999-.292.062-.105.062-.418.166-.397.146-.104-.062-.668.209-.292.145-.856 1.124-.669 1.124-.71 0-1.587-.874-1.587-1.5z"/>
        <path fill="#FFF200" d="M58.183 73.067c1.42 0 2.715.48 4.093.48-1.378 1.04-6.055 2.498-5.617.187.105-.542 1.211-.667 1.524-.667zM52.984 74.817c-.167 0-.5-.25-.584-.334 0-2.165 1.42-2.727 2.923-3.83.23-.167.355-.52.69-.52-.314.603-.69 1.436-.92 2.02-.375.936-.689 2.664-2.025 2.664h-.084zM65.325 74.192c-.898.333-3.049.541-3.049.375-.397-.312-.418-.208 0-.416 1.044-.646 1.984-1.187 3.842-1.333.835-.063 1.483.062 2.11-.083-.69.5-2.256 1.332-2.903 1.457zM55.908 73.234c-.919 0-.063-1.478.104-1.853.752-.958 1.733-1.77 2.735-2.499-1.043 1.125-.94 4.352-2.735 4.352h-.104zM61.942 73.151c.564 0 1.88-.77 2.339-1.083.105.042.877.126 1.148.166-.5.542-2.4.917-2.902.917h-.585zM59.77 72.463c-.166 0-.48-.978.084-.978.355-.375 3.237.166 4.176.166-.793.771-3.842 1.729-4.26.812zM71.234 69.736c-.856 1.166-4.218 3.52-5.554 2.207-.23-.229-.209-.604.188-.812.564-.333 1.253-.667 2.526-.999.982-.23 1.88-.084 2.84-.396zM58.83 71.38c-1.106-.873.982-2.873 1.692-3.58.021.02-.271 1.665-.271 1.852-.147.75-.502 1.729-1.42 1.729zM65.805 69.57c.397 0 .772-.042 1.17-.084-.523.646-5.096 2.498-5.2 1.166-.418-1.812 3.049-1.083 4.03-1.083z"/>
        <path fill="#009E49" d="M8.968 69.652c-.188 0-.355-.854-.084-.854.355-.166.606-.145.94-.478.334-.354.25-1.124-.167-1.353 0-.396-1.566-.25-1.942-.25-.752-.187-1.962-.562-1.399-1.666.376-.23 1.817-.875 1.817-1.583-.439-.436-1.253-1.082-1.587-1.582-.084-.625-.146-1.29.251-1.832.188 0 .605-.562.751-.334.376 0 .69.084 1.107.084.313.625 1.232 2.228 2.088 1.812.272 0 .585-.646 1.17-.646.981 0 1.399.916 2.004 1.5.523.291.042.873.334 1.165-.647 0-2.088.312-2.088 1-.146.02-.438.333-.5.333-.398.374 0-.167-.44-.167 0-.915-.23-1.707 0-2.664-.333-1.021-.48 1.999-.48 1.999.313 1.04-.5.02-.751-.25-.773-.875-1.775-2.145-2.36-3.165-.71.375 2.276 3.769 2.86 4.248-.542.124-1.816.166-2.359 0-.083.291-.167.333.084.333 0 .04 2.714.332 3.007.332v.667c0 1.188.605-.062.605.854 0 .417-.042.417.25.812-.814 0-.5.52-.083.52.794 0 0 .667 0 .834.71 0 .21.374-.083.562.23.958-1.107.52-1.608.52-.398 0-.983-.75-1.337-.75z"/>
        <path fill="#FFF200" d="M61.19 69.736c-1.378-.687.961-3.165 1.67-3.665 0 .479-.688 3.227-.918 3.415 0 0-.752.458-.752.25zM70.504 67.55c1.002-.27 1.524-.541 2.317-.667.084.396-3.946 4.02-4.51 2.437.042-.292-.585-.917.71-1.416 1.294-.5.898-.188 1.483-.354zM70.315 66.155c-.084-.188.794-1.292 1.504-1.604.71-.312 1.253-.479 1.92-.583.481 0 1.003-.187 1.42-.334-1.022 1.417-1.67 2.542-3.131 2.645-.335.167-.481.23-1.044.187-.606-.04-.585-.166-.669-.311zM67.538 67.382c.69 0 1.274 0 1.942-.062-1.712.895-2.694 1.937-4.615 1.562-.105-.021-.647-.27-.25-.917.293-.415 2.443-.686 2.923-.583zM63.53 68.05c-.419 0-.335-.271-.335-.668 0-1.103 1.274-2.27 2.005-2.997-.48 1.02-.752 2.103-.752 3.247-.334.334-.814.688-.814.417h-.105z"/>
        <path fill="#FFF200" d="M71.693 63.51c-.668.688-4.343 4.935-5.491 3.207 0-.938 2.109-1.395 2.693-1.521.69-.124 2.047-.957 2.798-1.686zM71.86 63.01c.043-1.395 1.295-2.04 2.464-2.04.773 0 1.504-.626 2.172-.917-1.107 1.395-2.485 4.166-4.635 2.957z"/>
        <path fill="#FFF200" d="M65.45 66.55c-1.44-.729 2.402-4.456 3.09-5.185.147.146-1.148 2.686-1.231 2.957-.188.5-.71 1.957-1.775 2.228h-.084zM67.81 65.051c-.794-1.124 1.002-2.082 1.294-2.394.272-.313 1.504-.959 1.775-1.354 0 .23-.605 1.395-.751 1.666-.878 1.77-1.295 1.832-2.235 2.083h-.083zM71.213 56.638c0 .812-.021 2.75-.397 3.499-.292.625-1.002 1.52-1.378 1.103-.647-.75-.418-.854.209-2.062.397-.811 1.065-1.749 1.566-2.54zM74.24 60.282c-1.273 0-.605-1.52.752-1.728.835-.146 1.378-.355 2.026-.77-.564.874-1.566 2.498-2.778 2.498z"/>
        <path fill="#009E49" d="M2.453 52.37c-.292 0-.647-.98-.25-1.167.354-.374 1.962-.895 1.085-1.77-.605-.582-1.169-1.124-1.169-2.082 0-.917.543-1.166 1.337-1.166.355.291.626 1.02.919 1.166.563.583.48-.438.751.916.376 1.52 1.253 3.436 2.109 4.748-.188.707-.439.104-.439-.167-.542-.937-.897-2.02-1.586-2.811-.313-.583-.773-1.125-1.086-1.687-.042.021-.146.084-.188.084.418 1.083 1.19 2 1.691 3.02 1.378 2.31.898 2.04-.835.311-.21.459 1.148 1.23 1.253 1.603.543.522.793 1.396 1.357 1.917-.272.25.271.312-.167.749-.668.667.71-.063.167.5-.042.083-1.963.416-.773.416.251.25.627.167.334.604-.292-.313-.208-.313-.417-.084-.397.396-.23.583-.23.896.334 0-.73.978-1.253.187-.23.437.334.916.647 1.083-.438 0-.563-.521-.751-.521 0-.042-.73-.208-.836-.479-.438-.228-.96-1.873-.5-2.353 2.066-2.04.041-2.622-1.17-3.914z"/>
        <path fill="#FFF200" d="M73.155 53.952c-.668 1.853 1.023 3.852-.835 4.997-2.297.001.626-4.476.835-4.997zM76.412 55.285a8.323 8.323 0 0 0 1.525-1.187c.272.583-1.775 4.435-2.86 3.373-.502-.52 0-.79 0-.937.02-.208 1.105-1.083 1.335-1.249z"/>
        <path fill="#D2AB67" d="M.594 53.536v-.167l.356-.25v.083h1.002l.334.084v.083h.167v.083h.084l.083.084h.063v.166l-.146.167-.084.145-.084.188-.083.167-.084.25-.083.083-.084.166-.083.084h-.084l-.271-.084-.146-.166-.167-.084-.084-.25-.25-.166-.084-.188-.188-.229z"/>
        <path fill="#FFF200" d="M76.037 54.702c-1.755-.708.94-3.728 1.649-5.185 0 1.52 0 5.83-1.65 5.185z"/>
        <path fill="#009E49" d="M9.364 56.888s-.793.583-.397 1.25c.397.646.564.333 1.17.728.626.417-.731 1.125 0 1.729.751.583.835-.875 1.232-.563.23.063-2.172-3.081-2.005-3.144zM41.437 83.687l.543-.395 3.696 1.499-1.65.27z"/>
        <path fill="#FFF200" d="M36.489 85.353l-1.65-.145 5.324-2.75.481.334zM37.575 82.542l-3.905 2.124h-.69l-.626-.062 4.74-2.125z"/>
        <path fill="#009E49" d="M44.507 82.334l-.188.27 3.278 1.375.814-.354z"/>
        <path fill="#009E49" stroke="#000" stroke-width=".5" d="M53.653 81.71l-1.19-.875 9.604-.77-.877 1.79zM56.952 82.48l-.522 2.124-12.216-3.499.585-.541z"/>
        <path stroke="#000" stroke-width=".5" d="M27.885 80.96s.523.937.543 1.125c.021.166.313 1.228 1.316.853 1.336-.5.584-1.166-.314-1.375-1.545-.374-1.545-.603-1.545-.603"/>
        <path fill="#FFCB05" d="M39.99 73.37c20.273 0 36.81-16.485 36.81-36.675C76.8 16.485 60.264 0 39.99 0 19.737 0 3.2 16.485 3.2 36.695c0 20.19 16.536 36.675 36.79 36.675z"/>
        <path fill="#FFF200" d="M74.178 53.64c.021-.104.835-1.853.564-.75 0 .479.627 3.582-.46 3.957-.834.271-.709-1.208-.584-1.541.146-.459.355-1.166.48-1.666z"/>
        <path fill="#00BCF2" d="M39.99 70.76c18.835 0 34.192-15.33 34.192-34.065 0-18.777-15.356-34.085-34.192-34.085-18.794 0-34.172 15.308-34.172 34.085 0 18.736 15.377 34.065 34.172 34.065z"/>
        <path fill="#E81123" d="M40 65.83c16.1 0 29.236-13.115 29.236-29.145C69.236 20.635 56.101 7.54 40 7.54c-16.08 0-29.236 13.094-29.236 29.145C10.764 52.715 23.92 65.83 40 65.83z"/>
        <path fill="#009E49" d="M39.99 60.175c12.987 0 23.574-10.553 23.574-23.48 0-12.947-10.586-23.5-23.574-23.5-12.967 0-23.554 10.553-23.554 23.5 0 12.927 10.587 23.48 23.554 23.48z"/>
        <path fill="#FFCB05" d="M32.584 19.47l-16.642-6.748 6.933 16.638-16.663 6.997 16.433 6.85-6.661 16.617 16.725-6.871 7.12 17.97 7.12-17.97 16.726 6.871-6.66-16.616 16.808-6.851-17.039-7.018 6.933-16.617-16.642 6.747L39.83 2.831z"/>
        <path fill="#FFF" d="M39.83 6.08l-6.557 15.055-14.95-6.06 6.243 14.973-15.014 6.309L24.315 42.5 18.322 57.47l15.118-6.205 6.39 16.137 6.389-16.137 15.117 6.205L55.344 42.5l15.076-6.143-15.326-6.31 6.242-14.972-14.95 6.06z"/>
        <path fill="#E81123" d="M43.463 46.705c-.21.376-1.149 1.521-1.65 1.521-.355 0-1.128.02-1.315-.167-.46 0-.084-.312-.668-.312-1.545 1.124-3.195.625-4.427-.833-.543-.541-1.42-2.02-1.482-2.77-.02-.207-.982-3.352-.982-3.852-.02.188-.23 3.769.25 3.769-2.956-3.258-1.181-9.283.898-12.452-.209 2.936-.167 5.851.501 8.766 0 .77 1.023 3.832 1.546 3.832 0 .208.752.333.752-.229 0-.604-.042-.791-.251-1.395-.975-1.682-1.667-3.612-1.796-5.56-.215-3.267.439-8.6 2.61-11.14.48-.625.543-1.062.418-.083 0 2.436.564 5.163.898 7.537.355 1.79.772 2 1.148 3.603.125.978.125 2.02 0 3.019-.188 1.582-.564 3.249-.564 4.831.314.645 0 .812.815.812.835 0 1.169-2.749.981-3.436 0-1.582-.125-4.019-.814-5.393-.209-.458-.668-1.832-.814-2.29a11.095 11.095 0 0 1-.335-1.396c-.605-2.936-.939-7.371.335-10.161.125-.354.187-.833.396-1.145 0 .791-.188 1.666.167 2.373 0 1.895 3.717 9.391 4.072 10.87 0 .02.438 1.25.522 1.749.209 2.166.292 4.622 0 6.705-.105.854-.731 2.353-1.211 3.227z"/>
        <path fill="#E81123" d="M43.671 46.685c.376-.395 1.34-2.624 1.504-3.852.275-2.061.546-4.226.25-6.226-.236-1.603-.81-3.18-1.482-4.664-.52-1.147-1.838-3.978-1.817-6.643.397.395.619 1.024.835 1.395.89 1.524 2.186 2.981 3.111 4.497.829 1.358 2.138 3.603 2.214 5.164.393 4.176-1.423 7.876-4.594 10.557l-.02-.228z"/>
        <path fill="#FFCB05" d="M27.635 64.842c.606 0 1.107.5 1.107 1.083 0 .605-.501 1.104-1.107 1.104a1.094 1.094 0 0 1 0-2.187zM51.168 65.322c.417-.438 1.106-.438 1.545 0 .418.416.418 1.103 0 1.54-.438.417-1.128.417-1.545 0-.439-.437-.439-1.124 0-1.54zM68.144 49.059c0-.604.48-1.104 1.086-1.104.605 0 1.106.5 1.106 1.104 0 .583-.5 1.082-1.106 1.082a1.09 1.09 0 0 1-1.086-1.082zM68.603 25.591c-.418-.416-.418-1.104 0-1.54.438-.417 1.128-.417 1.546 0 .438.436.438 1.124 0 1.54-.418.437-1.107.437-1.546 0zM28.779 8.388a1.11 1.11 0 0 1-1.542 0c-.437-.435-.437-1.12 0-1.536a1.072 1.072 0 0 1 1.542 0c.416.415.416 1.1 0 1.536zM11.807 24.467a1.09 1.09 0 0 1-1.086 1.083 1.095 1.095 0 0 1-1.107-1.083c0-.604.502-1.104 1.107-1.104.585 0 1.086.5 1.086 1.104zM11.327 47.914a1.067 1.067 0 0 1 0 1.54c-.418.438-1.107.438-1.545 0a1.104 1.104 0 0 1 0-1.54c.438-.438 1.127-.438 1.545 0z"/>
        <path fill="#D2AB67" d="M12.016 70.902l.021 1.77s-2.213-.02-2.255-.645c-.063-.646 1.086-1.062 2.234-1.125zM17.257 80.897l1.692.938s-.94 1.77-1.566 1.56c-.606-.207-.522-1.415-.126-2.498zM41.353 75.587l-1.127-1.312s1.336-1.187 1.775-.832c.459.374.02 1.353-.648 2.144zM31.79 81.522l1.504 1.207s-1.211 1.583-1.775 1.27c-.585-.29-.293-1.478.271-2.477z"/>
        <path stroke="#000" stroke-linecap="round" stroke-width=".585" d="M57.578 77.69s3.633-.541 5.283-1.353m-3.696-.354s3.946-1.041 5.867-2.354"/>
        <path stroke="#000" stroke-linecap="round" stroke-width=".522" d="M64.155 71.672s2.882-1.165 4.803-2.477m-1.587.25s2.15-1.167 4.072-2.478m-1.775.353s2.047-.749 3.842-2.602m-2.109-.875c.23-.188.794-.375 1.671-1.728"/>
        <path stroke="#000" stroke-linecap="round" stroke-width=".5" d="M68.186 61.407c.23-.187.793-.375 1.67-1.729m-1.253 1.833c.23-.187.793-.376 1.67-1.729m-1.399 2c.23-.188.794-.376 1.67-1.73"/>
        <path stroke="#000" stroke-linecap="round" stroke-width=".522" d="M64.99 72.818s1.024-.292 2.945-1.437"/>
        <path fill="#FFCB05" d="M53.07 8.388a1.11 1.11 0 0 1-1.542 0c-.437-.435-.437-1.12 0-1.536a1.072 1.072 0 0 1 1.541 0c.417.415.417 1.1 0 1.536z"/>
    </g>
</svg>
