<svg width="501" height="67" viewBox="0 0 501 67" fill="none" xmlns="http://www.w3.org/2000/svg">
<path d="M109.946 29.2841H112.105L113.625 31.2656L114.342 32.1463L116.764 35.3068H114.52L112.901 33.1974L112.347 32.4304L109.946 29.2841ZM117.233 26.7273C117.233 28.2803 116.949 29.6155 116.381 30.733C115.813 31.8456 115.034 32.7027 114.044 33.304C113.059 33.9006 111.939 34.1989 110.685 34.1989C109.425 34.1989 108.301 33.9006 107.311 33.304C106.326 32.7027 105.55 31.8433 104.982 30.7259C104.413 29.6084 104.129 28.2756 104.129 26.7273C104.129 25.1742 104.413 23.8414 104.982 22.7287C105.55 21.6113 106.326 20.7543 107.311 20.1577C108.301 19.5563 109.425 19.2557 110.685 19.2557C111.939 19.2557 113.059 19.5563 114.044 20.1577C115.034 20.7543 115.813 21.6113 116.381 22.7287C116.949 23.8414 117.233 25.1742 117.233 26.7273ZM115.06 26.7273C115.06 25.5436 114.868 24.5469 114.484 23.7372C114.106 22.9228 113.585 22.3073 112.922 21.8906C112.264 21.4692 111.518 21.2585 110.685 21.2585C109.847 21.2585 109.098 21.4692 108.44 21.8906C107.782 22.3073 107.261 22.9228 106.878 23.7372C106.499 24.5469 106.31 25.5436 106.31 26.7273C106.31 27.911 106.499 28.91 106.878 29.7244C107.261 30.5341 107.782 31.1496 108.44 31.571C109.098 31.9877 109.847 32.196 110.685 32.196C111.518 32.196 112.264 31.9877 112.922 31.571C113.585 31.1496 114.106 30.5341 114.484 29.7244C114.868 28.91 115.06 27.911 115.06 26.7273ZM120.505 34H118.176L123.41 19.4545H125.945L131.18 34H128.85L124.738 22.0966H124.624L120.505 34ZM120.896 28.304H128.453V30.1506H120.896V28.304ZM133.31 34V19.4545H138.495C139.622 19.4545 140.557 19.6487 141.3 20.0369C142.049 20.4252 142.607 20.9626 142.977 21.6491C143.346 22.331 143.531 23.1193 143.531 24.0142C143.531 24.9044 143.343 25.688 142.969 26.3651C142.6 27.0374 142.041 27.5606 141.293 27.9347C140.55 28.3087 139.615 28.4957 138.488 28.4957H134.56V26.6065H138.289C138.999 26.6065 139.577 26.5047 140.022 26.3011C140.472 26.0975 140.801 25.8016 141.009 25.4134C141.218 25.0251 141.322 24.5587 141.322 24.0142C141.322 23.465 141.215 22.9891 141.002 22.5866C140.794 22.1842 140.465 21.8764 140.015 21.6634C139.57 21.4455 138.985 21.3366 138.261 21.3366H135.505V34H133.31ZM140.491 27.4375L144.085 34H141.585L138.062 27.4375H140.491ZM147.46 34H145.13L150.365 19.4545H152.9L158.134 34H155.805L151.693 22.0966H151.579L147.46 34ZM147.85 28.304H155.407V30.1506H147.85V28.304ZM160.265 34V19.4545H165.592C166.624 19.4545 167.478 19.625 168.156 19.9659C168.833 20.3021 169.339 20.759 169.675 21.3366C170.012 21.9096 170.18 22.5559 170.18 23.2756C170.18 23.8816 170.068 24.393 169.846 24.8097C169.623 25.2216 169.325 25.553 168.951 25.804C168.582 26.0502 168.174 26.2301 167.729 26.3438V26.4858C168.212 26.5095 168.683 26.6657 169.143 26.9545C169.607 27.2386 169.99 27.6435 170.293 28.169C170.596 28.6946 170.748 29.3338 170.748 30.0866C170.748 30.83 170.573 31.4976 170.222 32.0895C169.877 32.6766 169.342 33.143 168.617 33.4886C167.893 33.8295 166.967 34 165.84 34H160.265ZM162.459 32.1179H165.627C166.678 32.1179 167.431 31.9143 167.886 31.5071C168.34 31.0999 168.567 30.5909 168.567 29.9801C168.567 29.5208 168.451 29.0994 168.219 28.7159C167.987 28.3324 167.656 28.027 167.225 27.7997C166.799 27.5724 166.292 27.4588 165.705 27.4588H162.459V32.1179ZM162.459 25.7472H165.4C165.892 25.7472 166.335 25.6525 166.728 25.4631C167.126 25.2737 167.441 25.0085 167.673 24.6676C167.909 24.322 168.028 23.9148 168.028 23.446C168.028 22.8447 167.817 22.3404 167.396 21.9332C166.974 21.526 166.328 21.3224 165.457 21.3224H162.459V25.7472ZM174.61 34H172.28L177.514 19.4545H180.05L185.284 34H182.955L178.842 22.0966H178.729L174.61 34ZM175 28.304H182.557V30.1506H175V28.304ZM196.575 24.0497C196.438 23.6188 196.253 23.233 196.021 22.892C195.794 22.5464 195.521 22.2528 195.204 22.0114C194.887 21.7652 194.525 21.5781 194.118 21.4503C193.715 21.3224 193.272 21.2585 192.789 21.2585C191.97 21.2585 191.232 21.4692 190.573 21.8906C189.915 22.312 189.394 22.9299 189.011 23.7443C188.632 24.554 188.443 25.5459 188.443 26.7202C188.443 27.8991 188.635 28.8958 189.018 29.7102C189.402 30.5246 189.927 31.1425 190.595 31.5639C191.262 31.9853 192.022 32.196 192.875 32.196C193.665 32.196 194.354 32.035 194.941 31.7131C195.533 31.3911 195.99 30.9366 196.312 30.3494C196.639 29.7576 196.802 29.0616 196.802 28.2614L197.37 28.3679H193.208V26.5568H198.926V28.2116C198.926 29.4332 198.665 30.4938 198.144 31.3935C197.628 32.2884 196.913 32.9796 196 33.4673C195.091 33.955 194.049 34.1989 192.875 34.1989C191.558 34.1989 190.403 33.8958 189.409 33.2898C188.419 32.6837 187.647 31.8243 187.093 30.7116C186.539 29.5942 186.262 28.2685 186.262 26.7344C186.262 25.5743 186.423 24.5327 186.745 23.6094C187.067 22.6861 187.519 21.9025 188.102 21.2585C188.689 20.6098 189.378 20.1151 190.169 19.7741C190.964 19.4285 191.833 19.2557 192.775 19.2557C193.561 19.2557 194.293 19.3717 194.97 19.6037C195.652 19.8357 196.258 20.1648 196.788 20.5909C197.323 21.017 197.766 21.5237 198.116 22.1108C198.466 22.6932 198.703 23.3395 198.826 24.0497H196.575ZM194.146 15.7614H195.893C195.893 16.5616 195.609 17.2126 195.041 17.7145C194.477 18.2116 193.715 18.4602 192.754 18.4602C191.797 18.4602 191.037 18.2116 190.474 17.7145C189.911 17.2126 189.629 16.5616 189.629 15.7614H191.369C191.369 16.1165 191.473 16.4313 191.681 16.706C191.89 16.9759 192.247 17.1108 192.754 17.1108C193.251 17.1108 193.606 16.9759 193.819 16.706C194.037 16.4361 194.146 16.1212 194.146 15.7614ZM209.259 19.4545V34H207.065V19.4545H209.259ZM208.165 17.7713C207.796 17.7713 207.479 17.6482 207.214 17.402C206.953 17.151 206.823 16.8527 206.823 16.5071C206.823 16.1567 206.953 15.8584 207.214 15.6122C207.479 15.3613 207.796 15.2358 208.165 15.2358C208.535 15.2358 208.85 15.3613 209.11 15.6122C209.375 15.8584 209.508 16.1567 209.508 16.5071C209.508 16.8527 209.375 17.151 209.11 17.402C208.85 17.6482 208.535 17.7713 208.165 17.7713ZM217.833 29.2841H219.992L221.512 31.2656L222.23 32.1463L224.651 35.3068H222.407L220.788 33.1974L220.234 32.4304L217.833 29.2841ZM225.12 26.7273C225.12 28.2803 224.836 29.6155 224.268 30.733C223.7 31.8456 222.921 32.7027 221.931 33.304C220.946 33.9006 219.827 34.1989 218.572 34.1989C217.312 34.1989 216.188 33.9006 215.198 33.304C214.213 32.7027 213.437 31.8433 212.869 30.7259C212.301 29.6084 212.016 28.2756 212.016 26.7273C212.016 25.1742 212.301 23.8414 212.869 22.7287C213.437 21.6113 214.213 20.7543 215.198 20.1577C216.188 19.5563 217.312 19.2557 218.572 19.2557C219.827 19.2557 220.946 19.5563 221.931 20.1577C222.921 20.7543 223.7 21.6113 224.268 22.7287C224.836 23.8414 225.12 25.1742 225.12 26.7273ZM222.947 26.7273C222.947 25.5436 222.755 24.5469 222.372 23.7372C221.993 22.9228 221.472 22.3073 220.809 21.8906C220.151 21.4692 219.405 21.2585 218.572 21.2585C217.734 21.2585 216.986 21.4692 216.328 21.8906C215.669 22.3073 215.149 22.9228 214.765 23.7372C214.386 24.5469 214.197 25.5436 214.197 26.7273C214.197 27.911 214.386 28.91 214.765 29.7244C215.149 30.5341 215.669 31.1496 216.328 31.571C216.986 31.9877 217.734 32.196 218.572 32.196C219.405 32.196 220.151 31.9877 220.809 31.571C221.472 31.1496 221.993 30.5341 222.372 29.7244C222.755 28.91 222.947 27.911 222.947 26.7273ZM226.544 21.3438V19.4545H237.801V21.3438H233.263V34H231.075V21.3438H226.544ZM242.513 19.4545V34H240.319V19.4545H242.513ZM241.419 17.7713C241.05 17.7713 240.733 17.6482 240.468 17.402C240.207 17.151 240.077 16.8527 240.077 16.5071C240.077 16.1567 240.207 15.8584 240.468 15.6122C240.733 15.3613 241.05 15.2358 241.419 15.2358C241.789 15.2358 242.104 15.3613 242.364 15.6122C242.629 15.8584 242.762 16.1567 242.762 16.5071C242.762 16.8527 242.629 17.151 242.364 17.402C242.104 17.6482 241.789 17.7713 241.419 17.7713ZM253.673 23.2756C253.597 22.6032 253.284 22.0824 252.735 21.7131C252.186 21.339 251.494 21.152 250.661 21.152C250.065 21.152 249.548 21.2467 249.113 21.4361C248.677 21.6207 248.339 21.8764 248.097 22.2031C247.86 22.5251 247.742 22.892 247.742 23.304C247.742 23.6496 247.823 23.9479 247.984 24.1989C248.149 24.4498 248.365 24.6605 248.63 24.831C248.9 24.9967 249.189 25.1364 249.496 25.25C249.804 25.3589 250.1 25.4489 250.384 25.5199L251.805 25.8892C252.269 26.0028 252.744 26.1567 253.232 26.3509C253.72 26.545 254.172 26.8007 254.589 27.1179C255.005 27.4351 255.342 27.8281 255.597 28.2969C255.858 28.7656 255.988 29.3267 255.988 29.9801C255.988 30.804 255.775 31.5355 255.349 32.1747C254.927 32.8139 254.314 33.3182 253.509 33.6875C252.709 34.0568 251.741 34.2415 250.604 34.2415C249.515 34.2415 248.573 34.0687 247.778 33.723C246.982 33.3774 246.36 32.8873 245.91 32.2528C245.46 31.6136 245.211 30.8561 245.164 29.9801H247.366C247.408 30.5057 247.579 30.9437 247.877 31.294C248.18 31.6397 248.566 31.8977 249.035 32.0682C249.508 32.2339 250.027 32.3168 250.59 32.3168C251.21 32.3168 251.762 32.2197 252.245 32.0256C252.733 31.8267 253.116 31.5521 253.396 31.2017C253.675 30.8466 253.815 30.4323 253.815 29.9588C253.815 29.5279 253.691 29.1752 253.445 28.9006C253.204 28.6259 252.875 28.3987 252.458 28.2188C252.046 28.0388 251.58 27.8802 251.059 27.7429L249.34 27.2741C248.175 26.9569 247.252 26.4905 246.57 25.875C245.893 25.2595 245.555 24.4451 245.555 23.4318C245.555 22.5937 245.782 21.8622 246.236 21.2372C246.691 20.6122 247.306 20.1269 248.083 19.7812C248.86 19.4309 249.735 19.2557 250.711 19.2557C251.696 19.2557 252.565 19.4285 253.317 19.7741C254.075 20.1198 254.672 20.5956 255.107 21.2017C255.543 21.803 255.77 22.4943 255.789 23.2756H253.673ZM259.752 34H257.422L262.657 19.4545H265.192L270.427 34H268.097L263.985 22.0966H263.871L259.752 34ZM260.142 28.304H267.699V30.1506H260.142V28.304ZM277.266 34H272.557V19.4545H277.415C278.84 19.4545 280.064 19.7457 281.087 20.3281C282.11 20.9058 282.893 21.7367 283.438 22.821C283.987 23.9006 284.262 25.1955 284.262 26.706C284.262 28.2211 283.985 29.5232 283.431 30.6122C282.881 31.7012 282.086 32.5393 281.044 33.1264C280.003 33.7088 278.743 34 277.266 34ZM274.752 32.0824H277.145C278.253 32.0824 279.174 31.8741 279.908 31.4574C280.642 31.036 281.191 30.4276 281.556 29.6321C281.92 28.8319 282.103 27.8565 282.103 26.706C282.103 25.5649 281.92 24.5966 281.556 23.8011C281.196 23.0057 280.658 22.402 279.943 21.9901C279.228 21.5781 278.341 21.3722 277.28 21.3722H274.752V32.0824ZM289.215 19.4545V34H287.021V19.4545H289.215ZM288.122 17.7713C287.752 17.7713 287.435 17.6482 287.17 17.402C286.909 17.151 286.779 16.8527 286.779 16.5071C286.779 16.1567 286.909 15.8584 287.17 15.6122C287.435 15.3613 287.752 15.2358 288.122 15.2358C288.491 15.2358 288.806 15.3613 289.066 15.6122C289.331 15.8584 289.464 16.1567 289.464 16.5071C289.464 16.8527 289.331 17.151 289.066 17.402C288.806 17.6482 288.491 17.7713 288.122 17.7713ZM297.764 34V19.4545H302.949C304.076 19.4545 305.011 19.6487 305.754 20.0369C306.502 20.4252 307.061 20.9626 307.43 21.6491C307.8 22.331 307.984 23.1193 307.984 24.0142C307.984 24.9044 307.797 25.688 307.423 26.3651C307.054 27.0374 306.495 27.5606 305.747 27.9347C305.004 28.3087 304.069 28.4957 302.942 28.4957H299.014V26.6065H302.743C303.453 26.6065 304.031 26.5047 304.476 26.3011C304.926 26.0975 305.255 25.8016 305.463 25.4134C305.671 25.0251 305.776 24.5587 305.776 24.0142C305.776 23.465 305.669 22.9891 305.456 22.5866C305.248 22.1842 304.919 21.8764 304.469 21.6634C304.024 21.4455 303.439 21.3366 302.715 21.3366H299.959V34H297.764ZM304.945 27.4375L308.538 34H306.038L302.516 27.4375H304.945ZM311.914 34H309.584L314.818 19.4545H317.354L322.588 34H320.259L316.147 22.0966H316.033L311.914 34ZM312.304 28.304H319.861V30.1506H312.304V28.304ZM322.112 19.4545H324.605L328.405 26.0668H328.561L332.361 19.4545H334.854L329.577 28.2898V34H327.389V28.2898L322.112 19.4545ZM348.849 26.7273C348.849 28.2803 348.564 29.6155 347.996 30.733C347.428 31.8456 346.649 32.7027 345.66 33.304C344.675 33.9006 343.555 34.1989 342.3 34.1989C341.041 34.1989 339.916 33.9006 338.927 33.304C337.942 32.7027 337.165 31.8433 336.597 30.7259C336.029 29.6084 335.745 28.2756 335.745 26.7273C335.745 25.1742 336.029 23.8414 336.597 22.7287C337.165 21.6113 337.942 20.7543 338.927 20.1577C339.916 19.5563 341.041 19.2557 342.3 19.2557C343.555 19.2557 344.675 19.5563 345.66 20.1577C346.649 20.7543 347.428 21.6113 347.996 22.7287C348.564 23.8414 348.849 25.1742 348.849 26.7273ZM346.675 26.7273C346.675 25.5436 346.484 24.5469 346.1 23.7372C345.721 22.9228 345.2 22.3073 344.538 21.8906C343.879 21.4692 343.134 21.2585 342.3 21.2585C341.462 21.2585 340.714 21.4692 340.056 21.8906C339.398 22.3073 338.877 22.9228 338.493 23.7372C338.115 24.5469 337.925 25.5436 337.925 26.7273C337.925 27.911 338.115 28.91 338.493 29.7244C338.877 30.5341 339.398 31.1496 340.056 31.571C340.714 31.9877 341.462 32.196 342.3 32.196C343.134 32.196 343.879 31.9877 344.538 31.571C345.2 31.1496 345.721 30.5341 346.1 29.7244C346.484 28.91 346.675 27.911 346.675 26.7273ZM363.355 19.4545V34H361.338L353.944 23.3324H353.809V34H351.615V19.4545H353.646L361.047 30.1364H361.181V19.4545H363.355ZM375.94 19.4545H378.142V29.0213C378.142 30.0393 377.902 30.9413 377.424 31.7273C376.946 32.5085 376.274 33.1241 375.407 33.5739C374.541 34.0189 373.525 34.2415 372.36 34.2415C371.2 34.2415 370.187 34.0189 369.321 33.5739C368.454 33.1241 367.782 32.5085 367.303 31.7273C366.825 30.9413 366.586 30.0393 366.586 29.0213V19.4545H368.781V28.8438C368.781 29.5019 368.925 30.0866 369.214 30.598C369.508 31.1094 369.922 31.5118 370.457 31.8054C370.992 32.0942 371.626 32.2386 372.36 32.2386C373.099 32.2386 373.736 32.0942 374.271 31.8054C374.811 31.5118 375.223 31.1094 375.507 30.598C375.795 30.0866 375.94 29.5019 375.94 28.8438V19.4545ZM393.102 19.4545V34H391.085L383.692 23.3324H383.557V34H381.362V19.4545H383.393L390.794 30.1364H390.929V19.4545H393.102ZM401.042 34H396.334V19.4545H401.192C402.617 19.4545 403.841 19.7457 404.863 20.3281C405.886 20.9058 406.67 21.7367 407.214 22.821C407.764 23.9006 408.038 25.1955 408.038 26.706C408.038 28.2211 407.761 29.5232 407.207 30.6122C406.658 31.7012 405.863 32.5393 404.821 33.1264C403.779 33.7088 402.52 34 401.042 34ZM398.528 32.0824H400.922C402.03 32.0824 402.951 31.8741 403.684 31.4574C404.418 31.036 404.968 30.4276 405.332 29.6321C405.697 28.8319 405.879 27.8565 405.879 26.706C405.879 25.5649 405.697 24.5966 405.332 23.8011C404.972 23.0057 404.435 22.402 403.72 21.9901C403.005 21.5781 402.117 21.3722 401.057 21.3722H398.528V32.0824ZM411.303 34H408.974L414.208 19.4545H416.744L421.978 34H419.648L415.536 22.0966H415.423L411.303 34ZM411.694 28.304H419.251V30.1506H411.694V28.304ZM429.431 34V19.4545H434.758C435.79 19.4545 436.645 19.625 437.322 19.9659C437.999 20.3021 438.506 20.759 438.842 21.3366C439.178 21.9096 439.346 22.5559 439.346 23.2756C439.346 23.8816 439.235 24.393 439.012 24.8097C438.79 25.2216 438.492 25.553 438.118 25.804C437.748 26.0502 437.341 26.2301 436.896 26.3438V26.4858C437.379 26.5095 437.85 26.6657 438.309 26.9545C438.773 27.2386 439.157 27.6435 439.46 28.169C439.763 28.6946 439.914 29.3338 439.914 30.0866C439.914 30.83 439.739 31.4976 439.389 32.0895C439.043 32.6766 438.508 33.143 437.784 33.4886C437.059 33.8295 436.134 34 435.007 34H429.431ZM431.626 32.1179H434.794C435.845 32.1179 436.598 31.9143 437.052 31.5071C437.507 31.0999 437.734 30.5909 437.734 29.9801C437.734 29.5208 437.618 29.0994 437.386 28.7159C437.154 28.3324 436.823 28.027 436.392 27.7997C435.966 27.5724 435.459 27.4588 434.872 27.4588H431.626V32.1179ZM431.626 25.7472H434.566C435.059 25.7472 435.502 25.6525 435.895 25.4631C436.292 25.2737 436.607 25.0085 436.839 24.6676C437.076 24.322 437.194 23.9148 437.194 23.446C437.194 22.8447 436.984 22.3404 436.562 21.9332C436.141 21.526 435.494 21.3224 434.623 21.3224H431.626V25.7472ZM448.116 34.1989C446.946 34.1989 445.923 33.9384 445.047 33.4176C444.176 32.8968 443.497 32.1463 443.009 31.1662C442.526 30.1813 442.285 28.9953 442.285 27.608V26.2443H452.76V28.1051H444.657V28.4105C444.661 29.2249 444.801 29.9138 445.076 30.4773C445.355 31.0407 445.751 31.4692 446.262 31.7628C446.778 32.0516 447.386 32.196 448.087 32.196C448.935 32.196 449.645 31.9972 450.218 31.5994C450.791 31.197 451.224 30.6383 451.518 29.9233C451.811 29.2036 451.958 28.3774 451.958 27.4446V26.0668C451.958 25.3234 451.868 24.6558 451.688 24.0639C451.513 23.4721 451.245 22.9702 450.885 22.5582C450.526 22.1463 450.066 21.8314 449.508 21.6136C448.949 21.3958 448.288 21.2869 447.526 21.2869C447.152 21.2869 446.764 21.313 446.361 21.3651C445.964 21.4124 445.568 21.4882 445.175 21.5923C444.782 21.6918 444.403 21.8172 444.039 21.9688L443.549 20.1293C443.743 20.0109 443.992 19.8996 444.295 19.7955C444.602 19.6913 444.943 19.599 445.317 19.5185C445.691 19.4332 446.082 19.3693 446.489 19.3267C446.901 19.2794 447.308 19.2557 447.711 19.2557C449.089 19.2557 450.272 19.535 451.262 20.0938C452.256 20.6525 453.019 21.4408 453.549 22.4588C454.084 23.4768 454.351 24.6795 454.351 26.0668V27.4446C454.351 28.7372 454.096 29.8949 453.584 30.9176C453.073 31.9356 452.351 32.7382 451.418 33.3253C450.485 33.9077 449.385 34.1989 448.116 34.1989ZM457.284 34V19.4545H462.469C463.596 19.4545 464.531 19.6487 465.274 20.0369C466.023 20.4252 466.581 20.9626 466.951 21.6491C467.32 22.331 467.505 23.1193 467.505 24.0142C467.505 24.9044 467.318 25.688 466.944 26.3651C466.574 27.0374 466.015 27.5606 465.267 27.9347C464.524 28.3087 463.589 28.4957 462.462 28.4957H458.534V26.6065H462.263C462.973 26.6065 463.551 26.5047 463.996 26.3011C464.446 26.0975 464.775 25.8016 464.983 25.4134C465.192 25.0251 465.296 24.5587 465.296 24.0142C465.296 23.465 465.189 22.9891 464.976 22.5866C464.768 22.1842 464.439 21.8764 463.989 21.6634C463.544 21.4455 462.959 21.3366 462.235 21.3366H459.479V34H457.284ZM464.465 27.4375L468.059 34H465.559L462.036 27.4375H464.465ZM470.205 34V19.4545H475.39C476.521 19.4545 477.459 19.6605 478.202 20.0724C478.946 20.4844 479.502 21.0478 479.871 21.7628C480.241 22.473 480.425 23.2732 480.425 24.1634C480.425 25.0582 480.238 25.8632 479.864 26.5781C479.495 27.2884 478.936 27.8518 478.188 28.2685C477.445 28.6804 476.509 28.8864 475.383 28.8864H471.817V27.0256H475.184C475.899 27.0256 476.479 26.9025 476.924 26.6562C477.369 26.4053 477.696 26.0644 477.904 25.6335C478.112 25.2027 478.216 24.7126 478.216 24.1634C478.216 23.6141 478.112 23.1264 477.904 22.7003C477.696 22.2741 477.366 21.9403 476.917 21.6989C476.472 21.4574 475.884 21.3366 475.155 21.3366H472.4V34H470.205ZM482.714 34H480.384L485.619 19.4545H488.154L493.388 34H491.059L486.947 22.0966H486.833L482.714 34ZM483.104 28.304H490.661V30.1506H483.104V28.304Z" fill="#3F2D77"/>
<path d="M139.881 49.3438V47.4545H151.138V49.3438H146.599V62H144.412V49.3438H139.881ZM155.85 47.4545V62H153.655V47.4545H155.85ZM154.756 45.7713C154.387 45.7713 154.07 45.6482 153.805 45.402C153.544 45.151 153.414 44.8527 153.414 44.5071C153.414 44.1567 153.544 43.8584 153.805 43.6122C154.07 43.3613 154.387 43.2358 154.756 43.2358C155.126 43.2358 155.44 43.3613 155.701 43.6122C155.966 43.8584 156.099 44.1567 156.099 44.5071C156.099 44.8527 155.966 45.151 155.701 45.402C155.44 45.6482 155.126 45.7713 154.756 45.7713ZM159.076 62V47.4545H161.271V54.4006H161.448L167.549 47.4545H170.312L164.445 54.0028L170.333 62H167.691L162.989 55.5014L161.271 57.4759V62H159.076ZM174.582 47.4545V62H172.387V47.4545H174.582ZM173.488 45.7713C173.119 45.7713 172.802 45.6482 172.536 45.402C172.276 45.151 172.146 44.8527 172.146 44.5071C172.146 44.1567 172.276 43.8584 172.536 43.6122C172.802 43.3613 173.119 43.2358 173.488 43.2358C173.857 43.2358 174.172 43.3613 174.433 43.6122C174.698 43.8584 174.83 44.1567 174.83 44.5071C174.83 44.8527 174.698 45.151 174.433 45.402C174.172 45.6482 173.857 45.7713 173.488 45.7713ZM189.548 47.4545V62H187.531L180.137 51.3324H180.002V62H177.808V47.4545H179.839L187.24 58.1364H187.375V47.4545H189.548ZM192.062 49.3438V47.4545H203.319V49.3438H198.781V62H196.593V49.3438H192.062ZM208.031 47.4545V62H205.837V47.4545H208.031ZM206.937 45.7713C206.568 45.7713 206.251 45.6482 205.986 45.402C205.725 45.151 205.595 44.8527 205.595 44.5071C205.595 44.1567 205.725 43.8584 205.986 43.6122C206.251 43.3613 206.568 43.2358 206.937 43.2358C207.307 43.2358 207.622 43.3613 207.882 43.6122C208.147 43.8584 208.28 44.1567 208.28 44.5071C208.28 44.8527 208.147 45.151 207.882 45.402C207.622 45.6482 207.307 45.7713 206.937 45.7713ZM217.852 47.4545L221.9 59.3011H222.063L226.111 47.4545H228.484L223.249 62H220.714L215.479 47.4545H217.852ZM236.182 62.1989C235.013 62.1989 233.99 61.9384 233.114 61.4176C232.243 60.8968 231.563 60.1463 231.076 59.1662C230.593 58.1813 230.351 56.9953 230.351 55.608V54.2443H240.827V56.1051H232.723V56.4105C232.728 57.2249 232.868 57.9138 233.143 58.4773C233.422 59.0407 233.817 59.4692 234.329 59.7628C234.845 60.0516 235.453 60.196 236.154 60.196C237.001 60.196 237.712 59.9972 238.285 59.5994C238.857 59.197 239.291 58.6383 239.584 57.9233C239.878 57.2036 240.025 56.3774 240.025 55.4446V54.0668C240.025 53.3234 239.935 52.6558 239.755 52.0639C239.58 51.4721 239.312 50.9702 238.952 50.5582C238.592 50.1463 238.133 49.8314 237.574 49.6136C237.016 49.3958 236.355 49.2869 235.593 49.2869C235.219 49.2869 234.83 49.313 234.428 49.3651C234.03 49.4124 233.635 49.4882 233.242 49.5923C232.849 49.6918 232.47 49.8172 232.106 49.9688L231.616 48.1293C231.81 48.0109 232.058 47.8996 232.361 47.7955C232.669 47.6913 233.01 47.599 233.384 47.5185C233.758 47.4332 234.149 47.3693 234.556 47.3267C234.968 47.2794 235.375 47.2557 235.777 47.2557C237.155 47.2557 238.339 47.535 239.329 48.0938C240.323 48.6525 241.085 49.4408 241.616 50.4588C242.151 51.4768 242.418 52.6795 242.418 54.0668V55.4446C242.418 56.7372 242.162 57.8949 241.651 58.9176C241.14 59.9356 240.418 60.7382 239.485 61.3253C238.552 61.9077 237.451 62.1989 236.182 62.1989ZM252.869 47.4545V62H250.674V47.4545H252.869ZM251.775 45.7713C251.406 45.7713 251.088 45.6482 250.823 45.402C250.563 45.151 250.433 44.8527 250.433 44.5071C250.433 44.1567 250.563 43.8584 250.823 43.6122C251.088 43.3613 251.406 43.2358 251.775 43.2358C252.144 43.2358 252.459 43.3613 252.72 43.6122C252.985 43.8584 253.117 44.1567 253.117 44.5071C253.117 44.8527 252.985 45.151 252.72 45.402C252.459 45.6482 252.144 45.7713 251.775 45.7713ZM260.804 62H256.095V47.4545H260.953C262.378 47.4545 263.602 47.7457 264.625 48.3281C265.647 48.9058 266.431 49.7367 266.975 50.821C267.525 51.9006 267.799 53.1955 267.799 54.706C267.799 56.2211 267.522 57.5232 266.968 58.6122C266.419 59.7012 265.624 60.5393 264.582 61.1264C263.54 61.7088 262.281 62 260.804 62ZM258.289 60.0824H260.683C261.791 60.0824 262.712 59.8741 263.446 59.4574C264.179 59.036 264.729 58.4276 265.093 57.6321C265.458 56.8319 265.64 55.8565 265.64 54.706C265.64 53.5649 265.458 52.5966 265.093 51.8011C264.733 51.0057 264.196 50.402 263.481 49.9901C262.766 49.5781 261.878 49.3722 260.818 49.3722H258.289V60.0824ZM271.064 62H268.735L273.969 47.4545H276.505L281.739 62H279.41L275.297 50.0966H275.184L271.064 62ZM271.455 56.304H279.012V58.1506H271.455V56.304ZM283.87 62V47.4545H289.054C290.181 47.4545 291.116 47.6487 291.86 48.0369C292.608 48.4252 293.166 48.9626 293.536 49.6491C293.905 50.331 294.09 51.1193 294.09 52.0142C294.09 52.9044 293.903 53.688 293.529 54.3651C293.159 55.0374 292.601 55.5606 291.853 55.9347C291.109 56.3087 290.174 56.4957 289.047 56.4957H285.12V54.6065H288.848C289.558 54.6065 290.136 54.5047 290.581 54.3011C291.031 54.0975 291.36 53.8016 291.568 53.4134C291.777 53.0251 291.881 52.5587 291.881 52.0142C291.881 51.465 291.774 50.9891 291.561 50.5866C291.353 50.1842 291.024 49.8764 290.574 49.6634C290.129 49.4455 289.544 49.3366 288.82 49.3366H286.064V62H283.87ZM291.05 55.4375L294.644 62H292.144L288.621 55.4375H291.05ZM302.358 62.1989C301.189 62.1989 300.166 61.9384 299.29 61.4176C298.419 60.8968 297.74 60.1463 297.252 59.1662C296.769 58.1813 296.527 56.9953 296.527 55.608V54.2443H307.003V56.1051H298.9V56.4105C298.904 57.2249 299.044 57.9138 299.319 58.4773C299.598 59.0407 299.993 59.4692 300.505 59.7628C301.021 60.0516 301.629 60.196 302.33 60.196C303.178 60.196 303.888 59.9972 304.461 59.5994C305.034 59.197 305.467 58.6383 305.76 57.9233C306.054 57.2036 306.201 56.3774 306.201 55.4446V54.0668C306.201 53.3234 306.111 52.6558 305.931 52.0639C305.756 51.4721 305.488 50.9702 305.128 50.5582C304.768 50.1463 304.309 49.8314 303.75 49.6136C303.192 49.3958 302.531 49.2869 301.769 49.2869C301.395 49.2869 301.007 49.313 300.604 49.3651C300.206 49.4124 299.811 49.4882 299.418 49.5923C299.025 49.6918 298.646 49.8172 298.282 49.9688L297.792 48.1293C297.986 48.0109 298.234 47.8996 298.537 47.7955C298.845 47.6913 299.186 47.599 299.56 47.5185C299.934 47.4332 300.325 47.3693 300.732 47.3267C301.144 47.2794 301.551 47.2557 301.954 47.2557C303.331 47.2557 304.515 47.535 305.505 48.0938C306.499 48.6525 307.261 49.4408 307.792 50.4588C308.327 51.4768 308.594 52.6795 308.594 54.0668V55.4446C308.594 56.7372 308.338 57.8949 307.827 58.9176C307.316 59.9356 306.594 60.7382 305.661 61.3253C304.728 61.9077 303.627 62.1989 302.358 62.1989ZM311.527 62V47.4545H320.647V49.3438H313.722V53.7756H320.171V55.6577H313.722V60.1108H320.732V62H311.527ZM322.891 49.3438V47.4545H334.148V49.3438H329.609V62H327.422V49.3438H322.891ZM336.665 47.4545H339.329L343.959 58.7614H344.13L348.761 47.4545H351.424V62H349.336V51.4744H349.201L344.911 61.9787H343.178L338.888 51.4673H338.753V62H336.665V47.4545ZM360.213 62.1989C359.043 62.1989 358.021 61.9384 357.145 61.4176C356.273 60.8968 355.594 60.1463 355.106 59.1662C354.623 58.1813 354.382 56.9953 354.382 55.608V54.2443H364.858V56.1051H356.754V56.4105C356.759 57.2249 356.898 57.9138 357.173 58.4773C357.452 59.0407 357.848 59.4692 358.359 59.7628C358.875 60.0516 359.484 60.196 360.184 60.196C361.032 60.196 361.742 59.9972 362.315 59.5994C362.888 59.197 363.321 58.6383 363.615 57.9233C363.908 57.2036 364.055 56.3774 364.055 55.4446V54.0668C364.055 53.3234 363.965 52.6558 363.785 52.0639C363.61 51.4721 363.342 50.9702 362.983 50.5582C362.623 50.1463 362.164 49.8314 361.605 49.6136C361.046 49.3958 360.386 49.2869 359.623 49.2869C359.249 49.2869 358.861 49.313 358.459 49.3651C358.061 49.4124 357.665 49.4882 357.272 49.5923C356.879 49.6918 356.501 49.8172 356.136 49.9688L355.646 48.1293C355.84 48.0109 356.089 47.8996 356.392 47.7955C356.7 47.6913 357.04 47.599 357.414 47.5185C357.789 47.4332 358.179 47.3693 358.586 47.3267C358.998 47.2794 359.405 47.2557 359.808 47.2557C361.186 47.2557 362.369 47.535 363.359 48.0938C364.353 48.6525 365.116 49.4408 365.646 50.4588C366.181 51.4768 366.449 52.6795 366.449 54.0668V55.4446C366.449 56.7372 366.193 57.8949 365.682 58.9176C365.17 59.9356 364.448 60.7382 363.515 61.3253C362.583 61.9077 361.482 62.1989 360.213 62.1989ZM376.232 47.4545L379.712 53.1435H379.825L383.305 47.4545H385.848L381.317 54.7273L385.876 62H383.32L379.825 56.3892H379.712L376.217 62H373.661L378.298 54.7273L373.689 47.4545H376.232ZM390.249 47.4545V62H388.055V47.4545H390.249ZM389.156 45.7713C388.786 45.7713 388.469 45.6482 388.204 45.402C387.944 45.151 387.813 44.8527 387.813 44.5071C387.813 44.1567 387.944 43.8584 388.204 43.6122C388.469 43.3613 388.786 43.2358 389.156 43.2358C389.525 43.2358 389.84 43.3613 390.1 43.6122C390.365 43.8584 390.498 44.1567 390.498 44.5071C390.498 44.8527 390.365 45.151 390.1 45.402C389.84 45.6482 389.525 45.7713 389.156 45.7713ZM398.184 62H393.476V47.4545H398.333C399.759 47.4545 400.983 47.7457 402.005 48.3281C403.028 48.9058 403.812 49.7367 404.356 50.821C404.905 51.9006 405.18 53.1955 405.18 54.706C405.18 56.2211 404.903 57.5232 404.349 58.6122C403.8 59.7012 403.004 60.5393 401.963 61.1264C400.921 61.7088 399.662 62 398.184 62ZM395.67 60.0824H398.064C399.172 60.0824 400.092 59.8741 400.826 59.4574C401.56 59.036 402.11 58.4276 402.474 57.6321C402.839 56.8319 403.021 55.8565 403.021 54.706C403.021 53.5649 402.839 52.5966 402.474 51.8011C402.114 51.0057 401.577 50.402 400.862 49.9901C400.147 49.5781 399.259 49.3722 398.199 49.3722H395.67V60.0824ZM407.939 47.4545H410.602L415.233 58.7614H415.404L420.034 47.4545H422.698V62H420.61V51.4744H420.475L416.185 61.9787H414.452L410.162 51.4673H410.027V62H407.939V47.4545ZM431.487 62.1989C430.317 62.1989 429.294 61.9384 428.418 61.4176C427.547 60.8968 426.868 60.1463 426.38 59.1662C425.897 58.1813 425.656 56.9953 425.656 55.608V54.2443H436.131V56.1051H428.028V56.4105C428.032 57.2249 428.172 57.9138 428.447 58.4773C428.726 59.0407 429.121 59.4692 429.633 59.7628C430.149 60.0516 430.757 60.196 431.458 60.196C432.306 60.196 433.016 59.9972 433.589 59.5994C434.162 59.197 434.595 58.6383 434.888 57.9233C435.182 57.2036 435.329 56.3774 435.329 55.4446V54.0668C435.329 53.3234 435.239 52.6558 435.059 52.0639C434.884 51.4721 434.616 50.9702 434.256 50.5582C433.897 50.1463 433.437 49.8314 432.879 49.6136C432.32 49.3958 431.659 49.2869 430.897 49.2869C430.523 49.2869 430.135 49.313 429.732 49.3651C429.335 49.4124 428.939 49.4882 428.546 49.5923C428.153 49.6918 427.774 49.8172 427.41 49.9688L426.92 48.1293C427.114 48.0109 427.362 47.8996 427.665 47.7955C427.973 47.6913 428.314 47.599 428.688 47.5185C429.062 47.4332 429.453 47.3693 429.86 47.3267C430.272 47.2794 430.679 47.2557 431.082 47.2557C432.46 47.2557 433.643 47.535 434.633 48.0938C435.627 48.6525 436.389 49.4408 436.92 50.4588C437.455 51.4768 437.722 52.6795 437.722 54.0668V55.4446C437.722 56.7372 437.467 57.8949 436.955 58.9176C436.444 59.9356 435.722 60.7382 434.789 61.3253C433.856 61.9077 432.755 62.1989 431.487 62.1989ZM439.938 49.3438V47.4545H451.195V49.3438H446.657V62H444.469V49.3438H439.938ZM455.907 47.4545V62H453.713V47.4545H455.907ZM454.814 45.7713C454.444 45.7713 454.127 45.6482 453.862 45.402C453.601 45.151 453.471 44.8527 453.471 44.5071C453.471 44.1567 453.601 43.8584 453.862 43.6122C454.127 43.3613 454.444 43.2358 454.814 43.2358C455.183 43.2358 455.498 43.3613 455.758 43.6122C456.023 43.8584 456.156 44.1567 456.156 44.5071C456.156 44.8527 456.023 45.151 455.758 45.402C455.498 45.6482 455.183 45.7713 454.814 45.7713Z" fill="#3F2D77"/>
<path d="M70.0648 26.652L77.9123 34.5L70.0648 42.348V26.652ZM69.2975 20.406L63.0517 13.7013H69.2975V20.406ZM69.2975 22.8229H55.9428V21.5281L60.2819 16.8683L60.5446 16.5884L60.8054 16.3063L62.6182 14.3611L69.2975 21.532V22.8229ZM69.2975 35.7182H67.646V23.5903H69.2975V35.7182ZM65.8274 23.5903H66.8786V35.7182H65.8274V23.5903ZM63.9112 23.5903H65.0602V35.7182H63.9112V23.5903ZM62.0926 23.5903H63.1438V35.7182H62.0926V23.5903ZM60.182 23.5903H61.3253V35.7182H60.182V23.5903ZM58.3616 23.5903H59.4147V35.7182H58.3616V23.5903ZM69.2975 55.3007H55.9427V36.4854H69.2975V55.3007ZM48.5 63.9159L40.6525 56.0681H56.3475L48.5 63.9159ZM27.7005 26.865H41.0572V55.3007H27.7005V26.865ZM27.7005 13.7013H41.0572V26.0976H27.7005V13.7013ZM55.1755 44.8918V55.3007H41.8245V44.8918C41.8245 41.2104 44.8169 38.2159 48.5 38.2159C52.183 38.2159 55.1755 41.2104 55.1755 44.8918ZM48.5 37.4485C45.5746 37.4485 43.0388 39.1444 41.8245 41.6018V13.7013H55.1755V41.6018C53.9612 39.1444 51.4254 37.4485 48.5 37.4485ZM55.9428 23.5903H57.5945V35.7182H55.9428V23.5903ZM48.5 5.08589L56.3475 12.9339H40.6525L48.5 5.08589ZM62.1846 13.7013L60.2626 15.7634L60.0036 16.0454L59.7389 16.3255L55.9428 20.402V13.7013H62.1846ZM26.9332 42.348L19.0857 34.5L26.9332 26.652V42.348ZM70.0648 25.5662V12.9339H57.4332L48.5 4L39.5668 12.9339H26.9332V25.5662L18 34.5L26.9332 43.4338V56.0681H39.5706L48.5 65L57.4312 56.0681H70.0648V43.4338L79 34.5L70.0648 25.5662Z" fill="#3F2D77"/>
<path d="M32.5681 32.0959H36.1898V35.7178H32.5681V32.0959ZM31.8008 36.485H36.9569V31.3285H31.8008V36.485Z" fill="#3F2D77"/>
<path d="M32.5681 39.6044H36.1898V43.2263H32.5681V39.6044ZM31.8008 43.9935H36.9569V38.8371H31.8008V43.9935Z" fill="#3F2D77"/>
<path d="M32.5681 47.1128H36.1898V50.7347H35.3207H34.7779H34.2369H32.5681V49.0676V48.5248V47.9818V47.1128ZM31.8008 47.2145V47.7574V48.3003V51.5021H35.0042H35.5452H36.0881H36.9571V46.3455H31.8008V47.2145Z" fill="#3F2D77"/>
<path d="M65.1704 43.4391L65.7191 42.9039L62.6211 39.7252L59.5232 42.9039L60.0737 43.4391L62.2374 41.2177V42.5702L59.5232 45.3556L60.0737 45.8908L62.2374 43.6694V45.0218L59.5232 47.8072L60.0737 48.3424L62.2374 46.121V47.4735L59.5232 50.2589L60.0737 50.7941L62.2374 48.5727V50.1784V50.7211V51.2621V52.277H63.0047V50.4949V49.9539V49.411V48.5727L63.4171 48.9966L63.6857 49.271L63.9543 49.5452L65.1704 50.7941L65.7191 50.2589L64.4953 49.0043L64.2285 48.7299L63.96 48.4537L63.0047 47.4735V46.121L64.6276 47.7861L64.8962 48.0605L65.1646 48.3348L65.1704 48.3424L65.7191 47.8072L65.7056 47.7937L65.439 47.5194L65.1704 47.2432L63.0047 45.0218V43.6694L65.1704 45.8908L65.7191 45.3556L63.0047 42.5702V41.2177L65.1704 43.4391Z" fill="#3F2D77"/>
<path d="M43.6363 17.7331H53.3636V18.7844H43.6363V17.7331ZM42.8691 19.5518H54.1311V16.9657H42.8691V19.5518Z" fill="#3F2D77"/>
<path d="M43.6363 22.8016H53.3636V23.8547H43.6363V22.8016ZM42.8691 24.6221H54.1311V22.0343H42.8691V24.6221Z" fill="#3F2D77"/>
<path d="M43.6363 27.8716H53.3636V28.9229H43.6363V27.8716ZM42.8691 29.6903H54.1311V27.1044H42.8691V29.6903Z" fill="#3F2D77"/>
<path d="M43.6363 32.94H53.3636V33.9933H43.6363V32.94ZM42.8691 34.7605H54.1311V32.1726H42.8691V34.7605Z" fill="#3F2D77"/>
<path d="M34.3338 22.823C33.3613 22.823 32.4943 22.3626 31.938 21.647C31.8593 21.5435 31.7845 21.436 31.7193 21.3228C31.6502 21.2077 31.5907 21.0868 31.5371 20.9622C31.3875 20.6034 31.303 20.2064 31.303 19.792C31.303 18.1212 32.665 16.761 34.3338 16.761C34.7482 16.761 35.1433 16.8454 35.5039 16.995C35.6287 17.0487 35.7495 17.1082 35.8645 17.1774C35.9796 17.2425 36.0852 17.3154 36.1888 17.3959C36.9042 17.9523 37.3665 18.8193 37.3665 19.792C37.3665 21.4629 36.0046 22.823 34.3338 22.823ZM36.7335 16.8512C36.6338 16.7687 36.5301 16.6919 36.4208 16.6209C36.3135 16.548 36.1965 16.4809 36.0795 16.4195C35.5576 16.1471 34.963 15.9936 34.3338 15.9936C32.241 15.9936 30.5358 17.6991 30.5358 19.792C30.5358 20.4211 30.6892 21.0159 30.9616 21.5377C31.0229 21.6547 31.0919 21.7698 31.163 21.8792C31.2359 21.9865 31.3106 22.092 31.3931 22.1919C32.0914 23.0455 33.1503 23.5903 34.3338 23.5903C36.4285 23.5903 38.1339 21.8868 38.1339 19.792C38.1339 18.6084 37.5872 17.5475 36.7335 16.8512Z" fill="#3F2D77"/>
</svg>
