<svg width="17" height="20" viewBox="0 0 17 20" fill="none" xmlns="http://www.w3.org/2000/svg">
<path d="M1.77889 12.6018L6.07536 13.17C5.71436 14.0785 5.296 15.5203 5.296 17.3224C5.296 18.3327 5.60383 19.0775 6.21095 19.5358C6.61888 19.8438 7.14328 20 7.76938 20H7.80038L7.83109 19.9963C8.85976 19.8755 9.16947 18.8628 9.1279 18.203C9.12268 18.033 9.13978 17.8664 9.1786 17.7078C9.29333 17.2403 9.4831 16.8506 9.94159 15.909L9.96303 15.8652C10.2693 15.2353 10.6211 15.009 11.108 14.6957C11.5228 14.4289 11.9928 14.1266 12.5 13.5422C12.7295 13.2784 12.9937 12.8926 13.2284 12.4789C13.271 12.4191 13.307 12.3515 13.3374 12.2755C13.3412 12.2678 13.3453 12.2607 13.3492 12.2537C13.3603 12.2331 13.3753 12.2058 13.391 12.1729C13.4145 12.1272 13.4406 12.0763 13.4674 12.0222C13.9078 11.6196 14.5885 11.6272 15.0022 11.6321C15.0448 11.6325 15.0841 11.633 15.1195 11.633C15.8449 11.633 16.274 11.3333 16.506 11.0818C16.8291 10.7323 16.9997 10.238 16.9997 9.65271L17 3.27728C17 2.85736 16.9493 2.25098 16.5105 1.83273C16.1008 1.44211 15.5204 1.39694 15.1195 1.39694H13.7956C13.4707 1.39694 13.1575 1.25 12.7608 1.06384C12.5367 0.95871 12.2826 0.839539 11.9918 0.731964C10.6271 0.233917 8.81079 0.00198364 6.27614 0.00198364C5.78491 0.00198364 4.26053 0 4.26053 0C3.71106 0 3.19391 0.227203 2.76526 0.656891C2.53811 0.884247 2.40006 1.1702 2.34342 1.53091C2.33096 1.61072 2.3227 1.77887 2.32184 1.86996C2.31314 2.09854 2.34501 2.31598 2.41339 2.51572C1.97315 2.56805 1.55783 2.76825 1.24029 3.08777C0.850759 3.47992 0.636218 4.02466 0.636218 4.62189C0.636218 5.05966 0.767898 5.47318 1.0117 5.81284C0.867707 5.8876 0.731248 5.98434 0.609563 6.10901C0.294053 6.43219 0.130938 6.88019 0.124274 7.4408C0.103993 8.00003 0.288838 8.48633 0.636508 8.84567C0.268702 9.23218 0.0270723 9.78577 0.00201166 10.3996C-0.0453593 11.5573 0.749644 12.5392 1.77889 12.6018Z" fill="#EC1B3B"/>
</svg>
