<svg width="40" height="40" viewBox="0 0 40 40" fill="none" xmlns="http://www.w3.org/2000/svg">
<g clip-path="url(#clip0_338_12517)">
<path d="M19.9997 0H19.9996C8.95413 0 0 8.95413 0 19.9996V19.9997C0 31.0452 8.95413 39.9993 19.9996 39.9993H19.9997C31.0452 39.9993 39.9993 31.0452 39.9993 19.9997V19.9996C39.9993 8.95413 31.0452 0 19.9997 0Z" fill="#5269A3"/>
<path d="M17.58 27.711C18.8092 27.7056 20.0381 27.6673 21.2666 27.5964V19.7372H23.7126L24.0081 16.913H21.2666V15.1197C21.2666 14.7236 21.6165 14.4025 22.0482 14.4025H24.0081V11.5781H20.9079C19.0699 11.5781 17.58 12.9454 17.58 14.632V16.913H15.7891V19.7372H17.58V27.711Z" fill="white"/>
</g>
<defs>
<clipPath id="clip0_338_12517">
<rect width="40" height="40" fill="white"/>
</clipPath>
</defs>
</svg>
