<svg width="78" height="78" viewBox="0 0 78 78" fill="none" xmlns="http://www.w3.org/2000/svg">
<g clip-path="url(#clip0_95_3768)">
<path d="M67.9848 67.4389C68.016 67.3765 68.0784 67.3297 68.094 67.2517C68.1564 67.1113 68.1721 66.9709 68.1876 66.8149C68.1876 66.7681 68.2188 66.7213 68.2188 66.6745C68.2188 66.6589 68.2344 66.6433 68.2344 66.6277V3.8845C68.2344 1.7785 66.5184 0.0625 64.4124 0.0625H16.2709C12.6985 0.0625 9.78125 2.9797 9.78125 6.5521V71.4949C9.78125 75.0829 12.6985 77.9845 16.2709 77.9845H66.5964C67.1892 77.9845 67.7509 77.6569 68.0317 77.1265C68.3125 76.5961 68.2812 75.9565 67.9537 75.4573C66.3469 73.0393 66.3469 69.9349 67.9537 67.5169C67.9692 67.5013 67.9692 67.4701 67.9848 67.4389ZM64.0224 74.7553H16.2709C14.4769 74.7553 13.026 73.3045 13.026 71.5105C13.026 69.7165 14.4769 68.2657 16.2709 68.2657H64.0224C63.3204 70.3717 63.3204 72.6493 64.0224 74.7553Z" fill="#081131"/>
<path d="M34.2412 61.4746H26.2891L25.3428 63.666C25.0329 64.3965 24.8779 64.9997 24.8779 65.4756C24.8779 66.1064 25.1325 66.5713 25.6416 66.8701C25.9404 67.0472 26.6764 67.18 27.8496 67.2686V67.8828H20.3623V67.2686C21.1702 67.1468 21.8343 66.8148 22.3545 66.2725C22.8747 65.7191 23.5166 64.5846 24.2803 62.8691L32.332 44.9062H32.6475L40.7656 63.3672C41.5404 65.1159 42.1768 66.2171 42.6748 66.6709C43.0511 67.014 43.5824 67.2132 44.2686 67.2686V67.8828H33.3779V67.2686H33.8262C34.7005 67.2686 35.3148 67.1468 35.6689 66.9033C35.9124 66.7262 36.0342 66.4717 36.0342 66.1396C36.0342 65.9404 36.001 65.7357 35.9346 65.5254C35.9124 65.4258 35.7464 65.0107 35.4365 64.2803L34.2412 61.4746ZM33.6768 60.2461L30.3232 52.4932L26.8701 60.2461H33.6768ZM65.4189 45.3711L52.1875 66.6211H56.4707C58.4961 66.6211 59.9128 66.4938 60.7207 66.2393C62.0378 65.8408 63.1722 65.1104 64.124 64.0479C65.0758 62.9743 65.7344 61.541 66.0996 59.748H66.7471L65.834 67.8828H45.2148L58.4629 46.5996H55.126C53.8311 46.5996 52.9788 46.6383 52.5693 46.7158C51.7946 46.8597 51.0641 47.1475 50.3779 47.5791C49.7028 47.9997 49.1383 48.5641 48.6846 49.2725C48.2419 49.9808 47.8932 50.8773 47.6387 51.9619H47.0244L47.6387 45.3711H65.4189ZM91.251 56.5938C91.251 60.0469 90.1829 62.8802 88.0469 65.0938C85.9108 67.2962 83.1273 68.3975 79.6963 68.3975C76.2321 68.3975 73.515 67.3073 71.5449 65.127C69.6302 63.002 68.6729 60.1465 68.6729 56.5605C68.6729 56.3171 68.6895 55.9961 68.7227 55.5977H85.3242C85.2467 53.0078 84.7764 50.9215 83.9131 49.3389C82.8063 47.2692 81.0964 46.2344 78.7832 46.2344C77.0234 46.2344 75.5348 46.7712 74.3174 47.8447C73.111 48.9183 72.3418 50.335 72.0098 52.0947H71.4121V44.8564H72.0098C72.2975 45.8083 72.7845 46.2842 73.4707 46.2842C73.7917 46.2842 74.6328 46.0462 75.9941 45.5703C77.3665 45.0944 78.7223 44.8564 80.0615 44.8564C83.3154 44.8564 85.9938 45.9798 88.0967 48.2266C90.1995 50.4733 91.251 53.2624 91.251 56.5938ZM85.3242 57.0586H74.666C74.666 60.1243 74.8542 62.2936 75.2305 63.5664C75.9499 65.957 77.4219 67.1523 79.6465 67.1523C83.4316 67.1523 85.3242 63.7878 85.3242 57.0586ZM101.511 57.623V63.9316C101.511 65.1491 101.583 65.9183 101.727 66.2393C101.882 66.5492 102.147 66.7982 102.523 66.9863C102.9 67.1745 103.603 67.2686 104.632 67.2686V67.8828H93.1104V67.2686C94.1507 67.2686 94.8535 67.1745 95.2188 66.9863C95.5951 66.7871 95.8551 66.5326 95.999 66.2227C96.154 65.9128 96.2314 65.1491 96.2314 63.9316V49.3223C96.2314 48.1048 96.154 47.3411 95.999 47.0312C95.8551 46.7103 95.5951 46.4557 95.2188 46.2676C94.8424 46.0794 94.1396 45.9854 93.1104 45.9854V45.3711H103.569C106.292 45.3711 108.284 45.5592 109.546 45.9355C110.808 46.3118 111.837 47.0091 112.634 48.0273C113.431 49.0345 113.829 50.2188 113.829 51.5801C113.829 53.2402 113.231 54.6126 112.036 55.6973C111.272 56.3835 110.204 56.8981 108.832 57.2412L114.244 64.8613C114.952 65.8464 115.456 66.4606 115.755 66.7041C116.209 67.0472 116.734 67.2354 117.332 67.2686V67.8828H110.243L102.988 57.623H101.511ZM101.511 46.583V56.4443H102.457C103.995 56.4443 105.146 56.306 105.91 56.0293C106.674 55.7415 107.271 55.2324 107.703 54.502C108.146 53.7604 108.367 52.7975 108.367 51.6133C108.367 49.8978 107.963 48.6305 107.155 47.8115C106.358 46.9925 105.069 46.583 103.287 46.583H101.511ZM132.174 55.9463C134.31 56.4443 135.81 57.0475 136.673 57.7559C137.912 58.763 138.532 60.069 138.532 61.6738C138.532 63.3672 137.852 64.7673 136.49 65.874C134.819 67.2132 132.39 67.8828 129.202 67.8828H117.764V67.2686C118.804 67.2686 119.507 67.1745 119.872 66.9863C120.248 66.7871 120.508 66.5326 120.652 66.2227C120.807 65.9128 120.885 65.1491 120.885 63.9316V49.3223C120.885 48.1048 120.807 47.3411 120.652 47.0312C120.508 46.7103 120.248 46.4557 119.872 46.2676C119.496 46.0794 118.793 45.9854 117.764 45.9854V45.3711H128.555C131.133 45.3711 132.96 45.6035 134.033 46.0684C135.107 46.5221 135.953 47.2083 136.573 48.127C137.193 49.0345 137.503 50.0029 137.503 51.0322C137.503 52.1169 137.11 53.0853 136.324 53.9375C135.538 54.7786 134.155 55.4482 132.174 55.9463ZM126.131 55.498C127.702 55.498 128.859 55.321 129.601 54.9668C130.353 54.6126 130.929 54.1146 131.327 53.4727C131.726 52.8307 131.925 52.0117 131.925 51.0156C131.925 50.0195 131.726 49.2061 131.327 48.5752C130.94 47.9333 130.381 47.4463 129.65 47.1143C128.92 46.7822 127.747 46.6217 126.131 46.6328V55.498ZM126.131 56.793V64.0146L126.114 64.8447C126.114 65.4424 126.264 65.8962 126.562 66.2061C126.872 66.5049 127.326 66.6543 127.924 66.6543C128.809 66.6543 129.623 66.4606 130.364 66.0732C131.117 65.6748 131.692 65.1048 132.091 64.3633C132.489 63.6107 132.688 62.7751 132.688 61.8564C132.688 60.805 132.445 59.8643 131.958 59.0342C131.471 58.193 130.801 57.6064 129.949 57.2744C129.097 56.9424 127.824 56.7819 126.131 56.793ZM34.2412 100.475H26.2891L25.3428 102.666C25.0329 103.396 24.8779 104 24.8779 104.476C24.8779 105.106 25.1325 105.571 25.6416 105.87C25.9404 106.047 26.6764 106.18 27.8496 106.269V106.883H20.3623V106.269C21.1702 106.147 21.8343 105.815 22.3545 105.272C22.8747 104.719 23.5166 103.585 24.2803 101.869L32.332 83.9062H32.6475L40.7656 102.367C41.5404 104.116 42.1768 105.217 42.6748 105.671C43.0511 106.014 43.5824 106.213 44.2686 106.269V106.883H33.3779V106.269H33.8262C34.7005 106.269 35.3148 106.147 35.6689 105.903C35.9124 105.726 36.0342 105.472 36.0342 105.14C36.0342 104.94 36.001 104.736 35.9346 104.525C35.9124 104.426 35.7464 104.011 35.4365 103.28L34.2412 100.475ZM33.6768 99.2461L30.3232 91.4932L26.8701 99.2461H33.6768ZM65.7178 84.3711V84.9854C64.9762 85.085 64.4062 85.3008 64.0078 85.6328C63.4544 86.0977 62.5801 87.3649 61.3848 89.4346L56.5039 97.5859V103.031C56.5039 104.193 56.5648 104.918 56.6865 105.206C56.8083 105.483 57.0462 105.732 57.4004 105.953C57.7656 106.163 58.2471 106.269 58.8447 106.269H60.1064V106.883H47.4727V106.269H48.6514C49.3154 106.269 49.8411 106.152 50.2285 105.92C50.5163 105.765 50.7432 105.499 50.9092 105.123C51.0309 104.857 51.0918 104.16 51.0918 103.031V98.5156L45.7959 88.8701C44.7445 86.9665 44.0029 85.8486 43.5713 85.5166C43.1396 85.1735 42.5641 84.9964 41.8447 84.9854V84.3711H52.6357V84.9854H52.1543C51.5013 84.9854 51.042 85.0794 50.7764 85.2676C50.5218 85.4557 50.3945 85.6549 50.3945 85.8652C50.3945 86.2637 50.8372 87.2653 51.7227 88.8701L55.79 96.3242L59.8408 89.5342C60.848 87.874 61.3516 86.7728 61.3516 86.2305C61.3516 85.9316 61.2077 85.6826 60.9199 85.4834C60.5436 85.2067 59.8519 85.0407 58.8447 84.9854V84.3711H65.7178ZM88.8105 83.8564V91.6592H88.1631C87.6761 89.6227 86.7686 88.0622 85.4404 86.9775C84.1123 85.8929 82.6071 85.3506 80.9248 85.3506C79.5192 85.3506 78.2298 85.7546 77.0566 86.5625C75.8835 87.3704 75.0257 88.4274 74.4834 89.7334C73.7861 91.4046 73.4375 93.264 73.4375 95.3115C73.4375 97.3258 73.6921 99.1631 74.2012 100.823C74.7103 102.472 75.5072 103.723 76.5918 104.575C77.6764 105.416 79.082 105.837 80.8086 105.837C82.2253 105.837 83.5202 105.527 84.6934 104.907C85.8776 104.287 87.1227 103.219 88.4287 101.703V103.646C87.167 104.963 85.8499 105.92 84.4775 106.518C83.1162 107.104 81.5225 107.397 79.6963 107.397C77.2946 107.397 75.1585 106.916 73.2881 105.953C71.4287 104.99 69.9899 103.607 68.9717 101.803C67.9645 99.9987 67.4609 98.0785 67.4609 96.042C67.4609 93.8949 68.0199 91.8584 69.1377 89.9326C70.2666 88.0068 71.7829 86.5127 73.6865 85.4502C75.6012 84.3877 77.6322 83.8564 79.7793 83.8564C81.362 83.8564 83.0332 84.1995 84.793 84.8857C85.8112 85.2842 86.4587 85.4834 86.7354 85.4834C87.0895 85.4834 87.3939 85.3561 87.6484 85.1016C87.9141 84.8359 88.0856 84.4209 88.1631 83.8564H88.8105ZM104.831 100.475H96.8789L95.9326 102.666C95.6227 103.396 95.4678 104 95.4678 104.476C95.4678 105.106 95.7223 105.571 96.2314 105.87C96.5303 106.047 97.2663 106.18 98.4395 106.269V106.883H90.9521V106.269C91.7601 106.147 92.4242 105.815 92.9443 105.272C93.4645 104.719 94.1064 103.585 94.8701 101.869L102.922 83.9062H103.237L111.355 102.367C112.13 104.116 112.767 105.217 113.265 105.671C113.641 106.014 114.172 106.213 114.858 106.269V106.883H103.968V106.269H104.416C105.29 106.269 105.905 106.147 106.259 105.903C106.502 105.726 106.624 105.472 106.624 105.14C106.624 104.94 106.591 104.736 106.524 104.525C106.502 104.426 106.336 104.011 106.026 103.28L104.831 100.475ZM104.267 99.2461L100.913 91.4932L97.46 99.2461H104.267ZM123.724 84.3711L134.83 98.333V88.6543C134.83 87.304 134.636 86.391 134.249 85.915C133.718 85.2731 132.827 84.9632 131.576 84.9854V84.3711H139.014V84.9854C138.062 85.1071 137.42 85.2676 137.088 85.4668C136.767 85.6549 136.512 85.9704 136.324 86.4131C136.147 86.8447 136.059 87.5918 136.059 88.6543V107.397H135.494L120.271 88.6543V102.965C120.271 104.26 120.564 105.134 121.15 105.588C121.748 106.042 122.429 106.269 123.192 106.269H123.724V106.883H115.738V106.269C116.978 106.257 117.841 106.003 118.328 105.505C118.815 105.007 119.059 104.16 119.059 102.965V87.0771L118.577 86.4795C118.101 85.8818 117.681 85.4889 117.315 85.3008C116.95 85.1126 116.424 85.0075 115.738 84.9854V84.3711H123.724ZM29.1279 135.623V141.932C29.1279 143.149 29.1999 143.918 29.3438 144.239C29.4987 144.549 29.7643 144.798 30.1406 144.986C30.5169 145.174 31.2197 145.269 32.249 145.269V145.883H20.7275V145.269C21.7679 145.269 22.4707 145.174 22.8359 144.986C23.2122 144.787 23.4723 144.533 23.6162 144.223C23.7712 143.913 23.8486 143.149 23.8486 141.932V127.322C23.8486 126.105 23.7712 125.341 23.6162 125.031C23.4723 124.71 23.2122 124.456 22.8359 124.268C22.4596 124.079 21.7568 123.985 20.7275 123.985V123.371H31.1865C33.9092 123.371 35.9014 123.559 37.1631 123.936C38.4248 124.312 39.4541 125.009 40.251 126.027C41.0479 127.035 41.4463 128.219 41.4463 129.58C41.4463 131.24 40.8486 132.613 39.6533 133.697C38.8896 134.383 37.8216 134.898 36.4492 135.241L41.8613 142.861C42.5697 143.846 43.0732 144.461 43.3721 144.704C43.8258 145.047 44.3516 145.235 44.9492 145.269V145.883H37.8604L30.6055 135.623H29.1279ZM29.1279 124.583V134.444H30.0742C31.6126 134.444 32.7637 134.306 33.5273 134.029C34.291 133.742 34.8887 133.232 35.3203 132.502C35.763 131.76 35.9844 130.798 35.9844 129.613C35.9844 127.898 35.5804 126.631 34.7725 125.812C33.9756 124.993 32.6862 124.583 30.9043 124.583H29.1279ZM53.9307 124.666V133.83H54.3789C55.8066 133.83 56.8415 133.382 57.4834 132.485C58.1253 131.589 58.5348 130.266 58.7119 128.518H59.3428V140.305H58.7119C58.5791 139.021 58.2969 137.969 57.8652 137.15C57.4447 136.331 56.9521 135.784 56.3877 135.507C55.8232 135.219 55.0042 135.075 53.9307 135.075V141.417C53.9307 142.657 53.9805 143.415 54.0801 143.691C54.1908 143.968 54.39 144.195 54.6777 144.372C54.9655 144.549 55.4303 144.638 56.0723 144.638H57.417C59.5199 144.638 61.2021 144.151 62.4639 143.177C63.7367 142.203 64.6497 140.72 65.2031 138.728H65.8174L64.8047 145.883H45.3477V145.269H46.0947C46.7477 145.269 47.2734 145.152 47.6719 144.92C47.9596 144.765 48.181 144.499 48.3359 144.123C48.4577 143.857 48.5186 143.16 48.5186 142.031V127.223C48.5186 126.204 48.4909 125.579 48.4355 125.347C48.3249 124.959 48.1201 124.66 47.8213 124.45C47.4007 124.14 46.8252 123.985 46.0947 123.985H45.3477V123.371H64.1904V130.028H63.5596C63.2386 128.401 62.7848 127.234 62.1982 126.525C61.6227 125.817 60.8037 125.297 59.7412 124.965C59.1214 124.766 57.9593 124.666 56.2549 124.666H53.9307ZM83.3154 122.856L83.498 130.36H82.8174C82.4964 128.479 81.7051 126.968 80.4434 125.828C79.1927 124.677 77.8369 124.102 76.376 124.102C75.2471 124.102 74.3506 124.406 73.6865 125.015C73.0335 125.612 72.707 126.304 72.707 127.09C72.707 127.588 72.8232 128.031 73.0557 128.418C73.3766 128.938 73.8913 129.453 74.5996 129.962C75.1198 130.327 76.3206 130.975 78.2021 131.904C80.8363 133.199 82.6126 134.422 83.5312 135.573C84.4388 136.724 84.8926 138.041 84.8926 139.524C84.8926 141.406 84.1566 143.027 82.6846 144.389C81.2236 145.739 79.3643 146.414 77.1064 146.414C76.3981 146.414 75.7285 146.342 75.0977 146.198C74.4668 146.054 73.6755 145.783 72.7236 145.385C72.1924 145.163 71.7552 145.053 71.4121 145.053C71.1243 145.053 70.82 145.163 70.499 145.385C70.1781 145.606 69.918 145.944 69.7188 146.397H69.1045V137.897H69.7188C70.2057 140.288 71.141 142.114 72.5244 143.376C73.9189 144.627 75.4186 145.252 77.0234 145.252C78.263 145.252 79.248 144.914 79.9785 144.239C80.7201 143.564 81.0908 142.778 81.0908 141.882C81.0908 141.351 80.9469 140.836 80.6592 140.338C80.3825 139.84 79.9564 139.369 79.3809 138.927C78.8053 138.473 77.7871 137.886 76.3262 137.167C74.2786 136.16 72.8066 135.302 71.9102 134.594C71.0137 133.885 70.3219 133.094 69.835 132.22C69.359 131.345 69.1211 130.382 69.1211 129.331C69.1211 127.538 69.7796 126.011 71.0967 124.749C72.4137 123.487 74.0739 122.856 76.0771 122.856C76.8076 122.856 77.516 122.945 78.2021 123.122C78.7223 123.255 79.3532 123.504 80.0947 123.869C80.8473 124.223 81.373 124.4 81.6719 124.4C81.9596 124.4 82.1865 124.312 82.3525 124.135C82.5186 123.958 82.6735 123.532 82.8174 122.856H83.3154ZM95.4512 135.689V141.932C95.4512 143.149 95.5231 143.918 95.667 144.239C95.8219 144.549 96.0876 144.798 96.4639 144.986C96.8512 145.174 97.554 145.269 98.5723 145.269V145.883H87.1338V145.269C88.1742 145.269 88.877 145.174 89.2422 144.986C89.6185 144.787 89.8786 144.533 90.0225 144.223C90.1774 143.913 90.2549 143.149 90.2549 141.932V127.322C90.2549 126.105 90.1774 125.341 90.0225 125.031C89.8786 124.71 89.6185 124.456 89.2422 124.268C88.8659 124.079 88.1631 123.985 87.1338 123.985V123.371H96.9453C100.177 123.371 102.496 123.947 103.901 125.098C105.307 126.249 106.01 127.688 106.01 129.414C106.01 130.875 105.556 132.126 104.648 133.166C103.741 134.206 102.49 134.915 100.896 135.291C99.8229 135.557 98.0078 135.689 95.4512 135.689ZM95.4512 124.666V134.395C95.8164 134.417 96.0931 134.428 96.2812 134.428C97.6315 134.428 98.6719 134.029 99.4023 133.232C100.133 132.424 100.498 131.179 100.498 129.497C100.498 127.826 100.133 126.603 99.4023 125.828C98.6719 125.053 97.5817 124.666 96.1318 124.666H95.4512ZM107.853 123.371H119.474V123.985H118.893C118.018 123.985 117.415 124.079 117.083 124.268C116.762 124.445 116.53 124.694 116.386 125.015C116.253 125.336 116.187 126.138 116.187 127.422V138.445C116.187 140.46 116.336 141.793 116.635 142.446C116.945 143.099 117.448 143.642 118.146 144.073C118.843 144.505 119.723 144.721 120.785 144.721C122.003 144.721 123.037 144.45 123.89 143.907C124.753 143.354 125.395 142.596 125.815 141.633C126.247 140.67 126.463 138.993 126.463 136.603V127.422C126.463 126.415 126.358 125.695 126.147 125.264C125.937 124.832 125.672 124.533 125.351 124.367C124.853 124.113 124.15 123.985 123.242 123.985V123.371H131.028V123.985H130.563C129.933 123.985 129.407 124.113 128.986 124.367C128.566 124.622 128.261 125.004 128.073 125.513C127.929 125.867 127.857 126.503 127.857 127.422V135.972C127.857 138.617 127.68 140.526 127.326 141.699C126.983 142.872 126.136 143.951 124.786 144.937C123.436 145.922 121.593 146.414 119.258 146.414C117.31 146.414 115.805 146.154 114.742 145.634C113.292 144.925 112.269 144.018 111.671 142.911C111.073 141.804 110.774 140.316 110.774 138.445V127.422C110.774 126.127 110.702 125.325 110.559 125.015C110.415 124.694 110.166 124.439 109.812 124.251C109.457 124.063 108.804 123.974 107.853 123.985V123.371ZM35.2207 172.946C37.3568 173.444 38.8564 174.048 39.7197 174.756C40.9593 175.763 41.5791 177.069 41.5791 178.674C41.5791 180.367 40.8984 181.767 39.5371 182.874C37.8659 184.213 35.4365 184.883 32.249 184.883H20.8105V184.269C21.8509 184.269 22.5537 184.174 22.9189 183.986C23.2952 183.787 23.5553 183.533 23.6992 183.223C23.8542 182.913 23.9316 182.149 23.9316 180.932V166.322C23.9316 165.105 23.8542 164.341 23.6992 164.031C23.5553 163.71 23.2952 163.456 22.9189 163.268C22.5426 163.079 21.8398 162.985 20.8105 162.985V162.371H31.6016C34.1803 162.371 36.0065 162.604 37.0801 163.068C38.1536 163.522 39.0003 164.208 39.6201 165.127C40.2399 166.035 40.5498 167.003 40.5498 168.032C40.5498 169.117 40.1569 170.085 39.3711 170.938C38.5853 171.779 37.2018 172.448 35.2207 172.946ZM29.1777 172.498C30.7493 172.498 31.9059 172.321 32.6475 171.967C33.4001 171.613 33.9756 171.115 34.374 170.473C34.7725 169.831 34.9717 169.012 34.9717 168.016C34.9717 167.02 34.7725 166.206 34.374 165.575C33.9867 164.933 33.4277 164.446 32.6973 164.114C31.9668 163.782 30.7936 163.622 29.1777 163.633V172.498ZM29.1777 173.793V181.015L29.1611 181.845C29.1611 182.442 29.3105 182.896 29.6094 183.206C29.9193 183.505 30.373 183.654 30.9707 183.654C31.8561 183.654 32.6696 183.461 33.4111 183.073C34.1637 182.675 34.7393 182.105 35.1377 181.363C35.5361 180.611 35.7354 179.775 35.7354 178.856C35.7354 177.805 35.4919 176.864 35.0049 176.034C34.5179 175.193 33.8483 174.606 32.9961 174.274C32.1439 173.942 30.8711 173.782 29.1777 173.793ZM64.2402 176.98L63.3936 184.883H43.4053V184.269H44.1523C44.8053 184.269 45.3311 184.152 45.7295 183.92C46.0173 183.765 46.2386 183.499 46.3936 183.123C46.5153 182.857 46.5762 182.16 46.5762 181.031V166.223C46.5762 165.072 46.5153 164.352 46.3936 164.064C46.2718 163.777 46.0228 163.528 45.6465 163.317C45.2812 163.096 44.7832 162.985 44.1523 162.985H43.4053V162.371H55.4082V162.985H54.4287C53.7757 162.985 53.25 163.102 52.8516 163.334C52.5638 163.489 52.3369 163.755 52.1709 164.131C52.0492 164.396 51.9883 165.094 51.9883 166.223V180.566C51.9883 181.717 52.0547 182.453 52.1875 182.774C52.3203 183.084 52.5804 183.317 52.9678 183.472C53.2445 183.571 53.9141 183.621 54.9766 183.621H56.8525C58.0479 183.621 59.0439 183.411 59.8408 182.99C60.6377 182.57 61.3239 181.906 61.8994 180.998C62.486 180.09 63.0394 178.751 63.5596 176.98H64.2402ZM77.9033 184.269V184.883H66.1328V184.269H66.8799C67.5329 184.269 68.0586 184.152 68.457 183.92C68.7448 183.765 68.9661 183.499 69.1211 183.123C69.2428 182.857 69.3037 182.16 69.3037 181.031V166.223C69.3037 165.072 69.2428 164.352 69.1211 164.064C68.9993 163.777 68.7503 163.528 68.374 163.317C68.0088 163.096 67.5107 162.985 66.8799 162.985H66.1328V162.371H77.9033V162.985H77.1562C76.5033 162.985 75.9775 163.102 75.5791 163.334C75.2913 163.489 75.0645 163.755 74.8984 164.131C74.7767 164.396 74.7158 165.094 74.7158 166.223V181.031C74.7158 182.182 74.7767 182.902 74.8984 183.189C75.0312 183.477 75.2803 183.732 75.6455 183.953C76.0218 184.163 76.5254 184.269 77.1562 184.269H77.9033ZM72.0098 155.747C72.6849 155.747 73.2604 155.985 73.7363 156.461C74.2122 156.937 74.4502 157.512 74.4502 158.188C74.4502 158.863 74.2122 159.438 73.7363 159.914C73.2604 160.39 72.6849 160.628 72.0098 160.628C71.3346 160.628 70.7591 160.39 70.2832 159.914C69.8073 159.438 69.5693 158.863 69.5693 158.188C69.5693 157.512 69.8073 156.937 70.2832 156.461C70.7591 155.985 71.3346 155.747 72.0098 155.747ZM92.8613 170.987L100.78 180.898C101.898 182.293 102.861 183.239 103.669 183.737C104.256 184.091 104.875 184.269 105.528 184.269V184.883H93.8076V184.269C94.5492 184.202 95.0251 184.086 95.2354 183.92C95.4567 183.754 95.5674 183.549 95.5674 183.306C95.5674 182.841 95.0583 181.966 94.04 180.683L88.877 174.191L88.0469 174.889V181.031C88.0469 182.204 88.1133 182.935 88.2461 183.223C88.3789 183.51 88.6335 183.759 89.0098 183.97C89.3861 184.169 89.9893 184.269 90.8193 184.269V184.883H79.4639V184.269H80.2109C80.8639 184.269 81.3896 184.152 81.7881 183.92C82.0758 183.765 82.2972 183.499 82.4521 183.123C82.5739 182.857 82.6348 182.16 82.6348 181.031V166.223C82.6348 165.072 82.5739 164.352 82.4521 164.064C82.3304 163.777 82.0814 163.528 81.7051 163.317C81.3398 163.096 80.8418 162.985 80.2109 162.985H79.4639V162.371H90.6699V162.985C89.9062 162.985 89.3252 163.096 88.9268 163.317C88.639 163.472 88.4121 163.732 88.2461 164.098C88.1133 164.374 88.0469 165.083 88.0469 166.223V173.229L96.3975 166.472C97.5596 165.531 98.1406 164.778 98.1406 164.214C98.1406 163.793 97.9027 163.461 97.4268 163.218C97.1833 163.096 96.5801 163.019 95.6172 162.985V162.371H104.399V162.985C103.614 163.041 102.994 163.185 102.54 163.417C102.097 163.638 101.068 164.402 99.4521 165.708L92.8613 170.987ZM119.308 178.475H111.355L110.409 180.666C110.099 181.396 109.944 182 109.944 182.476C109.944 183.106 110.199 183.571 110.708 183.87C111.007 184.047 111.743 184.18 112.916 184.269V184.883H105.429V184.269C106.237 184.147 106.901 183.815 107.421 183.272C107.941 182.719 108.583 181.585 109.347 179.869L117.398 161.906H117.714L125.832 180.367C126.607 182.116 127.243 183.217 127.741 183.671C128.118 184.014 128.649 184.213 129.335 184.269V184.883H118.444V184.269H118.893C119.767 184.269 120.381 184.147 120.735 183.903C120.979 183.726 121.101 183.472 121.101 183.14C121.101 182.94 121.067 182.736 121.001 182.525C120.979 182.426 120.813 182.011 120.503 181.28L119.308 178.475ZM118.743 177.246L115.39 169.493L111.937 177.246H118.743ZM145.704 161.856L145.887 169.36H145.206C144.885 167.479 144.094 165.968 142.832 164.828C141.581 163.677 140.226 163.102 138.765 163.102C137.636 163.102 136.739 163.406 136.075 164.015C135.422 164.612 135.096 165.304 135.096 166.09C135.096 166.588 135.212 167.031 135.444 167.418C135.765 167.938 136.28 168.453 136.988 168.962C137.508 169.327 138.709 169.975 140.591 170.904C143.225 172.199 145.001 173.422 145.92 174.573C146.827 175.724 147.281 177.041 147.281 178.524C147.281 180.406 146.545 182.027 145.073 183.389C143.612 184.739 141.753 185.414 139.495 185.414C138.787 185.414 138.117 185.342 137.486 185.198C136.855 185.054 136.064 184.783 135.112 184.385C134.581 184.163 134.144 184.053 133.801 184.053C133.513 184.053 133.209 184.163 132.888 184.385C132.567 184.606 132.307 184.944 132.107 185.397H131.493V176.897H132.107C132.594 179.288 133.53 181.114 134.913 182.376C136.308 183.627 137.807 184.252 139.412 184.252C140.652 184.252 141.637 183.914 142.367 183.239C143.109 182.564 143.479 181.778 143.479 180.882C143.479 180.351 143.336 179.836 143.048 179.338C142.771 178.84 142.345 178.369 141.77 177.927C141.194 177.473 140.176 176.886 138.715 176.167C136.667 175.16 135.195 174.302 134.299 173.594C133.402 172.885 132.711 172.094 132.224 171.22C131.748 170.345 131.51 169.382 131.51 168.331C131.51 166.538 132.168 165.011 133.485 163.749C134.802 162.487 136.463 161.856 138.466 161.856C139.196 161.856 139.905 161.945 140.591 162.122C141.111 162.255 141.742 162.504 142.483 162.869C143.236 163.223 143.762 163.4 144.061 163.4C144.348 163.4 144.575 163.312 144.741 163.135C144.907 162.958 145.062 162.532 145.206 161.856H145.704ZM32.5479 223.269V223.883H20.7773V223.269H21.5244C22.1774 223.269 22.7031 223.152 23.1016 222.92C23.3893 222.765 23.6107 222.499 23.7656 222.123C23.8874 221.857 23.9482 221.16 23.9482 220.031V205.223C23.9482 204.072 23.8874 203.352 23.7656 203.064C23.6439 202.777 23.3949 202.528 23.0186 202.317C22.6533 202.096 22.1553 201.985 21.5244 201.985H20.7773V201.371H32.5479V201.985H31.8008C31.1478 201.985 30.6221 202.102 30.2236 202.334C29.9359 202.489 29.709 202.755 29.543 203.131C29.4212 203.396 29.3604 204.094 29.3604 205.223V220.031C29.3604 221.182 29.4212 221.902 29.543 222.189C29.6758 222.477 29.9248 222.732 30.29 222.953C30.6663 223.163 31.1699 223.269 31.8008 223.269H32.5479ZM41.8115 201.371L52.918 215.333V205.654C52.918 204.304 52.7243 203.391 52.3369 202.915C51.8057 202.273 50.9147 201.963 49.6641 201.985V201.371H57.1016V201.985C56.1497 202.107 55.5078 202.268 55.1758 202.467C54.8548 202.655 54.6003 202.97 54.4121 203.413C54.235 203.845 54.1465 204.592 54.1465 205.654V224.397H53.582L38.3584 205.654V219.965C38.3584 221.26 38.6517 222.134 39.2383 222.588C39.8359 223.042 40.5166 223.269 41.2803 223.269H41.8115V223.883H33.8262V223.269C35.0658 223.257 35.929 223.003 36.416 222.505C36.903 222.007 37.1465 221.16 37.1465 219.965V204.077L36.665 203.479C36.1891 202.882 35.7686 202.489 35.4033 202.301C35.0381 202.113 34.5124 202.007 33.8262 201.985V201.371H41.8115ZM70.3662 223.269V223.883H58.5957V223.269H59.3428C59.9958 223.269 60.5215 223.152 60.9199 222.92C61.2077 222.765 61.429 222.499 61.584 222.123C61.7057 221.857 61.7666 221.16 61.7666 220.031V205.223C61.7666 204.072 61.7057 203.352 61.584 203.064C61.4622 202.777 61.2132 202.528 60.8369 202.317C60.4717 202.096 59.9736 201.985 59.3428 201.985H58.5957V201.371H70.3662V201.985H69.6191C68.9661 201.985 68.4404 202.102 68.042 202.334C67.7542 202.489 67.5273 202.755 67.3613 203.131C67.2396 203.396 67.1787 204.094 67.1787 205.223V220.031C67.1787 221.182 67.2396 221.902 67.3613 222.189C67.4941 222.477 67.7432 222.732 68.1084 222.953C68.4847 223.163 68.9883 223.269 69.6191 223.269H70.3662ZM79.6299 201.371L90.7363 215.333V205.654C90.7363 204.304 90.5426 203.391 90.1553 202.915C89.624 202.273 88.7331 201.963 87.4824 201.985V201.371H94.9199V201.985C93.9681 202.107 93.3262 202.268 92.9941 202.467C92.6732 202.655 92.4186 202.97 92.2305 203.413C92.0534 203.845 91.9648 204.592 91.9648 205.654V224.397H91.4004L76.1768 205.654V219.965C76.1768 221.26 76.4701 222.134 77.0566 222.588C77.6543 223.042 78.335 223.269 79.0986 223.269H79.6299V223.883H71.6445V223.269C72.8841 223.257 73.7474 223.003 74.2344 222.505C74.7214 222.007 74.9648 221.16 74.9648 219.965V204.077L74.4834 203.479C74.0075 202.882 73.5869 202.489 73.2217 202.301C72.8564 202.113 72.3307 202.007 71.6445 201.985V201.371H79.6299ZM109.895 209.987L117.813 219.898C118.931 221.293 119.894 222.239 120.702 222.737C121.289 223.091 121.909 223.269 122.562 223.269V223.883H110.841V223.269C111.582 223.202 112.058 223.086 112.269 222.92C112.49 222.754 112.601 222.549 112.601 222.306C112.601 221.841 112.091 220.966 111.073 219.683L105.91 213.191L105.08 213.889V220.031C105.08 221.204 105.146 221.935 105.279 222.223C105.412 222.51 105.667 222.759 106.043 222.97C106.419 223.169 107.022 223.269 107.853 223.269V223.883H96.4971V223.269H97.2441C97.8971 223.269 98.4229 223.152 98.8213 222.92C99.109 222.765 99.3304 222.499 99.4854 222.123C99.6071 221.857 99.668 221.16 99.668 220.031V205.223C99.668 204.072 99.6071 203.352 99.4854 203.064C99.3636 202.777 99.1146 202.528 98.7383 202.317C98.373 202.096 97.875 201.985 97.2441 201.985H96.4971V201.371H107.703V201.985C106.939 201.985 106.358 202.096 105.96 202.317C105.672 202.472 105.445 202.732 105.279 203.098C105.146 203.374 105.08 204.083 105.08 205.223V212.229L113.431 205.472C114.593 204.531 115.174 203.778 115.174 203.214C115.174 202.793 114.936 202.461 114.46 202.218C114.216 202.096 113.613 202.019 112.65 201.985V201.371H121.433V201.985C120.647 202.041 120.027 202.185 119.573 202.417C119.131 202.638 118.101 203.402 116.485 204.708L109.895 209.987ZM135.328 201.056C138.914 200.923 141.825 201.969 144.061 204.193C146.307 206.418 147.431 209.201 147.431 212.544C147.431 215.399 146.595 217.912 144.924 220.081C142.71 222.959 139.584 224.397 135.544 224.397C131.493 224.397 128.361 223.025 126.147 220.28C124.399 218.111 123.524 215.538 123.524 212.561C123.524 209.218 124.659 206.435 126.928 204.21C129.208 201.974 132.008 200.923 135.328 201.056ZM135.527 202.118C133.469 202.118 131.903 203.17 130.829 205.272C129.955 206.999 129.518 209.478 129.518 212.71C129.518 216.55 130.193 219.389 131.543 221.227C132.484 222.51 133.801 223.152 135.494 223.152C136.634 223.152 137.586 222.876 138.35 222.322C139.324 221.614 140.082 220.485 140.624 218.936C141.166 217.375 141.438 215.344 141.438 212.843C141.438 209.866 141.161 207.641 140.607 206.169C140.054 204.686 139.346 203.64 138.482 203.031C137.63 202.423 136.645 202.118 135.527 202.118ZM28.5635 240.371L39.6699 254.333V244.654C39.6699 243.304 39.4762 242.391 39.0889 241.915C38.5576 241.273 37.6667 240.963 36.416 240.985V240.371H43.8535V240.985C42.9017 241.107 42.2598 241.268 41.9277 241.467C41.6068 241.655 41.3522 241.97 41.1641 242.413C40.987 242.845 40.8984 243.592 40.8984 244.654V263.397H40.334L25.1104 244.654V258.965C25.1104 260.26 25.4036 261.134 25.9902 261.588C26.5879 262.042 27.2686 262.269 28.0322 262.269H28.5635V262.883H20.5781V262.269C21.8177 262.257 22.681 262.003 23.168 261.505C23.6549 261.007 23.8984 260.16 23.8984 258.965V243.077L23.417 242.479C22.9411 241.882 22.5205 241.489 22.1553 241.301C21.79 241.113 21.2643 241.007 20.5781 240.985V240.371H28.5635ZM60.6377 239.856L60.8203 247.36H60.1396C59.8187 245.479 59.0273 243.968 57.7656 242.828C56.515 241.677 55.1592 241.102 53.6982 241.102C52.5693 241.102 51.6729 241.406 51.0088 242.015C50.3558 242.612 50.0293 243.304 50.0293 244.09C50.0293 244.588 50.1455 245.031 50.3779 245.418C50.6989 245.938 51.2135 246.453 51.9219 246.962C52.4421 247.327 53.6429 247.975 55.5244 248.904C58.1585 250.199 59.9349 251.422 60.8535 252.573C61.7611 253.724 62.2148 255.041 62.2148 256.524C62.2148 258.406 61.4788 260.027 60.0068 261.389C58.5459 262.739 56.6865 263.414 54.4287 263.414C53.7204 263.414 53.0508 263.342 52.4199 263.198C51.7891 263.054 50.9977 262.783 50.0459 262.385C49.5146 262.163 49.0775 262.053 48.7344 262.053C48.4466 262.053 48.1423 262.163 47.8213 262.385C47.5003 262.606 47.2402 262.944 47.041 263.397H46.4268V254.897H47.041C47.528 257.288 48.4632 259.114 49.8467 260.376C51.2412 261.627 52.7409 262.252 54.3457 262.252C55.5853 262.252 56.5703 261.914 57.3008 261.239C58.0423 260.564 58.4131 259.778 58.4131 258.882C58.4131 258.351 58.2692 257.836 57.9814 257.338C57.7048 256.84 57.2786 256.369 56.7031 255.927C56.1276 255.473 55.1094 254.886 53.6484 254.167C51.6009 253.16 50.1289 252.302 49.2324 251.594C48.3359 250.885 47.6442 250.094 47.1572 249.22C46.6813 248.345 46.4434 247.382 46.4434 246.331C46.4434 244.538 47.1019 243.011 48.4189 241.749C49.736 240.487 51.3962 239.856 53.3994 239.856C54.1299 239.856 54.8382 239.945 55.5244 240.122C56.0446 240.255 56.6755 240.504 57.417 240.869C58.1696 241.223 58.6953 241.4 58.9941 241.4C59.2819 241.4 59.5088 241.312 59.6748 241.135C59.8408 240.958 59.9958 240.532 60.1396 239.856H60.6377ZM85.042 240.371V246.464H84.4443C84.0902 245.058 83.6973 244.051 83.2656 243.442C82.834 242.823 82.2419 242.33 81.4893 241.965C81.0687 241.766 80.3327 241.666 79.2812 241.666H77.6045V259.031C77.6045 260.182 77.6654 260.902 77.7871 261.189C77.9199 261.477 78.1689 261.732 78.5342 261.953C78.9105 262.163 79.4196 262.269 80.0615 262.269H80.8086V262.883H69.0215V262.269H69.7686C70.4215 262.269 70.9473 262.152 71.3457 261.92C71.6335 261.765 71.8604 261.499 72.0264 261.123C72.1481 260.857 72.209 260.16 72.209 259.031V241.666H70.582C69.0658 241.666 67.9645 241.987 67.2783 242.629C66.3154 243.525 65.7067 244.804 65.4521 246.464H64.8213V240.371H85.042ZM98.7217 262.269V262.883H86.9512V262.269H87.6982C88.3512 262.269 88.877 262.152 89.2754 261.92C89.5632 261.765 89.7845 261.499 89.9395 261.123C90.0612 260.857 90.1221 260.16 90.1221 259.031V244.223C90.1221 243.072 90.0612 242.352 89.9395 242.064C89.8177 241.777 89.5687 241.528 89.1924 241.317C88.8271 241.096 88.3291 240.985 87.6982 240.985H86.9512V240.371H98.7217V240.985H97.9746C97.3216 240.985 96.7959 241.102 96.3975 241.334C96.1097 241.489 95.8828 241.755 95.7168 242.131C95.5951 242.396 95.5342 243.094 95.5342 244.223V259.031C95.5342 260.182 95.5951 260.902 95.7168 261.189C95.8496 261.477 96.0986 261.732 96.4639 261.953C96.8402 262.163 97.3438 262.269 97.9746 262.269H98.7217ZM92.8281 233.747C93.5033 233.747 94.0788 233.985 94.5547 234.461C95.0306 234.937 95.2686 235.512 95.2686 236.188C95.2686 236.863 95.0306 237.438 94.5547 237.914C94.0788 238.39 93.5033 238.628 92.8281 238.628C92.153 238.628 91.5775 238.39 91.1016 237.914C90.6257 237.438 90.3877 236.863 90.3877 236.188C90.3877 235.512 90.6257 234.937 91.1016 234.461C91.5775 233.985 92.153 233.747 92.8281 233.747ZM120.968 240.371V246.464H120.37C120.016 245.058 119.623 244.051 119.191 243.442C118.76 242.823 118.168 242.33 117.415 241.965C116.994 241.766 116.258 241.666 115.207 241.666H113.53V259.031C113.53 260.182 113.591 260.902 113.713 261.189C113.846 261.477 114.095 261.732 114.46 261.953C114.836 262.163 115.345 262.269 115.987 262.269H116.734V262.883H104.947V262.269H105.694C106.347 262.269 106.873 262.152 107.271 261.92C107.559 261.765 107.786 261.499 107.952 261.123C108.074 260.857 108.135 260.16 108.135 259.031V241.666H106.508C104.992 241.666 103.89 241.987 103.204 242.629C102.241 243.525 101.632 244.804 101.378 246.464H100.747V240.371H120.968ZM122.993 240.371H134.614V240.985H134.033C133.159 240.985 132.556 241.079 132.224 241.268C131.903 241.445 131.67 241.694 131.526 242.015C131.394 242.336 131.327 243.138 131.327 244.422V255.445C131.327 257.46 131.477 258.793 131.775 259.446C132.085 260.099 132.589 260.642 133.286 261.073C133.983 261.505 134.863 261.721 135.926 261.721C137.143 261.721 138.178 261.45 139.03 260.907C139.894 260.354 140.535 259.596 140.956 258.633C141.388 257.67 141.604 255.993 141.604 253.603V244.422C141.604 243.415 141.498 242.695 141.288 242.264C141.078 241.832 140.812 241.533 140.491 241.367C139.993 241.113 139.29 240.985 138.383 240.985V240.371H146.169V240.985H145.704C145.073 240.985 144.548 241.113 144.127 241.367C143.706 241.622 143.402 242.004 143.214 242.513C143.07 242.867 142.998 243.503 142.998 244.422V252.972C142.998 255.617 142.821 257.526 142.467 258.699C142.124 259.872 141.277 260.951 139.927 261.937C138.576 262.922 136.734 263.414 134.398 263.414C132.451 263.414 130.945 263.154 129.883 262.634C128.433 261.925 127.409 261.018 126.812 259.911C126.214 258.804 125.915 257.316 125.915 255.445V244.422C125.915 243.127 125.843 242.325 125.699 242.015C125.555 241.694 125.306 241.439 124.952 241.251C124.598 241.063 123.945 240.974 122.993 240.985V240.371ZM36.0674 278.856L36.25 286.36H35.5693C35.2484 284.479 34.457 282.968 33.1953 281.828C31.9447 280.677 30.5889 280.102 29.1279 280.102C27.999 280.102 27.1025 280.406 26.4385 281.015C25.7855 281.612 25.459 282.304 25.459 283.09C25.459 283.588 25.5752 284.031 25.8076 284.418C26.1286 284.938 26.6432 285.453 27.3516 285.962C27.8717 286.327 29.0726 286.975 30.9541 287.904C33.5882 289.199 35.3646 290.422 36.2832 291.573C37.1908 292.724 37.6445 294.041 37.6445 295.524C37.6445 297.406 36.9085 299.027 35.4365 300.389C33.9756 301.739 32.1162 302.414 29.8584 302.414C29.1501 302.414 28.4805 302.342 27.8496 302.198C27.2188 302.054 26.4274 301.783 25.4756 301.385C24.9443 301.163 24.5072 301.053 24.1641 301.053C23.8763 301.053 23.5719 301.163 23.251 301.385C22.93 301.606 22.6699 301.944 22.4707 302.397H21.8564V293.897H22.4707C22.9577 296.288 23.8929 298.114 25.2764 299.376C26.6709 300.627 28.1706 301.252 29.7754 301.252C31.015 301.252 32 300.914 32.7305 300.239C33.472 299.564 33.8428 298.778 33.8428 297.882C33.8428 297.351 33.6989 296.836 33.4111 296.338C33.1344 295.84 32.7083 295.369 32.1328 294.927C31.5573 294.473 30.5391 293.886 29.0781 293.167C27.0306 292.16 25.5586 291.302 24.6621 290.594C23.7656 289.885 23.0739 289.094 22.5869 288.22C22.111 287.345 21.873 286.382 21.873 285.331C21.873 283.538 22.5316 282.011 23.8486 280.749C25.1657 279.487 26.8258 278.856 28.8291 278.856C29.5596 278.856 30.2679 278.945 30.9541 279.122C31.4743 279.255 32.1051 279.504 32.8467 279.869C33.5993 280.223 34.125 280.4 34.4238 280.4C34.7116 280.4 34.9385 280.312 35.1045 280.135C35.2705 279.958 35.4255 279.532 35.5693 278.856H36.0674ZM51.4736 301.269V301.883H39.7031V301.269H40.4502C41.1032 301.269 41.6289 301.152 42.0273 300.92C42.3151 300.765 42.5365 300.499 42.6914 300.123C42.8132 299.857 42.874 299.16 42.874 298.031V283.223C42.874 282.072 42.8132 281.352 42.6914 281.064C42.5697 280.777 42.3206 280.528 41.9443 280.317C41.5791 280.096 41.0811 279.985 40.4502 279.985H39.7031V279.371H51.4736V279.985H50.7266C50.0736 279.985 49.5479 280.102 49.1494 280.334C48.8617 280.489 48.6348 280.755 48.4688 281.131C48.347 281.396 48.2861 282.094 48.2861 283.223V298.031C48.2861 299.182 48.347 299.902 48.4688 300.189C48.6016 300.477 48.8506 300.732 49.2158 300.953C49.5921 301.163 50.0957 301.269 50.7266 301.269H51.4736ZM45.5801 272.747C46.2552 272.747 46.8307 272.985 47.3066 273.461C47.7826 273.937 48.0205 274.512 48.0205 275.188C48.0205 275.863 47.7826 276.438 47.3066 276.914C46.8307 277.39 46.2552 277.628 45.5801 277.628C44.9049 277.628 44.3294 277.39 43.8535 276.914C43.3776 276.438 43.1396 275.863 43.1396 275.188C43.1396 274.512 43.3776 273.937 43.8535 273.461C44.3294 272.985 44.9049 272.747 45.5801 272.747ZM76.4424 279.371V279.985C75.7008 280.085 75.1309 280.301 74.7324 280.633C74.179 281.098 73.3047 282.365 72.1094 284.435L67.2285 292.586V298.031C67.2285 299.193 67.2894 299.918 67.4111 300.206C67.5329 300.483 67.7708 300.732 68.125 300.953C68.4902 301.163 68.9717 301.269 69.5693 301.269H70.8311V301.883H58.1973V301.269H59.376C60.04 301.269 60.5658 301.152 60.9531 300.92C61.2409 300.765 61.4678 300.499 61.6338 300.123C61.7555 299.857 61.8164 299.16 61.8164 298.031V293.516L56.5205 283.87C55.4691 281.966 54.7275 280.849 54.2959 280.517C53.8643 280.174 53.2887 279.996 52.5693 279.985V279.371H63.3604V279.985H62.8789C62.2259 279.985 61.7666 280.079 61.501 280.268C61.2464 280.456 61.1191 280.655 61.1191 280.865C61.1191 281.264 61.5618 282.265 62.4473 283.87L66.5146 291.324L70.5654 284.534C71.5726 282.874 72.0762 281.773 72.0762 281.23C72.0762 280.932 71.9323 280.683 71.6445 280.483C71.2682 280.207 70.5765 280.041 69.5693 279.985V279.371H76.4424ZM87.8643 295.475H79.9121L78.9658 297.666C78.6559 298.396 78.501 299 78.501 299.476C78.501 300.106 78.7555 300.571 79.2646 300.87C79.5635 301.047 80.2995 301.18 81.4727 301.269V301.883H73.9854V301.269C74.7933 301.147 75.4574 300.815 75.9775 300.272C76.4977 299.719 77.1396 298.585 77.9033 296.869L85.9551 278.906H86.2705L94.3887 297.367C95.1634 299.116 95.7998 300.217 96.2979 300.671C96.6742 301.014 97.2054 301.213 97.8916 301.269V301.883H87.001V301.269H87.4492C88.3236 301.269 88.9378 301.147 89.292 300.903C89.5355 300.726 89.6572 300.472 89.6572 300.14C89.6572 299.94 89.624 299.736 89.5576 299.525C89.5355 299.426 89.3695 299.011 89.0596 298.28L87.8643 295.475ZM87.2998 294.246L83.9463 286.493L80.4932 294.246H87.2998ZM114.261 278.856L114.443 286.36H113.763C113.442 284.479 112.65 282.968 111.389 281.828C110.138 280.677 108.782 280.102 107.321 280.102C106.192 280.102 105.296 280.406 104.632 281.015C103.979 281.612 103.652 282.304 103.652 283.09C103.652 283.588 103.769 284.031 104.001 284.418C104.322 284.938 104.837 285.453 105.545 285.962C106.065 286.327 107.266 286.975 109.147 287.904C111.782 289.199 113.558 290.422 114.477 291.573C115.384 292.724 115.838 294.041 115.838 295.524C115.838 297.406 115.102 299.027 113.63 300.389C112.169 301.739 110.31 302.414 108.052 302.414C107.343 302.414 106.674 302.342 106.043 302.198C105.412 302.054 104.621 301.783 103.669 301.385C103.138 301.163 102.701 301.053 102.357 301.053C102.07 301.053 101.765 301.163 101.444 301.385C101.123 301.606 100.863 301.944 100.664 302.397H100.05V293.897H100.664C101.151 296.288 102.086 298.114 103.47 299.376C104.864 300.627 106.364 301.252 107.969 301.252C109.208 301.252 110.193 300.914 110.924 300.239C111.665 299.564 112.036 298.778 112.036 297.882C112.036 297.351 111.892 296.836 111.604 296.338C111.328 295.84 110.902 295.369 110.326 294.927C109.751 294.473 108.732 293.886 107.271 293.167C105.224 292.16 103.752 291.302 102.855 290.594C101.959 289.885 101.267 289.094 100.78 288.22C100.304 287.345 100.066 286.382 100.066 285.331C100.066 283.538 100.725 282.011 102.042 280.749C103.359 279.487 105.019 278.856 107.022 278.856C107.753 278.856 108.461 278.945 109.147 279.122C109.668 279.255 110.299 279.504 111.04 279.869C111.793 280.223 112.318 280.4 112.617 280.4C112.905 280.4 113.132 280.312 113.298 280.135C113.464 279.958 113.619 279.532 113.763 278.856H114.261ZM129.667 301.269V301.883H117.896V301.269H118.644C119.297 301.269 119.822 301.152 120.221 300.92C120.508 300.765 120.73 300.499 120.885 300.123C121.007 299.857 121.067 299.16 121.067 298.031V283.223C121.067 282.072 121.007 281.352 120.885 281.064C120.763 280.777 120.514 280.528 120.138 280.317C119.772 280.096 119.274 279.985 118.644 279.985H117.896V279.371H129.667V279.985H128.92C128.267 279.985 127.741 280.102 127.343 280.334C127.055 280.489 126.828 280.755 126.662 281.131C126.54 281.396 126.479 282.094 126.479 283.223V298.031C126.479 299.182 126.54 299.902 126.662 300.189C126.795 300.477 127.044 300.732 127.409 300.953C127.785 301.163 128.289 301.269 128.92 301.269H129.667Z" fill="white"/>
</g>
<defs>
<clipPath id="clip0_95_3768">
<rect width="78" height="78" fill="white"/>
</clipPath>
</defs>
</svg>
