<svg width="36" height="36" viewBox="0 0 36 36" fill="none" xmlns="http://www.w3.org/2000/svg">
<g clip-path="url(#clip0_338_12523)">
<path d="M18 36C27.9411 36 36 27.9411 36 18C36 8.05887 27.9411 0 18 0C8.05887 0 0 8.05887 0 18C0 27.9411 8.05887 36 18 36Z" fill="url(#paint0_radial_338_12523)"/>
<path d="M18 36C27.9411 36 36 27.9411 36 18C36 8.05887 27.9411 0 18 0C8.05887 0 0 8.05887 0 18C0 27.9411 8.05887 36 18 36Z" fill="url(#paint1_linear_338_12523)"/>
<path d="M10 14.8694C10.0538 14.4897 10.0947 14.1078 10.1631 13.7309C10.5504 11.5959 12.0619 10.1433 14.2231 10.0689C16.8252 9.97948 19.4351 9.97476 22.0368 10.0685C24.389 10.1532 26.0925 11.8949 26.166 14.2478C26.2442 16.7464 26.2442 19.251 26.166 21.7495C26.0925 24.1025 24.3896 25.844 22.037 25.9288C19.4353 26.0228 16.8248 26.0251 14.2233 25.9275C11.8707 25.839 10.2444 24.0934 10.087 21.7369C10.0735 21.5331 10.0297 21.331 10 21.1282C10 19.0418 10 16.9555 10 14.8694ZM18.1145 24.5343C19.3052 24.5343 20.497 24.57 21.6861 24.5261C23.5505 24.4569 24.6972 23.3443 24.7408 21.4817C24.7947 19.1608 24.7947 16.8368 24.7408 14.5157C24.6972 12.6535 23.5497 11.5148 21.6861 11.4752C19.3207 11.4252 16.9528 11.4256 14.5874 11.4752C12.738 11.514 11.5879 12.6296 11.5377 14.4714C11.4739 16.8216 11.4739 19.1759 11.5377 21.5262C11.5879 23.3677 12.738 24.4575 14.5876 24.5261C15.7617 24.5698 16.9388 24.5343 18.1145 24.5343Z" fill="white"/>
<path d="M18.1125 13.8652C15.8292 13.8652 13.978 15.7162 13.978 17.9995C13.978 20.2829 15.8292 22.1339 18.1125 22.1339C20.3959 22.1339 22.2469 20.2829 22.2469 17.9995C22.2469 15.7162 20.3959 13.8652 18.1125 13.8652ZM18.1125 20.7105C16.6152 20.7105 15.4014 19.4968 15.4014 17.9995C15.4014 16.5022 16.6152 15.2885 18.1125 15.2885C19.6097 15.2885 20.8235 16.5022 20.8235 17.9995C20.8235 19.4968 19.6097 20.7105 18.1125 20.7105Z" fill="white"/>
<path d="M23.4718 13.677C23.4718 14.2202 23.0315 14.6605 22.4883 14.6605C21.9452 14.6605 21.5046 14.2202 21.5046 13.677C21.5046 13.1337 21.9452 12.6934 22.4883 12.6934C23.0315 12.6934 23.4718 13.1337 23.4718 13.677Z" fill="white"/>
</g>
<defs>
<radialGradient id="paint0_radial_338_12523" cx="0" cy="0" r="1" gradientUnits="userSpaceOnUse" gradientTransform="translate(-11.3684 52.1053) rotate(-41.1859) scale(70.4946)">
<stop stop-color="#FAE100"/>
<stop offset="0.0544" stop-color="#FADC04"/>
<stop offset="0.1167" stop-color="#FBCE0E"/>
<stop offset="0.1829" stop-color="#FCB720"/>
<stop offset="0.2514" stop-color="#FE9838"/>
<stop offset="0.3054" stop-color="#FF7950"/>
<stop offset="0.645201" stop-color="#FF1C74"/>
<stop offset="1" stop-color="#6C1CD1"/>
</radialGradient>
<linearGradient id="paint1_linear_338_12523" x1="16" y1="18" x2="1.5" y2="44" gradientUnits="userSpaceOnUse">
<stop offset="0.108101" stop-color="#FAE100" stop-opacity="0"/>
<stop offset="0.464126" stop-color="#FCA800" stop-opacity="0.305882"/>
<stop offset="0.708333" stop-color="#FE7300" stop-opacity="0.627451"/>
<stop offset="0.8685" stop-color="#FF5200" stop-opacity="0.866667"/>
<stop offset="1" stop-color="#FF4500"/>
</linearGradient>
<clipPath id="clip0_338_12523">
<rect width="36" height="36" fill="white"/>
</clipPath>
</defs>
</svg>
