<svg width="60" height="78" viewBox="0 0 60 78" fill="none" xmlns="http://www.w3.org/2000/svg">
<path d="M58.9848 67.4389C59.016 67.3765 59.0784 67.3297 59.094 67.2517C59.1564 67.1113 59.1721 66.9709 59.1877 66.8149C59.1877 66.7681 59.2188 66.7213 59.2188 66.6745C59.2188 66.6589 59.2344 66.6433 59.2344 66.6277V3.8845C59.2344 1.7785 57.5184 0.0625 55.4124 0.0625H7.27085C3.69845 0.0625 0.78125 2.9797 0.78125 6.5521V71.4949C0.78125 75.0829 3.69845 77.9845 7.27085 77.9845H57.5964C58.1892 77.9845 58.7509 77.6569 59.0317 77.1265C59.3125 76.5961 59.2813 75.9565 58.9537 75.4573C57.3469 73.0393 57.3469 69.9349 58.9537 67.5169C58.9693 67.5013 58.9692 67.4701 58.9848 67.4389ZM55.0224 74.7553H7.27085C5.47685 74.7553 4.02605 73.3045 4.02605 71.5105C4.02605 69.7165 5.47685 68.2657 7.27085 68.2657H55.0224C54.3204 70.3717 54.3204 72.6493 55.0224 74.7553Z" fill="#081131"/>
</svg>
