<svg width="17" height="20" viewBox="0 0 17 20" fill="none" xmlns="http://www.w3.org/2000/svg">
<path d="M15.2211 7.39822L10.9246 6.82999C11.2856 5.92148 11.704 4.47968 11.704 2.67761C11.704 1.66733 11.3962 0.922546 10.789 0.464172C10.3811 0.15625 9.85672 0 9.23062 0H9.19962L9.16891 0.00366211C8.14024 0.124512 7.83053 1.13724 7.8721 1.79703C7.87732 1.96701 7.86022 2.13364 7.8214 2.29218C7.70667 2.7597 7.5169 3.14941 7.05841 4.09103L7.03697 4.13483C6.73073 4.76471 6.37886 4.991 5.89198 5.30426C5.47724 5.57114 5.00716 5.87341 4.5 6.45782C4.27054 6.72165 4.00631 7.10739 3.77163 7.52106C3.72904 7.58087 3.69297 7.64847 3.66255 7.72446C3.65879 7.73224 3.65473 7.73926 3.65082 7.74628C3.63966 7.76688 3.62474 7.79419 3.60895 7.82715C3.58548 7.87277 3.55941 7.92374 3.53261 7.97775C3.09223 8.38043 2.41152 8.3728 1.99779 8.36792C1.95521 8.36746 1.91595 8.367 1.88046 8.367C1.15513 8.367 0.726049 8.66669 0.49398 8.91815C0.170937 9.26773 0.000289707 9.76196 0.000289707 10.3473L0 16.7227C0 17.1426 0.0507018 17.749 0.489489 18.1673C0.89916 18.5579 1.47962 18.6031 1.88046 18.6031H3.20435C3.52928 18.6031 3.84247 18.75 4.23925 18.9362C4.46335 19.0413 4.71744 19.1605 5.00818 19.268C6.37292 19.7661 8.18921 19.998 10.7239 19.998C11.2151 19.998 12.7395 20 12.7395 20C13.2889 20 13.8061 19.7728 14.2347 19.3431C14.4619 19.1158 14.5999 18.8298 14.6566 18.4691C14.669 18.3893 14.6773 18.2211 14.6782 18.13C14.6869 17.9015 14.655 17.684 14.5866 17.4843C15.0268 17.4319 15.4422 17.2318 15.7597 16.9122C16.1492 16.5201 16.3638 15.9753 16.3638 15.3781C16.3638 14.9403 16.2321 14.5268 15.9883 14.1872C16.1323 14.1124 16.2688 14.0157 16.3904 13.891C16.7059 13.5678 16.8691 13.1198 16.8757 12.5592C16.896 12 16.7112 11.5137 16.3635 11.1543C16.7313 10.7678 16.9729 10.2142 16.998 9.60037C17.0454 8.44269 16.2504 7.46078 15.2211 7.39822Z" fill="#50B848"/>
</svg>
