<svg width="74" height="66" viewBox="0 0 74 66" fill="none" xmlns="http://www.w3.org/2000/svg">
<path d="M35.6033 8.79218L16.0127 28.3828L32.614 44.9841L52.2046 25.3935L35.6033 8.79218Z" fill="#081131"/>
<path d="M8.46702 34.9978C7.03182 33.5626 7.03182 31.2538 8.46702 29.8186C9.90222 28.3834 12.211 28.3834 13.6462 29.8186L31.1806 47.353C32.6158 48.7882 32.6158 51.097 31.1806 52.5322C29.7454 53.9674 27.4366 53.9674 26.0014 52.5322L8.46702 34.9978Z" fill="#081131"/>
<path d="M37.0315 6.43333C35.5963 4.99813 35.5963 2.68933 37.0315 1.25413C38.4667 -0.181066 40.7755 -0.181066 42.2107 1.25413L59.7451 18.7885C61.1803 20.2237 61.1803 22.5325 59.7451 23.9677C58.3099 25.4029 56.0011 25.4029 54.5659 23.9677L37.0315 6.43333Z" fill="#081131"/>
<path d="M22.0234 17.5249C22.0234 16.8229 22.2886 16.1209 22.819 15.5905C23.8798 14.5297 25.5958 14.5297 26.6566 15.6061L27.7174 16.6669L23.8798 20.5201L22.819 19.4593C22.2886 18.9289 22.0234 18.2269 22.0234 17.5249Z" fill="#081131"/>
<path d="M72.2401 61.174C72.7705 61.7044 73.0357 62.4064 73.0357 63.0928C73.0357 63.7948 72.7705 64.4812 72.2401 65.0116C71.1793 66.0724 69.4477 66.088 68.3869 65.0272L40.4785 37.1188L44.3317 33.2656L72.2401 61.174Z" fill="#081131"/>
<path d="M0.963867 65.7912C0.963867 61.8288 4.20867 58.5684 8.20227 58.5684H43.0839C47.0775 58.5684 50.3223 61.8288 50.3223 65.7912H0.963867Z" fill="#081131"/>
</svg>
