<svg width="48" height="64" viewBox="0 0 48 64" fill="none" xmlns="http://www.w3.org/2000/svg">
<path d="M36.792 1.3457V11.3765H46.8228L36.792 1.3457Z" fill="#081131"/>
<path d="M35.5129 12.6562V0.457031H0.288086V63.559H47.7121V12.6562H35.5129ZM24.6397 49.8154C18.8677 49.8154 13.0957 49.8154 7.30809 49.8154C7.30809 47.1634 7.30809 44.5114 7.30809 41.8594C13.0801 41.8594 18.8521 41.8594 24.6397 41.8594C24.6397 44.5114 24.6397 47.1634 24.6397 49.8154ZM24.6397 35.9782C18.8677 35.9782 13.0957 35.9782 7.30809 35.9782C7.30809 33.3262 7.30809 30.6742 7.30809 28.0222C13.0801 28.0222 18.8521 28.0222 24.6397 28.0222C24.6397 30.6742 24.6397 33.3262 24.6397 35.9782ZM24.6397 22.141C18.8677 22.141 13.0957 22.141 7.30809 22.141C7.30809 19.489 7.30809 16.837 7.30809 14.185H7.94769H24.0001H24.6397C24.6397 16.837 24.6397 19.489 24.6397 22.141ZM32.8453 49.0822L28.9297 45.1666L29.8345 44.2618L32.9389 47.3662L38.2585 42.9826L39.0697 43.9654L32.8453 49.0822ZM32.8453 35.245L28.9297 31.3294L29.8345 30.4246L32.9389 33.529L38.2585 29.1454L39.0697 30.1282L32.8453 35.245ZM32.8453 21.3922L28.9297 17.4766L29.8345 16.5718L32.9389 19.6762L38.2585 15.2926L39.0697 16.2754L32.8453 21.3922Z" fill="#081131"/>
</svg>
