<svg width="72" height="72" viewBox="0 0 72 72" fill="none" xmlns="http://www.w3.org/2000/svg">
<path d="M43.3795 50.2271V49.7271H42.8795H29.0267H28.5267V50.2271V57.1535C28.5267 64.693 22.3389 70.8807 14.7995 70.8807C7.26075 70.8807 1.08789 64.6937 1.08789 57.1535C1.08789 49.6141 7.27563 43.4263 14.8151 43.4263H21.7415H22.2415V42.9263V29.0735V28.5735H21.7415H14.8151C7.27563 28.5735 1.08789 22.3858 1.08789 14.8463C1.08789 7.30688 7.27563 1.11914 14.8151 1.11914C22.3545 1.11914 28.5423 7.30688 28.5423 14.8463V21.7727V22.2727H29.0423H42.9731H43.4731V21.7727V14.8463C43.4731 7.30688 49.6608 1.11914 57.2003 1.11914C64.739 1.11914 70.9119 7.30617 70.9119 14.8463C70.9119 22.3858 64.7241 28.5735 57.1847 28.5735H50.2583H49.7583V29.0735V43.0043V43.5043H50.2583H57.1847C64.7241 43.5043 70.9119 49.6921 70.9119 57.2315C70.9119 64.7643 64.6685 70.8807 57.1067 70.8807C49.5672 70.8807 43.3795 64.693 43.3795 57.1535V50.2271ZM50.2583 49.8051H49.7583V50.3051V57.2315C49.7583 61.2985 53.1177 64.6579 57.1847 64.6579C61.2516 64.6579 64.6111 61.2985 64.6111 57.2315C64.6111 53.1646 61.2516 49.8051 57.1847 49.8051H50.2583ZM22.2415 50.3051V49.8051H21.7415H14.8151C10.7481 49.8051 7.38869 53.1646 7.38869 57.2315C7.38869 61.2985 10.7481 64.6579 14.8151 64.6579C18.882 64.6579 22.2415 61.2985 22.2415 57.2315V50.3051ZM28.5423 42.9263V43.4263H29.0423H42.9731H43.4731V42.9263V29.0735V28.5735H42.9731H29.0423H28.5423V29.0735V42.9263ZM49.7583 21.6947V22.1947H50.2583H57.1847C61.2516 22.1947 64.6111 18.8353 64.6111 14.7683C64.6111 10.7014 61.2516 7.34194 57.1847 7.34194C53.1177 7.34194 49.7583 10.7014 49.7583 14.7683V21.6947ZM21.7415 22.2727H22.2415V21.7727V14.8463H22.2416L22.2414 14.8361C22.1581 10.7865 18.8912 7.41994 14.8151 7.41994C10.7481 7.41994 7.38869 10.7794 7.38869 14.8463C7.38869 18.9133 10.7481 22.2727 14.8151 22.2727H21.7415Z" fill="#122553" stroke="black"/>
</svg>
