<svg width="40" height="40" viewBox="0 0 40 40" fill="none" xmlns="http://www.w3.org/2000/svg">
<g clip-path="url(#clip0_338_12529)">
<path d="M19.9997 0H19.9996C8.95413 0 0 8.95413 0 19.9996V19.9997C0 31.0452 8.95413 39.9993 19.9996 39.9993H19.9997C31.0452 39.9993 39.9993 31.0452 39.9993 19.9997V19.9996C39.9993 8.95413 31.0452 0 19.9997 0Z" fill="#55A9D8"/>
<path d="M17.9105 21.9354L17.6436 25.8767C18.0254 25.8767 18.1908 25.7045 18.3891 25.4976L20.1792 23.7014L23.8886 26.5535C24.5688 26.9516 25.0481 26.742 25.2317 25.8964L27.6664 13.9174C27.8822 12.8615 27.3034 12.4479 26.6406 12.7069L12.3291 18.46C11.3523 18.8581 11.3671 19.4298 12.163 19.6888L15.8219 20.8838L24.3208 15.3001C24.7208 15.022 25.0844 15.1759 24.7853 15.454L17.9105 21.9354Z" fill="white"/>
</g>
<defs>
<clipPath id="clip0_338_12529">
<rect width="40" height="40" fill="white"/>
</clipPath>
</defs>
</svg>
