<svg width="36" height="36" viewBox="0 0 36 36" fill="none" xmlns="http://www.w3.org/2000/svg">
<g clip-path="url(#clip0_338_12532)">
<path d="M18 36C27.9411 36 36 27.9411 36 18C36 8.05887 27.9411 0 18 0C8.05887 0 0 8.05887 0 18C0 27.9411 8.05887 36 18 36Z" fill="#1DA1F2"/>
<path d="M26 12.5463C25.4289 12.8451 24.5687 12.9831 24.2835 13.0229C24.2812 13.0091 24.2788 12.9959 24.2764 12.9827C25.2459 12.3831 25.5427 11.254 25.5427 11.254C24.9423 11.5973 24.4131 11.7877 24.0145 11.8933C23.7904 11.9534 23.6075 11.9858 23.4759 12.004C22.8717 11.3844 22.0281 11 21.0942 11C19.2568 11 17.767 12.4894 17.767 14.3274C17.767 14.3935 17.7688 14.4593 17.7731 14.5245C17.782 14.6838 17.8023 14.8404 17.8336 14.9926C16.9442 14.9794 13.734 14.7067 11.0739 11.6166C11.0739 11.6166 9.59255 14.2011 12.083 15.9666C12.083 15.9666 11.0739 15.9351 10.5382 15.5568C10.5382 15.5568 10.3807 18.0472 13.249 18.835C13.249 18.835 12.2405 19.0874 11.7358 18.8667C11.7358 18.8667 12.2403 21.0101 14.762 21.168C14.762 21.168 12.9534 22.8238 10 22.5856C11.4526 23.5052 13.1748 24.0375 15.0212 24.0375C20.2129 24.0375 24.4218 19.8289 24.4218 14.6372C24.4218 14.5724 24.4212 14.5076 24.4198 14.4428C24.4212 14.4044 24.4218 14.3662 24.4218 14.3274C24.4218 14.3004 24.4212 14.2734 24.4208 14.2464C25.3806 13.6068 26 12.5463 26 12.5463Z" fill="white"/>
</g>
<defs>
<clipPath id="clip0_338_12532">
<rect width="36" height="36" fill="white"/>
</clipPath>
</defs>
</svg>
