<svg width="40" height="40" viewBox="0 0 40 40" fill="none" xmlns="http://www.w3.org/2000/svg">
<g clip-path="url(#clip0_338_12535)">
<path d="M19.9997 0H19.9996C8.95413 0 0 8.95413 0 19.9996V19.9997C0 31.0452 8.95413 39.9993 19.9996 39.9993H19.9997C31.0452 39.9993 39.9993 31.0452 39.9993 19.9997V19.9996C39.9993 8.95413 31.0452 0 19.9997 0Z" fill="#5BB452"/>
<path d="M11.5781 27.712L12.7068 23.7035C11.981 22.4705 11.5989 21.0676 11.5989 19.6265C11.5989 15.1891 15.2089 11.5791 19.6462 11.5791C24.0836 11.5791 27.6935 15.1891 27.6935 19.6265C27.6935 24.0638 24.0836 27.6738 19.6462 27.6738C18.2636 27.6738 16.9097 27.3199 15.712 26.6479L11.5781 27.712ZM15.9233 25.1838L16.1697 25.3343C17.2139 25.9718 18.4161 26.3087 19.6462 26.3087C23.3308 26.3087 26.3284 23.3111 26.3284 19.6265C26.3284 15.9419 23.3308 12.9442 19.6462 12.9442C15.9616 12.9442 12.964 15.9419 12.964 19.6265C12.964 20.9103 13.3288 22.1571 14.0191 23.2319L14.185 23.4902L13.535 25.7986L15.9233 25.1838Z" fill="white"/>
<path d="M17.3862 15.8799L16.864 15.8515C16.7 15.8425 16.5391 15.8973 16.4151 16.005C16.162 16.2249 15.7572 16.6499 15.6329 17.2037C15.4475 18.0295 15.734 19.0407 16.4756 20.0518C17.2171 21.063 18.599 22.6809 21.0427 23.3719C21.8302 23.5946 22.4496 23.4445 22.9276 23.1387C23.3061 22.8966 23.567 22.508 23.6611 22.0686L23.7445 21.6792C23.771 21.5554 23.7081 21.4298 23.5931 21.3768L21.8284 20.5634C21.7138 20.5106 21.5779 20.544 21.5009 20.6438L20.8081 21.542C20.7557 21.6098 20.6662 21.6367 20.5853 21.6083C20.1108 21.4416 18.5215 20.7759 17.6495 19.0962C17.6117 19.0233 17.6211 18.9349 17.6747 18.8727L18.3368 18.1068C18.4045 18.0286 18.4216 17.9186 18.3809 17.8235L17.6202 16.0438C17.5797 15.9491 17.489 15.8856 17.3862 15.8799Z" fill="white"/>
</g>
<defs>
<clipPath id="clip0_338_12535">
<rect width="40" height="40" fill="white"/>
</clipPath>
</defs>
</svg>
